<?xml version="1.0" standalone="no"?>
<!DOCTYPE svg PUBLIC "-//W3C//DTD SVG 1.1//EN" "http://www.w3.org/Graphics/SVG/1.1/DTD/svg11.dtd" >
<svg xmlns="http://www.w3.org/2000/svg" xmlns:xlink="http://www.w3.org/1999/xlink" version="1.1">
<metadata>
Created by FontForge 20170731 at Thu Oct 25 09:19:19 2012
 By Aleksey,,,
2006 Lukasz Dziedzic published by FSI FontShop International GmbH
</metadata>
<defs>
<font id="GoetheFFClan" horiz-adv-x="366" >
  <font-face 
    font-family="Goethe FF Clan"
    font-weight="400"
    font-stretch="condensed"
    units-per-em="1000"
    panose-1="2 11 5 6 3 1 1 2 1 4"
    ascent="787"
    descent="-213"
    x-height="592"
    cap-height="750"
    bbox="-116 -226 953 962"
    underline-thickness="39"
    underline-position="-119"
    unicode-range="U+000D-FB02"
  />
<missing-glyph horiz-adv-x="554" 
d="M86 750h382v-750h-382v750zM428 40v670h-302v-670h302z" />
    <glyph glyph-name="fi" unicode="fi" horiz-adv-x="621" 
d="M120 0v546h-86v46h86v32q0 78 40.5 124.5t130.5 46.5q19 0 37.5 -2.5t29.5 -6.5l-2 -42q-11 3 -25 5.5t-30 2.5q-66 0 -96 -33.5t-30 -95.5v-31h333v-592h-56v546h-277v-546h-55zM524 754q0 -40 -44 -40q-20 0 -31.5 8.5t-11.5 31.5q0 41 43 41q44 0 44 -41z" />
    <glyph glyph-name="fl" unicode="fl" horiz-adv-x="595" 
d="M433 0v751q-25 3 -48 5t-49 2q-87 0 -124 -34.5t-37 -98.5v-33h127v-46h-127v-546h-55v546h-86v46h85v35q0 39 11.5 71t37.5 55t67.5 35.5t100.5 12.5q48 0 81.5 -5t71.5 -6v-790h-56z" />
    <glyph glyph-name=".notdef" horiz-adv-x="554" 
d="M86 750h382v-750h-382v750zM428 40v670h-302v-670h302z" />
    <glyph glyph-name=".null" horiz-adv-x="0" 
 />
    <glyph glyph-name=".null" horiz-adv-x="0" 
 />
    <glyph glyph-name="nonmarkingreturn" unicode="&#xd;" horiz-adv-x="291" 
 />
    <glyph glyph-name="space" unicode=" " horiz-adv-x="291" 
 />
    <glyph glyph-name="exclam" unicode="!" horiz-adv-x="273" 
d="M115 187l-10 563h62l-11 -563h-41zM181 31q0 -41 -44 -41q-43 0 -43 41q0 42 43 42q44 0 44 -42z" />
    <glyph glyph-name="quotedbl" unicode="&#x22;" horiz-adv-x="329" 
d="M272 773l-14 -218h-37l-9 218h60zM121 773l-14 -218h-37l-9 218h60z" />
    <glyph glyph-name="numbersign" unicode="#" horiz-adv-x="582" 
d="M174 288l27 183h-143v47h148l29 232h45l-29 -232h117l29 232h44l-30 -232h114v-47h-119l-25 -183h143v-48h-149l-30 -240h-44l30 240h-118l-30 -240h-44l30 240h-112v48h117zM219 288h117l26 183h-117z" />
    <glyph glyph-name="dollar" unicode="$" horiz-adv-x="546" 
d="M222 -83l5 71q-48 4 -92.5 17t-75.5 33l7 60q35 -23 77 -37.5t88 -18.5l25 325q-36 15 -71.5 31.5t-63 40t-44.5 55.5t-17 78q0 91 58.5 139t166.5 50l5 64l38 -2l-5 -63q43 -4 78 -13.5t55 -20.5l-5 -56q-62 27 -133 33l-22 -284q36 -15 71 -32.5t62 -43t44 -61.5
t17 -87q0 -109 -56.5 -157.5t-171.5 -50.5l-5 -73zM442 188q0 34 -12.5 59t-33 44t-48 33.5t-57.5 27.5l-25 -311q89 1 132.5 36.5t43.5 110.5zM112 574q0 -30 12 -51t32.5 -37.5t47.5 -29t57 -24.5l20 273q-88 -1 -128.5 -37.5t-40.5 -93.5z" />
    <glyph glyph-name="percent" unicode="%" horiz-adv-x="633" 
d="M299 592q0 -94 -30.5 -133t-92.5 -39q-64 0 -94 39t-30 133t29 133.5t95 39.5q30 0 53 -8.5t38.5 -29t23.5 -53.5t8 -82zM258 593q0 40 -5 65.5t-15.5 40.5t-25.5 20.5t-36 5.5t-36.5 -5.5t-26 -20.5t-15.5 -40.5t-5 -65.5t5 -65.5t15.5 -40.5t26 -21t36.5 -6t36 6
t25.5 21t15.5 40.5t5 65.5zM505 718l-355 -709l-36 25l355 709zM581 166q0 -95 -30.5 -134t-92.5 -39q-64 0 -94 39.5t-30 133.5t29 134t95 40q30 0 53 -9t38.5 -29.5t23.5 -53.5t8 -82zM540 166q0 40 -5 65.5t-15 40.5t-25.5 20.5t-36.5 5.5t-36.5 -5.5t-25.5 -20.5
t-15 -40.5t-5 -65.5t5 -65.5t15.5 -40.5t25.5 -20.5t36 -5.5t36.5 5.5t25.5 20.5t15 40.5t5 65.5z" />
    <glyph glyph-name="ampersand" unicode="&#x26;" horiz-adv-x="624" 
d="M592 -9q-35 23 -72 53t-74 65q-39 -51 -92 -85.5t-122 -34.5q-48 0 -82.5 15t-56 40.5t-31.5 60t-10 73.5q0 40 11.5 74t30 64t43 55.5t51.5 49.5q-30 51 -47 97.5t-17 84.5q0 70 38 114.5t118 44.5q69 0 105.5 -33.5t36.5 -89.5q0 -33 -12.5 -61.5t-35 -55.5t-53 -54.5
t-65.5 -57.5q35 -54 82 -110t100 -108q26 43 42.5 89t23.5 88h48q-5 -42 -23.5 -100t-51.5 -114q34 -32 68 -60.5t68 -51.5zM240 45q50 0 92 28t76 72q-54 54 -103.5 113t-88.5 117q-45 -41 -76 -87.5t-31 -106.5q0 -64 36 -100t95 -36zM176 603q0 -30 13.5 -68t38.5 -80
q29 24 54.5 45.5t44 43.5t30 44t11.5 47q0 38 -23.5 58.5t-66.5 20.5q-44 0 -73 -28.5t-29 -82.5z" />
    <glyph glyph-name="quotesingle" unicode="'" horiz-adv-x="178" 
d="M119 773l-14 -218h-37l-9 218h60z" />
    <glyph glyph-name="parenleft" unicode="(" horiz-adv-x="291" 
d="M286 799q-65 -102 -101 -215.5t-36 -245.5q0 -136 37.5 -249.5t98.5 -211.5l-50 -3q-64 88 -101.5 207.5t-37.5 256.5q0 142 36.5 254t102.5 210z" />
    <glyph glyph-name="parenright" unicode=")" horiz-adv-x="291" 
d="M56 802q67 -98 103 -210t36 -254q0 -137 -37.5 -256.5t-101.5 -207.5l-50 3q61 98 98.5 211.5t37.5 249.5q0 132 -36 245.5t-101 215.5z" />
    <glyph glyph-name="asterisk" unicode="*" horiz-adv-x="329" 
d="M182 795l2 -112l106 31l11 -34l-106 -33l69 -94l-27 -21l-71 93l-74 -93l-27 21l70 94l-107 33l11 34l107 -31l3 112h33z" />
    <glyph glyph-name="plus" unicode="+" horiz-adv-x="537" 
d="M291 317v-176h-50v176h-172v54h172v180h50v-180h176v-54h-176z" />
    <glyph glyph-name="comma" unicode="," horiz-adv-x="222" 
d="M110 77q23 0 34 -13t11 -34q0 -11 -6 -32t-14.5 -45t-19 -49t-20.5 -43l-21 5l26 124q-14 3 -23.5 15t-9.5 27q0 20 10 32.5t33 12.5z" />
    <glyph glyph-name="hyphen" unicode="-" horiz-adv-x="374" 
d="M302 366v-46h-230v46h230z" />
    <glyph glyph-name="period" unicode="." horiz-adv-x="223" 
d="M155 34q0 -44 -43 -44q-45 0 -45 44q0 45 45 45q43 0 43 -45z" />
    <glyph glyph-name="slash" unicode="/" horiz-adv-x="387" 
d="M379 801l-314 -929h-48l314 929h48z" />
    <glyph glyph-name="zero" unicode="0" horiz-adv-x="574" 
d="M522 376q0 -108 -13.5 -182t-42 -119t-73 -65t-106.5 -20q-63 0 -107.5 20t-73 65t-41.5 119t-13 182q0 109 13 183t41.5 118t73.5 63t108 19q62 0 106 -19t72.5 -63t42 -118t13.5 -183zM464 377q0 100 -10.5 163.5t-32.5 99.5t-55 49.5t-78 13.5q-46 0 -79.5 -13.5
t-55.5 -49.5t-33 -99.5t-11 -163.5q0 -102 11 -166.5t33 -101t55.5 -50.5t79.5 -14q45 0 78 14t55 51t32.5 101.5t10.5 165.5z" />
    <glyph glyph-name="one" unicode="1" horiz-adv-x="425" 
d="M297 0h-60v584l2 81l-2 1l-151 -116l-7 55l185 147h33v-752z" />
    <glyph glyph-name="two" unicode="2" horiz-adv-x="574" 
d="M497 565q0 -60 -26.5 -120t-72.5 -122.5t-109 -128t-136 -134.5l1 -3h350l-2 -57h-428v42l47 49q60 63 117 124.5t101.5 121t71 115.5t26.5 108q0 30 -9 55.5t-29 44.5t-51 30t-74 11q-51 0 -97 -21t-81 -53l-18 50q36 34 88.5 57.5t115.5 23.5q104 0 159.5 -49.5
t55.5 -143.5z" />
    <glyph glyph-name="three" unicode="3" horiz-adv-x="574" 
d="M511 224q0 -53 -14 -95.5t-43.5 -73t-75 -47t-108.5 -16.5q-69 0 -116.5 16t-82.5 39l13 52q39 -26 83.5 -39.5t100.5 -13.5q49 0 84 13t57.5 37t33.5 57t11 73q0 82 -55 117.5t-181 35.5v47q117 0 167.5 38.5t50.5 110.5q0 67 -43.5 97t-116.5 30q-57 0 -100.5 -19.5
t-80.5 -52.5l-17 48q33 33 84.5 56.5t116.5 23.5q99 0 155 -44t56 -135q0 -74 -36.5 -115.5t-93.5 -58.5v-2q74 -15 112.5 -57t38.5 -122z" />
    <glyph glyph-name="four" unicode="4" horiz-adv-x="583" 
d="M441 177v-177h-54v177h-320l-5 40l306 533h73v-519h94l-3 -54h-91zM390 615l3 81l-2 1l-39 -72l-224 -394h260z" />
    <glyph glyph-name="five" unicode="5" horiz-adv-x="547" 
d="M495 256q0 -134 -56.5 -199t-172.5 -65q-60 0 -105 14.5t-83 40.5l12 54q38 -26 78.5 -40.5t92.5 -14.5q91 0 133.5 49t42.5 155q0 90 -42 128t-127 38q-49 0 -92 -12t-73 -31l-24 24l27 353h357l2 -57h-314l-19 -255q33 15 72.5 23t77.5 8q107 0 160 -51.5t53 -161.5z
" />
    <glyph glyph-name="six" unicode="6" horiz-adv-x="557" 
d="M504 256q0 -135 -55.5 -199.5t-166.5 -64.5q-56 0 -99 17t-72 58t-44 109.5t-15 171.5q0 109 18 187t52.5 127.5t85.5 72.5t118 23q39 0 73 -6.5t69 -21.5l-6 -54q-32 13 -62 19t-68 6q-54 0 -95 -17t-69 -54.5t-43.5 -96t-17.5 -140.5l3 -2q36 38 85 59t100 21
q109 0 159 -51.5t50 -163.5zM447 257q0 88 -39 126.5t-123 38.5q-23 0 -47.5 -6t-47.5 -17t-43.5 -27t-35.5 -36q1 -83 11.5 -138.5t31 -89t52.5 -48t76 -14.5q82 0 123.5 51t41.5 160z" />
    <glyph glyph-name="seven" unicode="7" horiz-adv-x="561" 
d="M509 698l-294 -698h-67l304 691h-392l3 59h446v-52z" />
    <glyph glyph-name="eight" unicode="8" horiz-adv-x="562" 
d="M52 199q0 72 40 121.5t104 78.5v3q-25 11 -46.5 25.5t-37.5 35t-25 48t-9 63.5q0 88 47.5 136t156.5 48q104 0 153.5 -45.5t49.5 -138.5q0 -61 -31 -107t-91 -75v-2q30 -11 56.5 -26t46.5 -37.5t32 -53.5t12 -74q0 -106 -57.5 -156.5t-170.5 -50.5q-119 0 -174.5 50
t-55.5 157zM454 196q0 41 -15 68.5t-40.5 46.5t-58 32t-66.5 25l-26 9q-30 -15 -55.5 -32t-44 -38.5t-29.5 -48t-11 -60.5q0 -80 40 -117.5t135 -37.5q79 0 125 36t46 117zM132 572q0 -39 15 -65t40 -43.5t57.5 -29.5t66.5 -24q65 30 93.5 68t28.5 92q0 70 -37 103t-115 33
q-149 0 -149 -134z" />
    <glyph glyph-name="nine" unicode="9" horiz-adv-x="558" 
d="M505 416q0 -119 -16.5 -200t-49.5 -130.5t-81.5 -71.5t-112.5 -22q-43 0 -77.5 7t-70.5 24l9 52q32 -14 63.5 -21t69.5 -7q52 0 91 17t65 57t40 105t16 160l-2 1q-35 -36 -80.5 -53t-97.5 -17q-113 0 -166 57.5t-53 160.5q0 108 53.5 165.5t165.5 57.5t173 -81.5
t61 -260.5zM449 443q-1 72 -14 121.5t-36 80.5t-55.5 45t-73.5 14q-80 0 -121 -41t-41 -126q0 -80 41 -124.5t129 -44.5q51 0 95 16.5t76 58.5z" />
    <glyph glyph-name="colon" unicode=":" horiz-adv-x="223" 
d="M155 516q0 -44 -43 -44q-45 0 -45 44q0 45 45 45q43 0 43 -45zM155 34q0 -44 -43 -44q-45 0 -45 44q0 45 45 45q43 0 43 -45z" />
    <glyph glyph-name="semicolon" unicode=";" horiz-adv-x="227" 
d="M159 516q0 -44 -43 -44q-45 0 -45 44q0 45 45 45q43 0 43 -45zM111 77q23 0 34 -13t11 -34q0 -11 -6 -32t-14.5 -45t-19 -49t-20.5 -43l-21 5l26 124q-14 3 -23.5 15t-9.5 27q0 20 10 32.5t33 12.5z" />
    <glyph glyph-name="less" unicode="&#x3c;" horiz-adv-x="537" 
d="M226 381l-71 -36v-3l72 -36l228 -120v-59l-373 201v29l373 210v-61z" />
    <glyph glyph-name="equal" unicode="=" horiz-adv-x="537" 
d="M71 398v49h395v-49h-395zM71 237v49h395v-49h-395z" />
    <glyph glyph-name="greater" unicode="&#x3e;" horiz-adv-x="537" 
d="M82 186l229 119l73 36v3l-72 36l-230 126l1 61l372 -210v-29l-373 -201v59z" />
    <glyph glyph-name="question" unicode="?" horiz-adv-x="460" 
d="M413 597q0 -43 -11.5 -79t-33 -66.5t-52.5 -58t-71 -54.5l-2 -152h-45l-4 174q38 29 68 55.5t51 53.5t32 56t11 64q0 63 -34.5 90.5t-93.5 27.5q-53 0 -94 -20t-74 -53l-22 46q32 35 82 58.5t113 23.5q91 0 135.5 -42.5t44.5 -123.5zM265 31q0 -41 -43 -41q-44 0 -44 41
q0 42 44 42q43 0 43 -42z" />
    <glyph glyph-name="at" unicode="@" horiz-adv-x="782" 
d="M414 553q58 0 81 -44h3l12 38l34 -3l-41 -256q-3 -18 -3 -35q0 -37 16.5 -59t52.5 -22q53 0 88 57.5t35 174.5q0 74 -18 136t-53.5 106.5t-87.5 69.5t-120 25q-81 0 -141.5 -33t-100.5 -89t-60 -129.5t-20 -153.5q0 -82 18.5 -154.5t57.5 -126.5t100 -85.5t146 -31.5
q52 0 93.5 8.5t73 22t55 30.5t39.5 34l17 -35q-48 -44 -115 -71t-163 -27q-91 0 -158.5 32.5t-112.5 90t-67 137.5t-22 176q0 88 22.5 168.5t67.5 142t112.5 97.5t157.5 36q74 0 133 -27t99.5 -76.5t62 -118.5t21.5 -153q0 -71 -12.5 -123.5t-35 -86.5t-53 -50.5
t-66.5 -16.5q-38 0 -63.5 20t-33.5 62l-3 1q-20 -38 -51.5 -60.5t-72.5 -22.5q-52 0 -83.5 38t-31.5 119q0 52 15 100.5t41 86t60.5 59.5t74.5 22zM484 466q-11 23 -28 32.5t-41 9.5q-29 0 -55 -18.5t-45.5 -49t-31 -71t-11.5 -84.5q0 -57 21.5 -82.5t56.5 -25.5
q39 0 69 34.5t38 90.5z" />
    <glyph glyph-name="A" unicode="A" horiz-adv-x="623" 
d="M469 200h-317l-63 -200h-65l251 750h74l251 -750h-68zM288 625l-118 -369h281l-115 369l-22 78h-3z" />
    <glyph glyph-name="B" unicode="B" horiz-adv-x="613" 
d="M549 210q0 -101 -48 -155.5t-161 -54.5h-240v750h228q97 0 145 -43t48 -140q0 -75 -29.5 -115t-75.5 -54v-2q61 -13 97 -56.5t36 -129.5zM489 214q0 81 -37.5 116.5t-115.5 35.5h-178v-311h183q70 0 109 35t39 124zM462 556q0 77 -33 107.5t-103 30.5h-168v-277h174
q67 0 98.5 34.5t31.5 104.5z" />
    <glyph glyph-name="C" unicode="C" horiz-adv-x="547" 
d="M493 671q-27 14 -64.5 23t-78.5 9q-57 0 -99 -15.5t-69.5 -52t-41.5 -98t-14 -153.5q0 -99 14 -164t42 -103.5t70.5 -54.5t99.5 -16q43 0 78 9t66 26l9 -53q-29 -17 -72 -29t-88 -12q-73 0 -126.5 22.5t-88 70.5t-51 123.5t-16.5 180.5q0 101 17 172.5t52 117.5t88.5 67
t126.5 21q42 0 85.5 -10t69.5 -24z" />
    <glyph glyph-name="D" unicode="D" horiz-adv-x="663" 
d="M600 378q0 -105 -17 -177t-52 -116.5t-88.5 -64.5t-126.5 -20h-216v750h214q75 0 129.5 -19.5t89 -64t51 -115.5t16.5 -173zM537 378q0 93 -13 153.5t-40.5 95.5t-70 49t-100.5 14h-153v-631h154q56 0 98 13.5t69.5 49.5t41.5 98t14 158z" />
    <glyph glyph-name="E" unicode="E" horiz-adv-x="558" 
d="M512 58l-2 -58h-410v750h394l2 -58h-336v-272h291v-54h-291v-308h352z" />
    <glyph glyph-name="F" unicode="F" horiz-adv-x="530" 
d="M161 690v-275h281l-1 -57h-280v-358h-61v750h394l2 -60h-335z" />
    <glyph glyph-name="G" unicode="G" horiz-adv-x="612" 
d="M547 28q-35 -19 -84.5 -30t-105.5 -11q-76 0 -131.5 21t-91.5 67t-53.5 119t-17.5 177q0 107 17.5 181.5t54 121t92.5 67.5t132 21q47 0 93 -10t79 -26l-8 -56q-35 16 -74.5 25t-87.5 9q-60 0 -104 -15.5t-73 -53t-43.5 -102t-14.5 -161.5q0 -92 13 -154.5t41 -100.5
t71.5 -54.5t104.5 -16.5q80 0 137 26v324h54v-368z" />
    <glyph glyph-name="H" unicode="H" horiz-adv-x="679" 
d="M519 0v363h-359v-363h-60v750h60v-328h359v328h60v-750h-60z" />
    <glyph glyph-name="I" unicode="I" horiz-adv-x="286" 
d="M112 750h62v-750h-62v750z" />
    <glyph glyph-name="J" unicode="J" horiz-adv-x="489" 
d="M389 223q0 -118 -56.5 -177t-161.5 -59q-44 0 -78 11t-58 30l7 57q23 -19 53.5 -29.5t69.5 -10.5q77 0 120 43.5t43 135.5v526h61v-527z" />
    <glyph glyph-name="K" unicode="K" horiz-adv-x="620" 
d="M512 0l-243 365h-109v-365h-60v750h60v-330h108l233 330h75l-251 -355l265 -395h-78z" />
    <glyph glyph-name="L" unicode="L" horiz-adv-x="514" 
d="M490 60l-3 -60h-387v750h60v-690h330z" />
    <glyph glyph-name="M" unicode="M" horiz-adv-x="816" 
d="M171 750l210 -584l26 -76h3l25 76l210 584h71v-750h-55v561l2 81l-3 1l-26 -77l-204 -566h-46l-204 563l-26 77l-2 -1l1 -81v-558h-53v750h71z" />
    <glyph glyph-name="N" unicode="N" horiz-adv-x="684" 
d="M538 0l-343 581l-40 71l-2 -1l1 -81v-570h-54v750h61l370 -638l2 1l-2 80l-1 557h54v-750h-46z" />
    <glyph glyph-name="O" unicode="O" horiz-adv-x="661" 
d="M598 375q0 -107 -14.5 -181t-46 -120t-82.5 -66.5t-124 -20.5q-72 0 -123 20.5t-83.5 66.5t-47 120t-14.5 181t14.5 181t46.5 119.5t83 66t124 20.5t124 -20.5t82.5 -66t46 -119.5t14.5 -181zM535 375q0 98 -11 161.5t-35.5 100.5t-63.5 51.5t-94 14.5t-94 -14.5
t-63.5 -51.5t-36 -100.5t-11.5 -161.5t11.5 -161.5t36 -101t63.5 -52t94 -14.5t94 14.5t63.5 52t35.5 101t11 161.5z" />
    <glyph glyph-name="P" unicode="P" horiz-adv-x="581" 
d="M533 530q0 -116 -52 -169t-171 -53h-150v-308h-60v750h210q116 0 169.5 -50t53.5 -170zM472 531q0 91 -39 127t-123 36h-150v-332h150q40 0 70.5 8t51 27.5t30.5 52t10 81.5z" />
    <glyph glyph-name="Q" unicode="Q" horiz-adv-x="661" 
d="M598 375q0 -98 -12 -167.5t-38 -116t-67.5 -71t-100.5 -30.5l159 -122l-83 -20l-141 139q-68 2 -116 24t-78 68.5t-44 119t-14 176.5q0 107 14.5 181t46.5 119.5t83 66t124 20.5t124 -20.5t82.5 -66t46 -119.5t14.5 -181zM535 375q0 98 -11 161.5t-35.5 100.5t-63.5 51.5
t-94 14.5t-94 -14.5t-63.5 -51.5t-36 -100.5t-11.5 -161.5t11.5 -161.5t36 -101t63.5 -52t94 -14.5t94 14.5t63.5 52t35.5 101t11 161.5z" />
    <glyph glyph-name="R" unicode="R" horiz-adv-x="586" 
d="M514 549q0 -94 -37.5 -141t-108.5 -55l190 -353h-73l-175 342h-150v-342h-60v750h212q104 0 153 -48.5t49 -152.5zM452 547q0 81 -34 114t-106 33h-152v-301h148q74 0 109 34.5t35 119.5z" />
    <glyph glyph-name="S" unicode="S" horiz-adv-x="506" 
d="M463 204q0 -105 -56 -161t-165 -56q-58 0 -105.5 14.5t-85.5 40.5l11 57q38 -26 81.5 -40t97.5 -14q81 0 122 40.5t41 115.5q0 50 -25.5 80t-64 50.5t-83.5 37t-83.5 40.5t-64 60.5t-25.5 97.5q0 43 13 78.5t39 61.5t65.5 40.5t93.5 14.5q50 0 93 -10t78 -29l-11 -55
q-37 17 -74.5 26.5t-81.5 9.5q-42 0 -71.5 -10.5t-48 -28.5t-27.5 -42.5t-9 -52.5q0 -48 25.5 -76t64 -47.5t83.5 -36t83.5 -41t64 -63.5t25.5 -102z" />
    <glyph glyph-name="T" unicode="T" horiz-adv-x="516" 
d="M288 690v-690h-60v690h-211l2 60h479l1 -60h-211z" />
    <glyph glyph-name="U" unicode="U" horiz-adv-x="662" 
d="M577 252q0 -141 -64.5 -203t-181.5 -62q-118 0 -182 62t-64 203v498h60v-497q0 -109 46 -157.5t140 -48.5t140 48.5t46 157.5v497h60v-498z" />
    <glyph glyph-name="V" unicode="V" horiz-adv-x="611" 
d="M583 750l-241 -750h-73l-242 750h67l211 -690h3l22 77l190 613h63z" />
    <glyph glyph-name="W" unicode="W" horiz-adv-x="891" 
d="M481 750l137 -610l17 -79h3l14 79l123 610h60l-162 -750h-76l-135 608l-15 80h-3l-16 -80l-134 -608h-75l-163 750h62l123 -611l15 -79h3l16 79l137 611h69z" />
    <glyph glyph-name="X" unicode="X" horiz-adv-x="616" 
d="M351 390l221 -390h-70l-157 282l-37 72h-3l-37 -72l-153 -282h-72l218 390l-209 360h73l143 -254l38 -71h3l37 71l140 254h71z" />
    <glyph glyph-name="Y" unicode="Y" horiz-adv-x="586" 
d="M97 750l164 -352l33 -74h3l32 74l163 352h67l-234 -488v-262h-61v262l-237 488h70z" />
    <glyph glyph-name="Z" unicode="Z" horiz-adv-x="550" 
d="M48 0v43l337 579l42 67l-2 2h-366l3 59h434v-49l-333 -573l-41 -66l1 -3h373l-3 -59h-445z" />
    <glyph glyph-name="bracketleft" unicode="[" horiz-adv-x="286" 
d="M96 801h185v-46h-133v-834h133v-45h-185v925z" />
    <glyph glyph-name="backslash" unicode="\" horiz-adv-x="348" 
d="M67 801l270 -929h-46l-271 929h47z" />
    <glyph glyph-name="bracketright" unicode="]" horiz-adv-x="287" 
d="M191 -124h-186v45h134v834h-133v46h185v-925z" />
    <glyph glyph-name="asciicircum" unicode="^" horiz-adv-x="590" 
d="M295 756l-177 -277h-52l209 327h41l207 -327h-50z" />
    <glyph glyph-name="underscore" unicode="_" horiz-adv-x="400" 
d="M376 -49v-40h-347v40h347z" />
    <glyph glyph-name="grave" unicode="`" 
d="M203 669l-93 139h73l65 -139h-45z" />
    <glyph glyph-name="a" unicode="a" horiz-adv-x="514" 
d="M390 81l-3 1q-22 -42 -65.5 -66t-99.5 -24q-73 0 -118 43t-45 142q0 86 47.5 131t145.5 45q36 0 70 -7.5t60 -18.5v80q0 42 -8 70t-25 44.5t-42.5 23.5t-60.5 7q-41 0 -77.5 -8.5t-71.5 -27.5l-7 50q76 38 165 38q48 0 83 -11t57 -35.5t32.5 -63.5t10.5 -96v-398h-43z
M382 282q-11 8 -42.5 17.5t-78.5 9.5q-78 0 -113.5 -34.5t-35.5 -97.5q0 -38 9.5 -64t26 -42t39.5 -23t50 -7q29 0 55 10t46 26.5t32 37t12 42.5v125z" />
    <glyph glyph-name="b" unicode="b" horiz-adv-x="564" 
d="M511 297q0 -86 -14 -145t-40.5 -95t-65 -52t-88.5 -16q-51 0 -93.5 20t-68.5 58l-3 -1l-10 -66h-37v799l56 4v-192l-1 -80l2 -1q28 35 70 54t91 19q46 0 83.5 -15t64 -50t40.5 -94t14 -147zM455 296q0 77 -11 126.5t-31.5 77.5t-50 38.5t-66.5 10.5q-49 0 -87.5 -21
t-61.5 -59v-347q17 -32 55 -57.5t95 -25.5q35 0 64 11t50 40t32.5 79t11.5 127z" />
    <glyph glyph-name="c" unicode="c" horiz-adv-x="450" 
d="M397 518q-24 13 -53.5 21t-61.5 8q-46 0 -78.5 -13t-53.5 -42t-30.5 -75t-9.5 -112q0 -75 10.5 -125.5t32 -81.5t53.5 -44.5t74 -13.5q69 0 121 38l5 -50q-23 -18 -58.5 -29.5t-77.5 -11.5q-55 0 -96 17t-68 55t-40.5 98.5t-13.5 146.5q0 155 53 226t167 71q36 0 70 -8.5
t60 -21.5z" />
    <glyph glyph-name="d" unicode="d" horiz-adv-x="561" 
d="M431 0l-9 66l-3 1q-50 -79 -163 -79q-54 0 -93 17.5t-63.5 55t-36 96t-11.5 140.5q0 157 48.5 231t156.5 74q48 0 90 -18t70 -56l2 1l-2 80v188l55 5v-802h-41zM417 469q-20 36 -58.5 57t-87.5 21q-44 0 -75 -13.5t-50 -43.5t-27.5 -78.5t-8.5 -117.5q0 -71 8.5 -120
t27 -79t49 -43.5t75.5 -13.5q32 0 56.5 7.5t42.5 19.5t29.5 27t18.5 29v348z" />
    <glyph glyph-name="e" unicode="e" horiz-adv-x="517" 
d="M289 -11q-63 0 -108 18t-73.5 57t-42 101.5t-13.5 151.5q0 285 211 285q45 0 82.5 -15t64.5 -48t41.5 -84.5t14.5 -124.5v-15t-1 -15h-356q1 -74 12.5 -123.5t34 -79.5t57 -42.5t82.5 -12.5q42 0 76.5 10t67.5 30l8 -51q-34 -20 -72.5 -31t-85.5 -11zM414 342
q0 58 -11.5 98t-31.5 64.5t-47 35t-60 10.5q-79 0 -115.5 -51t-40.5 -157h306z" />
    <glyph glyph-name="f" unicode="f" horiz-adv-x="361" 
d="M120 0v546h-86v46h85v32q0 78 40.5 124.5t130.5 46.5q20 0 40.5 -3.5t34.5 -8.5l-4 -41q-27 9 -63 9q-64 0 -93.5 -33t-29.5 -95v-31h149v-46h-149v-546h-55z" />
    <glyph glyph-name="g" unicode="g" horiz-adv-x="509" 
d="M253 261q-19 0 -38.5 2t-37.5 8q-27 -8 -41 -22t-14 -32q0 -37 54 -47l130 -16q48 -6 80.5 -17t52 -28t28 -40t8.5 -52q0 -39 -11 -70.5t-36.5 -53t-67 -33.5t-101.5 -12q-104 0 -151.5 42t-47.5 113q0 34 16 66.5t45 57.5q-22 10 -37 29t-15 48q0 27 19 49.5t52 35.5
q-31 17 -49.5 51t-18.5 90q0 84 42 127.5t138 43.5q35 0 69 -8t60 -30l90 42l13 -29l-73 -51q10 -18 15.5 -41.5t5.5 -53.5q0 -86 -40.5 -127.5t-138.5 -41.5zM168 117q-29 -22 -43.5 -50.5t-14.5 -56.5q0 -54 35 -84t113 -30q49 0 80.5 8t50 23t26 36t7.5 46
q0 19 -5.5 34.5t-19.5 27t-38.5 19t-61.5 11.5zM253 554q-69 0 -97 -31t-28 -94q0 -38 9.5 -62t26 -38t39 -19t49.5 -5q72 0 99 30.5t27 93.5q0 71 -29.5 98t-95.5 27z" />
    <glyph glyph-name="h" unicode="h" horiz-adv-x="560" 
d="M428 0v415q0 63 -33.5 97.5t-103.5 34.5q-50 0 -88.5 -22.5t-55.5 -54.5v-470h-56v797l56 5v-191l-1 -80l2 -1q27 35 68 53.5t90 18.5q87 0 132 -47t45 -140v-415h-55z" />
    <glyph glyph-name="i" unicode="i" horiz-adv-x="280" 
d="M112 0v590l56 4v-594h-56zM183 752q0 -40 -42 -40q-21 0 -32 8.5t-11 31.5q0 40 43 40q42 0 42 -40z" />
    <glyph glyph-name="j" unicode="j" horiz-adv-x="277" 
d="M166 -19q0 -75 -32.5 -104t-83.5 -29q-14 0 -30 3.5t-28 8.5l5 44q9 -4 19.5 -6.5t21.5 -2.5q32 0 52 20t20 67v608l56 4v-613zM180 754q0 -40 -43 -40q-21 0 -32 8.5t-11 31.5q0 41 43 41t43 -41z" />
    <glyph glyph-name="k" unicode="k" horiz-adv-x="515" 
d="M147 346h84l184 247h70l-202 -271l211 -322h-70l-192 295h-85v-295h-56v798l56 4v-456z" />
    <glyph glyph-name="l" unicode="l" horiz-adv-x="268" 
d="M106 0v798l56 4v-802h-56z" />
    <glyph glyph-name="m" unicode="m" horiz-adv-x="822" 
d="M690 0v416q0 69 -34 99.5t-92 30.5q-24 0 -45.5 -7.5t-38.5 -22t-27 -37t-10 -52.5v-427h-55v427q0 33 -9.5 55.5t-25.5 37t-37.5 21t-45.5 6.5q-38 0 -74 -20.5t-54 -55.5v-471h-56v591l40 4l10 -67h3q23 34 60 53t80 19q112 0 146 -92h3q18 45 57 68.5t92 23.5
q37 0 68 -11t53 -33.5t34.5 -57t12.5 -81.5v-417h-55z" />
    <glyph glyph-name="n" unicode="n" horiz-adv-x="554" 
d="M423 0v414q0 71 -36 102t-102 31q-20 0 -41 -5t-40.5 -14.5t-35.5 -24t-26 -32.5v-471h-56v591l40 4l10 -66h3q26 35 68.5 54t90.5 19q85 0 132.5 -45.5t47.5 -142.5v-414h-55z" />
    <glyph glyph-name="o" unicode="o" horiz-adv-x="548" 
d="M495 295q0 -86 -12.5 -144.5t-39.5 -95t-68.5 -52.5t-99.5 -16t-100 16t-69.5 52.5t-40.5 95t-13 144.5q0 85 13.5 143.5t41 95t69.5 52.5t99 16q58 0 99.5 -16t68.5 -52.5t39.5 -95t12.5 -143.5zM110 295q0 -72 9 -121.5t29 -79.5t51.5 -43t75.5 -13t75 13t50.5 43.5
t28.5 79.5t9 121t-9 121t-28.5 79t-50.5 43t-75 13t-75.5 -13t-51.5 -43t-29 -79t-9 -121z" />
    <glyph glyph-name="p" unicode="p" horiz-adv-x="558" 
d="M506 297q0 -85 -14 -144t-41 -95.5t-65.5 -52.5t-87.5 -16q-46 0 -85.5 16t-67.5 55l-2 -1l1 -81v-121h-58v733l41 3l12 -65h3q26 35 68 54.5t94 19.5q48 0 86 -14.5t63.5 -49.5t39 -93.5t13.5 -147.5zM449 298q0 75 -10.5 123.5t-30.5 76t-49.5 38.5t-66.5 11
q-49 0 -87 -20.5t-61 -58.5v-345q17 -33 52.5 -58t90.5 -25q36 0 66 11t51 40t33 79t12 128z" />
    <glyph glyph-name="q" unicode="q" horiz-adv-x="559" 
d="M414 -144v123l2 81l-2 1q-26 -34 -66 -52t-89 -18q-48 0 -86.5 15.5t-65 51.5t-41 94t-14.5 144q0 84 13.5 142t40 94.5t66 53t90.5 16.5q52 0 93.5 -20t67.5 -58h3l9 67h36l-1 -733zM415 466q-7 16 -21 30.5t-32.5 25.5t-42 18t-48.5 7q-43 0 -73.5 -12t-50 -41.5
t-28.5 -77.5t-9 -120q0 -73 10 -121.5t30 -77.5t50 -41t70 -12q32 0 58 8t45 21t29.5 29.5t12.5 32.5v331z" />
    <glyph glyph-name="r" unicode="r" horiz-adv-x="395" 
d="M86 0v589l45 4l2 -63l2 -81h2q23 68 68 109.5t105 41.5q14 0 26.5 -2t23.5 -5l-4 -59q-11 4 -23.5 5t-25.5 1q-33 0 -63 -16t-52.5 -46t-36 -72.5t-13.5 -95.5v-310h-56z" />
    <glyph glyph-name="s" unicode="s" horiz-adv-x="441" 
d="M395 164q0 -83 -43 -129.5t-136 -46.5q-47 0 -89 12.5t-71 37.5l8 52q29 -25 69.5 -38t80.5 -13q68 0 98.5 33t30.5 87q0 40 -21 64t-53 40t-68.5 29t-68.5 31.5t-53 47.5t-21 77q0 73 45.5 113.5t132.5 40.5q76 0 138 -32l-6 -51q-66 32 -133 32q-57 0 -90 -27t-33 -73
q0 -37 21 -58.5t52.5 -36t68 -27t68 -31.5t52.5 -50.5t21 -83.5z" />
    <glyph glyph-name="t" unicode="t" horiz-adv-x="348" 
d="M172 545v-410q0 -52 23.5 -73.5t63.5 -21.5q11 0 24 2.5t21 6.5l5 -46q-11 -5 -29 -8.5t-36 -3.5q-63 0 -95.5 34.5t-32.5 107.5v412h-82v47h83l11 153l44 6v-159h140v-47h-140z" />
    <glyph glyph-name="u" unicode="u" horiz-adv-x="545" 
d="M469 177q0 -91 -48 -139.5t-148 -48.5t-148 49t-48 139v415h55v-414q0 -68 36 -101.5t105 -33.5t104.5 33.5t35.5 101.5v414h56v-415z" />
    <glyph glyph-name="v" unicode="v" horiz-adv-x="564" 
d="M525 592l-209 -592h-68l-209 592h63l155 -462l25 -77h3l23 77l154 462h63z" />
    <glyph glyph-name="w" unicode="w" horiz-adv-x="776" 
d="M421 592l111 -467l17 -79h3l14 79l97 467h56l-133 -592h-71l-106 455l-16 80h-3l-18 -80l-108 -455h-70l-137 592h57l99 -464l16 -79h3l17 79l110 464h62z" />
    <glyph glyph-name="x" unicode="x" horiz-adv-x="529" 
d="M301 201l-37 72h-3l-38 -72l-112 -201h-65l179 301l-175 291h67l109 -191l38 -71h3l37 71l108 191h65l-173 -289l180 -303h-69z" />
    <glyph glyph-name="y" unicode="y" horiz-adv-x="564" 
d="M169 -106q32 0 56 17.5t44 66.5l3 12l-233 602h66l169 -464l26 -76h3l21 78l140 462h61l-199 -613q-24 -74 -61.5 -103t-86.5 -29q-21 0 -41 5t-36 13l7 46q15 -9 30.5 -13t30.5 -4z" />
    <glyph glyph-name="z" unicode="z" horiz-adv-x="486" 
d="M168 120l-42 -66l1 -3h301l-2 -51h-364v42l257 429l43 67l-2 2h-287l3 52h349v-42z" />
    <glyph glyph-name="braceleft" unicode="{" horiz-adv-x="334" 
d="M223 439q0 -35 -15 -60t-43 -36v-3q28 -11 43 -36.5t15 -59.5t-2.5 -62.5t-5 -56t-5 -55.5t-2.5 -61q0 -38 21 -60t75 -22h25v-48h-22q-84 0 -118.5 32t-34.5 91q0 34 3 63.5t6 58.5t6 58.5t3 62.5t-20 55.5t-56 26.5v29q36 4 56 26t20 56q0 33 -3 62.5t-6 58t-6 58.5
t-3 64q0 58 34.5 90.5t118.5 32.5h22v-48h-25q-54 0 -75 -21.5t-21 -60.5q0 -33 2.5 -61t5 -55.5t5 -56t2.5 -62.5z" />
    <glyph glyph-name="bar" unicode="|" horiz-adv-x="256" 
d="M106 816h44v-988h-44v988z" />
    <glyph glyph-name="braceright" unicode="}" horiz-adv-x="334" 
d="M111 244q0 34 14.5 59.5t43.5 36.5v3q-29 11 -43.5 36t-14.5 60q0 34 2.5 62.5t5.5 56t5.5 55.5t2.5 61q0 39 -21.5 60.5t-75.5 21.5h-25v48h22q84 0 118 -32.5t34 -90.5q0 -34 -2.5 -64t-6 -58.5t-6 -58t-2.5 -62.5q0 -34 20 -56t57 -26v-29q-37 -4 -57 -26.5t-20 -55.5
t2.5 -62.5t6 -58.5t6 -58.5t2.5 -63.5q0 -59 -34 -91t-118 -32h-22v48h25q54 0 75.5 22t21.5 60q0 33 -2.5 61t-5.5 55.5t-5.5 56t-2.5 62.5z" />
    <glyph glyph-name="asciitilde" unicode="~" horiz-adv-x="590" 
d="M92 649q9 59 35.5 88t74.5 29q25 0 49 -11t46.5 -24.5t44.5 -24.5t44 -11q32 0 48 15.5t26 45.5h36q-17 -117 -109 -117q-26 0 -49.5 11t-46 24.5t-44.5 24.5t-44 11q-31 0 -48 -16t-26 -45h-37z" />
    <glyph glyph-name="uni00A0" unicode="&#xa0;" horiz-adv-x="291" 
 />
    <glyph glyph-name="exclamdown" unicode="&#xa1;" horiz-adv-x="273" 
d="M159 480l8 -615h-61l9 615h44zM92 633q0 41 44 41q43 0 43 -41q0 -42 -43 -42q-44 0 -44 42z" />
    <glyph glyph-name="cent" unicode="&#xa2;" horiz-adv-x="590" 
d="M451 518q-24 13 -53.5 21t-61.5 8q-46 0 -78.5 -13t-53.5 -42t-30.5 -75t-9.5 -112q0 -75 10.5 -125.5t32 -81.5t53.5 -44.5t74 -13.5q69 0 121 38l5 -50q-21 -17 -52 -27.5t-68 -12.5l-6 -139h-46l6 140q-47 4 -82.5 23.5t-59 57.5t-35 96t-11.5 138q0 149 49 220
t153 76l8 131h46l-8 -132q29 -3 55.5 -10.5t46.5 -17.5z" />
    <glyph glyph-name="sterling" unicode="&#xa3;" horiz-adv-x="583" 
d="M77 402h52q-10 39 -18.5 75.5t-8.5 80.5q0 42 12 78.5t39.5 63.5t71.5 42.5t109 15.5q50 0 93 -10.5t75 -27.5l-10 -55q-28 15 -68 25.5t-84 10.5q-47 0 -80.5 -11t-55 -31t-31.5 -47t-10 -59q0 -38 8 -74.5t17 -76.5h243v-51h-232q5 -26 8 -55t3 -61q0 -65 -20.5 -110.5
t-56.5 -71.5l2 -3q47 9 94.5 12t110.5 3q52 0 103 -3.5t100 -8.5l-4 -59q-61 7 -113.5 10.5t-110.5 3.5q-33 0 -63.5 -1t-61.5 -2.5t-63 -4t-69 -5.5l-2 56q48 20 72 69t24 112q0 35 -3 64t-8 55h-61z" />
    <glyph glyph-name="currency" unicode="&#xa4;" horiz-adv-x="513" 
d="M100 353q0 52 30 93l-61 63l32 36l63 -65q20 14 43 22.5t49 8.5t49 -8.5t43 -22.5l65 65l32 -35l-64 -65q30 -41 30 -92q0 -50 -28 -90l61 -62l-32 -36l-62 63q-20 -15 -43.5 -23.5t-50.5 -8.5q-54 0 -94 31l-62 -62l-32 35l61 61q-29 40 -29 92zM140 355q0 -24 9 -44.5
t25 -36t36.5 -24t44.5 -8.5t45 8.5t36.5 24t24.5 36t9 44.5q0 23 -9 43.5t-24.5 35.5t-36.5 24t-45 9t-44.5 -9t-36.5 -24t-25 -35.5t-9 -43.5z" />
    <glyph glyph-name="yen" unicode="&#xa5;" horiz-adv-x="652" 
d="M280 324l-212 426h70l157 -348l32 -74h3l31 74l155 348h67l-206 -426h108v-40h-124v-59h125v-40h-125v-185h-64v185h-128v40h128v59h-128v40h111z" />
    <glyph glyph-name="brokenbar" unicode="&#xa6;" horiz-adv-x="256" 
d="M106 816h44v-440h-44v440zM106 279h44v-445h-44v445z" />
    <glyph glyph-name="section" unicode="&#xa7;" horiz-adv-x="501" 
d="M64 366q0 41 22.5 81.5t76.5 63.5l1 2q-38 26 -62.5 57.5t-24.5 73.5q0 71 48.5 111t140.5 40q44 0 88.5 -12t76.5 -35l-8 -48q-35 24 -74 35t-81 11q-66 0 -100 -26t-34 -74q0 -33 24 -58t60.5 -47.5t78.5 -45.5t78.5 -52t60.5 -66.5t24 -89.5q0 -42 -22.5 -82.5
t-76.5 -62.5v-3q37 -26 61.5 -57t24.5 -73q0 -72 -48.5 -111.5t-139.5 -39.5q-45 0 -89 12t-76 35l7 47q35 -24 74 -35t81 -11q66 0 100 26.5t34 73.5q0 33 -24 58.5t-60.5 48t-78.5 45.5t-78.5 52t-60.5 66.5t-24 89.5zM406 282q0 35 -18 63t-46.5 51.5t-63.5 44t-69 41.5
q-48 -17 -69.5 -46.5t-21.5 -65.5q0 -35 18 -63t46 -51t63 -43.5t70 -41.5q48 16 69.5 45t21.5 66z" />
    <glyph glyph-name="dieresis" unicode="&#xa8;" 
d="M149 755q0 -37 -33 -37q-16 0 -24 8.5t-8 28.5q0 38 32 38q33 0 33 -38zM286 755q0 -37 -33 -37q-16 0 -24.5 8.5t-8.5 28.5q0 38 33 38t33 -38z" />
    <glyph glyph-name="copyright" unicode="&#xa9;" horiz-adv-x="912" 
d="M64 380q0 81 30.5 152t84 124.5t125 84t152.5 30.5t152.5 -30.5t125 -84t84.5 -124.5t31 -152t-31 -153t-84.5 -125t-125 -84t-152.5 -31t-152.5 31t-125 84t-84 125t-30.5 153zM99 380q0 -72 27.5 -136.5t75.5 -113.5t113 -78t141 -29q75 0 140.5 28t114 76.5t77 113.5
t28.5 139q0 73 -28.5 137.5t-77 112.5t-114 76t-140.5 28t-140.5 -28t-113.5 -76t-75.5 -112.5t-27.5 -137.5zM604 549q-25 14 -59.5 23t-66.5 9q-50 0 -89 -15t-66 -42t-41 -64t-14 -80q0 -45 15 -83t42.5 -65t66.5 -42.5t88 -15.5q42 0 76.5 12.5t62.5 29.5
q2 -11 3.5 -22.5t3.5 -22.5q-29 -21 -71 -37.5t-88 -16.5q-57 0 -104.5 19.5t-81 54t-52.5 83t-19 106.5q0 51 17 97.5t49.5 82t80 56t108.5 20.5q46 0 84 -12t60 -28z" />
    <glyph glyph-name="ordfeminine" unicode="&#xaa;" horiz-adv-x="367" 
d="M267 452l-3 1q-17 -27 -43.5 -42t-59.5 -15q-50 0 -80 30t-30 99q0 60 33 92t96 32q21 0 42.5 -4.5t38.5 -13.5v50q0 53 -20.5 71.5t-65.5 18.5q-52 0 -97 -23l-5 45q52 25 110 25q68 0 97 -32.5t29 -112.5v-272h-38zM261 593q-7 5 -26 10.5t-46 5.5q-48 0 -69.5 -21.5
t-21.5 -62.5q0 -48 21.5 -66t54.5 -18q18 0 33.5 6.5t27.5 16.5t19 23t7 26v80z" />
    <glyph glyph-name="guillemotleft" unicode="&#xab;" horiz-adv-x="559" 
d="M269 328l196 -125v-50l-257 172v7l257 172v-51zM89 328l196 -125v-50l-257 172v7l257 172v-51z" />
    <glyph glyph-name="logicalnot" unicode="&#xac;" horiz-adv-x="590" 
d="M108 318v54h374v-202h-49v148h-325z" />
    <glyph glyph-name="uni00AD" unicode="&#xad;" horiz-adv-x="374" 
d="M302 366v-46h-230v46h230z" />
    <glyph glyph-name="registered" unicode="&#xae;" horiz-adv-x="429" 
d="M49 666q0 35 13 65.5t35.5 53.5t53 36t64.5 13t64 -13t52.5 -36t35.5 -53.5t13 -65.5t-13 -65t-35.5 -52.5t-52.5 -35.5t-64 -13t-64.5 13t-53 35.5t-35.5 52.5t-13 65zM70 667q0 -30 11.5 -56.5t31 -46t46.5 -31t57 -11.5q29 0 55 11.5t45.5 31t31 46t11.5 56.5
t-11.5 56.5t-31 46t-45.5 30.5t-55 11q-30 0 -57 -11t-46.5 -30.5t-31 -46t-11.5 -56.5zM295 711q0 -20 -10.5 -34.5t-30.5 -19.5l48 -86h-32l-44 84h-50v-84h-28v198h77q38 0 54 -16t16 -42zM267 710q0 34 -41 34h-50v-67h55q18 0 27 9.5t9 23.5z" />
    <glyph glyph-name="macron" unicode="&#xaf;" 
d="M306 724h-241v40h241v-40z" />
    <glyph glyph-name="degree" unicode="&#xb0;" horiz-adv-x="336" 
d="M51 697q0 24 9 46t24.5 38t37 25.5t46.5 9.5q24 0 45.5 -9.5t37.5 -25.5t25 -37.5t9 -46.5q0 -24 -9 -45.5t-25 -38t-37.5 -26t-45.5 -9.5t-45.5 9.5t-37.5 26t-25 38t-9 45.5zM83 697q0 -35 24 -59.5t61 -24.5q35 0 60.5 24t25.5 60t-25.5 60.5t-60.5 24.5
q-38 0 -61.5 -25t-23.5 -60z" />
    <glyph glyph-name="plusminus" unicode="&#xb1;" horiz-adv-x="590" 
d="M319 348v-162h-52v162h-169v53h169v173h52v-173h173v-53h-173zM97 96v47h393v-47h-393z" />
    <glyph glyph-name="twosuperior" unicode="&#xb2;" horiz-adv-x="310" 
d="M275 793q0 -31 -13.5 -61t-36.5 -60.5t-55 -62t-69 -64.5v-3h178l-1 -42h-237v32l20 20q33 33 62.5 64.5t52.5 61t36.5 57.5t13.5 54q0 29 -17.5 48t-59.5 19q-28 0 -51 -10t-43 -27l-13 39q20 17 49.5 29t65.5 12q59 0 88.5 -28t29.5 -78z" />
    <glyph glyph-name="threesuperior" unicode="&#xb3;" horiz-adv-x="310" 
d="M277 618q0 -57 -32 -90t-102 -33q-37 0 -63.5 8.5t-46.5 20.5l11 39q42 -27 99 -27q46 0 66.5 23t20.5 61t-26 55t-91 17v35q60 0 84.5 18t24.5 53q0 32 -20 45.5t-56 13.5q-30 0 -54 -9t-44 -26l-12 36q19 17 48 29t64 12q56 0 88 -24t32 -74q0 -38 -18.5 -59t-47.5 -30
v-2q37 -8 56 -30t19 -62z" />
    <glyph glyph-name="acute" unicode="&#xb4;" 
d="M296 808l-99 -139h-45l72 139h72z" />
    <glyph glyph-name="mu" unicode="&#xb5;" horiz-adv-x="554" 
d="M288 -11q-46 0 -88 19.5t-64 67.5l-2 -1q3 -116 9 -217l-57 -6v740h56v-415q0 -33 11 -58t30.5 -42.5t46 -26.5t57.5 -9q58 0 96.5 30t38.5 90v431h56v-591l-40 -5l-9 61l-3 1q-18 -34 -54.5 -51.5t-83.5 -17.5z" />
    <glyph glyph-name="paragraph" unicode="&#xb6;" horiz-adv-x="584" 
d="M175 -145v667q-58 2 -94 31.5t-36 85.5q0 48 33 79.5t99 31.5h359l-3 -50h-72v-845h-51v845h-184v-845h-51z" />
    <glyph glyph-name="periodcentered" unicode="&#xb7;" horiz-adv-x="251" 
d="M170 346q0 -44 -43 -44q-45 0 -45 44q0 45 45 45q43 0 43 -45z" />
    <glyph glyph-name="cedilla" unicode="&#xb8;" 
d="M182 0h39l-36 -191h-58z" />
    <glyph glyph-name="onesuperior" unicode="&#xb9;" horiz-adv-x="237" 
d="M174 500h-49v250l3 79l-3 1l-77 -54l-5 41l101 79h30v-396z" />
    <glyph glyph-name="ordmasculine" unicode="&#xba;" horiz-adv-x="393" 
d="M346 606q0 -59 -8.5 -99.5t-26.5 -65.5t-46 -35.5t-67 -10.5t-67 10.5t-46.5 35.5t-27.5 65.5t-9 99.5t9 99.5t27.5 65t46.5 35.5t67 11t67 -11t46 -35.5t26.5 -65t8.5 -99.5zM98 606q0 -48 5.5 -79.5t17.5 -51t31 -27.5t46 -8t45.5 8t30.5 27.5t17.5 51t5.5 79.5
t-5.5 80t-17.5 50.5t-30.5 26.5t-45.5 8t-46 -8t-31 -27t-17.5 -50.5t-5.5 -79.5z" />
    <glyph glyph-name="guillemotright" unicode="&#xbb;" horiz-adv-x="559" 
d="M257 203l194 125l-194 125v51l256 -172v-7l-256 -172v50zM78 203l194 125l-194 125v51l256 -172v-7l-256 -172v50z" />
    <glyph glyph-name="onequarter" unicode="&#xbc;" horiz-adv-x="781" 
d="M250 356h-49v250l3 79l-3 1l-77 -54l-5 41l101 79h30v-396zM648 89v-89h-45v89h-182l-4 28l172 277h59v-265h46l-2 -40h-44zM605 267l2 81l-2 1l-41 -70l-50 -82l-43 -65l1 -3h132zM642 750l-462 -750h-45l462 750h45z" />
    <glyph glyph-name="onehalf" unicode="&#xbd;" horiz-adv-x="781" 
d="M702 294q0 -31 -13.5 -61.5t-36.5 -61t-55 -62t-69 -64.5v-3h178l-1 -42h-237v32q35 36 68.5 70.5t59.5 67t41.5 62.5t15.5 57q0 29 -17.5 48t-59.5 19q-28 0 -51 -10t-43 -27l-13 40q20 17 49.5 28.5t65.5 11.5q59 0 88.5 -28t29.5 -77zM633 750l-462 -750h-45l462 750
h45zM246 356h-49v250l3 79l-3 1l-77 -54l-5 41l101 79h30v-396z" />
    <glyph glyph-name="threequarters" unicode="&#xbe;" horiz-adv-x="781" 
d="M647 89v-89h-45v89h-182l-4 28l172 277h59v-265h46l-2 -40h-44zM604 267l2 81l-2 1l-41 -70l-50 -82l-43 -65l1 -3h132zM643 750l-462 -750h-45l462 750h45zM310 474q0 -57 -32 -90t-102 -33q-37 0 -63.5 8.5t-46.5 20.5l11 39q42 -27 99 -27q46 0 66.5 23t20.5 61
t-26 55t-91 17v35q60 0 84.5 18t24.5 53q0 32 -20 45.5t-56 13.5q-30 0 -54 -9t-44 -26l-12 36q19 17 48 29t64 12q56 0 88 -24t32 -74q0 -38 -18.5 -59t-47.5 -30v-2q37 -9 56 -31t19 -61z" />
    <glyph glyph-name="questiondown" unicode="&#xbf;" horiz-adv-x="436" 
d="M48 66q0 42 11.5 77.5t33 66.5t52.5 58.5t70 54.5l3 152h45l4 -174q-38 -29 -68 -55.5t-51 -53.5t-32 -56t-11 -63q0 -63 34.5 -91t93.5 -28q53 0 94 20.5t74 52.5l22 -45q-32 -36 -82 -59t-113 -23q-180 0 -180 166zM196 631q0 42 43 42q22 0 33 -9.5t11 -32.5
q0 -42 -44 -42q-43 0 -43 42z" />
    <glyph glyph-name="Agrave" unicode="&#xc0;" horiz-adv-x="623" 
d="M469 200h-317l-63 -200h-65l251 750h74l251 -750h-68zM288 625l-118 -369h281l-115 369l-22 78h-3zM305 801l-106 112h76l78 -112h-48z" />
    <glyph glyph-name="Aacute" unicode="&#xc1;" horiz-adv-x="623" 
d="M469 200h-317l-63 -200h-65l251 750h74l251 -750h-68zM288 625l-118 -369h281l-115 369l-22 78h-3zM426 911l-112 -111h-49l79 111h82z" />
    <glyph glyph-name="Acircumflex" unicode="&#xc2;" horiz-adv-x="623" 
d="M469 200h-317l-63 -200h-65l251 750h74l251 -750h-68zM288 625l-118 -369h281l-115 369l-22 78h-3zM342 912l109 -113h-59l-80 83l-78 -83h-58l106 113h60z" />
    <glyph glyph-name="Atilde" unicode="&#xc3;" horiz-adv-x="623" 
d="M469 200h-317l-63 -200h-65l251 750h74l251 -750h-68zM288 625l-118 -369h281l-115 369l-22 78h-3zM186 808q5 42 22.5 68.5t48.5 26.5q19 0 34 -11t28.5 -24t26 -24t26.5 -11q29 0 41 56l27 -1q-4 -42 -22 -68.5t-49 -26.5q-18 0 -33 11t-28.5 24t-26 24t-25.5 11
q-15 0 -25 -15t-16 -40h-29z" />
    <glyph glyph-name="Adieresis" unicode="&#xc4;" horiz-adv-x="623" 
d="M469 200h-317l-63 -200h-65l251 750h74l251 -750h-68zM288 625l-118 -369h281l-115 369l-22 78h-3zM259 843q0 -35 -32 -35q-16 0 -24.5 7.5t-8.5 27.5q0 36 33 36q32 0 32 -36zM429 843q0 -35 -33 -35q-16 0 -24 7.5t-8 27.5q0 36 32 36q33 0 33 -36z" />
    <glyph glyph-name="Aring" unicode="&#xc5;" horiz-adv-x="623" 
d="M235 801q0 30 19 49.5t57 19.5t58 -19t20 -49q0 -44 -37 -61l248 -741h-68l-63 200h-317l-63 -200h-65l247 740q-36 16 -36 61zM288 625l-118 -369h281l-115 369l-22 78h-3zM268 800q0 -17 11 -27.5t33 -10.5t33 10.5t11 27.5q0 18 -11 28.5t-33 10.5t-33 -11t-11 -28z
" />
    <glyph glyph-name="AE" unicode="&#xc6;" horiz-adv-x="936" 
d="M520 692l29 -272h278v-54h-273l33 -308h301l-2 -58h-355l-20 200h-293l-96 -200h-72l378 750h450l3 -58h-361zM426 630l-181 -374h260l-36 366l-6 81l-3 1z" />
    <glyph glyph-name="Ccedilla" unicode="&#xc7;" horiz-adv-x="547" 
d="M320 -12q-67 3 -115.5 27.5t-80 73t-46.5 121.5t-15 174t17 172.5t52 117.5t88.5 67t126.5 21q42 0 85.5 -10t69.5 -24l-9 -57q-27 14 -64.5 23t-78.5 9q-57 0 -99 -15.5t-69.5 -52t-41.5 -98t-14 -153.5q0 -99 14 -164t42 -103.5t70.5 -54.5t99.5 -16q43 0 78 9t66 26
l9 -53q-27 -15 -65.5 -26.5t-79.5 -13.5l-33 -179h-58z" />
    <glyph glyph-name="Egrave" unicode="&#xc8;" horiz-adv-x="558" 
d="M512 58l-2 -58h-410v750h394l2 -58h-336v-272h291v-54h-291v-308h352zM299 801l-106 112h76l78 -112h-48z" />
    <glyph glyph-name="Eacute" unicode="&#xc9;" horiz-adv-x="558" 
d="M512 58l-2 -58h-410v750h394l2 -58h-336v-272h291v-54h-291v-308h352zM420 911l-112 -111h-49l79 111h82z" />
    <glyph glyph-name="Ecircumflex" unicode="&#xca;" horiz-adv-x="558" 
d="M512 58l-2 -58h-410v750h394l2 -58h-336v-272h291v-54h-291v-308h352zM335 912l109 -113h-59l-80 83l-78 -83h-58l106 113h60z" />
    <glyph glyph-name="Edieresis" unicode="&#xcb;" horiz-adv-x="558" 
d="M512 58l-2 -58h-410v750h394l2 -58h-336v-272h291v-54h-291v-308h352zM253 843q0 -35 -32 -35q-16 0 -24.5 7.5t-8.5 27.5q0 36 33 36q32 0 32 -36zM423 843q0 -35 -33 -35q-16 0 -24 7.5t-8 27.5q0 36 32 36q33 0 33 -36z" />
    <glyph glyph-name="Igrave" unicode="&#xcc;" horiz-adv-x="286" 
d="M112 750h62v-750h-62v750zM136 801l-106 112h76l78 -112h-48z" />
    <glyph glyph-name="Iacute" unicode="&#xcd;" horiz-adv-x="286" 
d="M112 750h62v-750h-62v750zM257 911l-112 -111h-49l79 111h82z" />
    <glyph glyph-name="Icircumflex" unicode="&#xce;" horiz-adv-x="286" 
d="M112 750h62v-750h-62v750zM173 912l109 -113h-59l-80 83l-78 -83h-58l106 113h60z" />
    <glyph glyph-name="Idieresis" unicode="&#xcf;" horiz-adv-x="286" 
d="M112 750h62v-750h-62v750zM91 843q0 -35 -32 -35q-16 0 -24.5 7.5t-8.5 27.5q0 36 33 36q32 0 32 -36zM261 843q0 -35 -33 -35q-16 0 -24 7.5t-8 27.5q0 36 32 36q33 0 33 -36z" />
    <glyph glyph-name="Eth" unicode="&#xd0;" horiz-adv-x="670" 
d="M607 378q0 -105 -17 -177t-52 -116.5t-88.5 -64.5t-126.5 -20h-216v373h-72v42h72v335h214q75 0 129.5 -19.5t89 -64t51 -115.5t16.5 -173zM544 378q0 93 -13 153.5t-40.5 95.5t-70 49t-100.5 14h-153v-275h107v-42h-107v-314h154q56 0 98 13.5t69.5 49.5t41.5 98t14 158
z" />
    <glyph glyph-name="Ntilde" unicode="&#xd1;" horiz-adv-x="684" 
d="M538 0l-343 581l-40 71l-2 -1l1 -81v-570h-54v750h61l370 -638l2 1l-2 80l-1 557h54v-750h-46zM223 808q5 42 22.5 68.5t48.5 26.5q19 0 34 -11t28.5 -24t26 -24t26.5 -11q29 0 41 56l27 -1q-4 -42 -22 -68.5t-49 -26.5q-18 0 -33 11t-28.5 24t-26 24t-25.5 11
q-15 0 -25 -15t-16 -40h-29z" />
    <glyph glyph-name="Ograve" unicode="&#xd2;" horiz-adv-x="661" 
d="M598 375q0 -107 -14.5 -181t-46 -120t-82.5 -66.5t-124 -20.5q-72 0 -123 20.5t-83.5 66.5t-47 120t-14.5 181t14.5 181t46.5 119.5t83 66t124 20.5t124 -20.5t82.5 -66t46 -119.5t14.5 -181zM535 375q0 98 -11 161.5t-35.5 100.5t-63.5 51.5t-94 14.5t-94 -14.5
t-63.5 -51.5t-36 -100.5t-11.5 -161.5t11.5 -161.5t36 -101t63.5 -52t94 -14.5t94 14.5t63.5 52t35.5 101t11 161.5zM342 801l-106 112h76l78 -112h-48z" />
    <glyph glyph-name="Oacute" unicode="&#xd3;" horiz-adv-x="661" 
d="M598 375q0 -107 -14.5 -181t-46 -120t-82.5 -66.5t-124 -20.5q-72 0 -123 20.5t-83.5 66.5t-47 120t-14.5 181t14.5 181t46.5 119.5t83 66t124 20.5t124 -20.5t82.5 -66t46 -119.5t14.5 -181zM535 375q0 98 -11 161.5t-35.5 100.5t-63.5 51.5t-94 14.5t-94 -14.5
t-63.5 -51.5t-36 -100.5t-11.5 -161.5t11.5 -161.5t36 -101t63.5 -52t94 -14.5t94 14.5t63.5 52t35.5 101t11 161.5zM445 911l-112 -111h-49l79 111h82z" />
    <glyph glyph-name="Ocircumflex" unicode="&#xd4;" horiz-adv-x="661" 
d="M598 375q0 -107 -14.5 -181t-46 -120t-82.5 -66.5t-124 -20.5q-72 0 -123 20.5t-83.5 66.5t-47 120t-14.5 181t14.5 181t46.5 119.5t83 66t124 20.5t124 -20.5t82.5 -66t46 -119.5t14.5 -181zM535 375q0 98 -11 161.5t-35.5 100.5t-63.5 51.5t-94 14.5t-94 -14.5
t-63.5 -51.5t-36 -100.5t-11.5 -161.5t11.5 -161.5t36 -101t63.5 -52t94 -14.5t94 14.5t63.5 52t35.5 101t11 161.5zM361 912l109 -113h-59l-80 83l-78 -83h-58l106 113h60z" />
    <glyph glyph-name="Otilde" unicode="&#xd5;" horiz-adv-x="661" 
d="M598 375q0 -107 -14.5 -181t-46 -120t-82.5 -66.5t-124 -20.5q-72 0 -123 20.5t-83.5 66.5t-47 120t-14.5 181t14.5 181t46.5 119.5t83 66t124 20.5t124 -20.5t82.5 -66t46 -119.5t14.5 -181zM535 375q0 98 -11 161.5t-35.5 100.5t-63.5 51.5t-94 14.5t-94 -14.5
t-63.5 -51.5t-36 -100.5t-11.5 -161.5t11.5 -161.5t36 -101t63.5 -52t94 -14.5t94 14.5t63.5 52t35.5 101t11 161.5zM205 808q5 42 22.5 68.5t48.5 26.5q19 0 34 -11t28.5 -24t26 -24t26.5 -11q29 0 41 56l27 -1q-4 -42 -22 -68.5t-49 -26.5q-18 0 -33 11t-28.5 24t-26 24
t-25.5 11q-15 0 -25 -15t-16 -40h-29z" />
    <glyph glyph-name="Odieresis" unicode="&#xd6;" horiz-adv-x="661" 
d="M598 375q0 -107 -14.5 -181t-46 -120t-82.5 -66.5t-124 -20.5q-72 0 -123 20.5t-83.5 66.5t-47 120t-14.5 181t14.5 181t46.5 119.5t83 66t124 20.5t124 -20.5t82.5 -66t46 -119.5t14.5 -181zM535 375q0 98 -11 161.5t-35.5 100.5t-63.5 51.5t-94 14.5t-94 -14.5
t-63.5 -51.5t-36 -100.5t-11.5 -161.5t11.5 -161.5t36 -101t63.5 -52t94 -14.5t94 14.5t63.5 52t35.5 101t11 161.5zM279 843q0 -35 -32 -35q-16 0 -24.5 7.5t-8.5 27.5q0 36 33 36q32 0 32 -36zM449 843q0 -35 -33 -35q-16 0 -24 7.5t-8 27.5q0 36 32 36q33 0 33 -36z" />
    <glyph glyph-name="multiply" unicode="&#xd7;" horiz-adv-x="537" 
d="M411 163l-141 141l-143 -141l-34 37l142 142l-142 140l35 38l142 -140l140 140l34 -38l-141 -140l141 -141z" />
    <glyph glyph-name="Oslash" unicode="&#xd8;" horiz-adv-x="661" 
d="M49 19l57 85q-23 47 -33 113.5t-10 157.5q0 107 14.5 181t46.5 119.5t82.5 66t123.5 20.5q72 0 122 -19.5t82 -64.5l61 81l32 -30l-69 -94q40 -90 40 -260q0 -107 -14.5 -181t-46.5 -120t-83 -66.5t-124 -20.5q-69 0 -118 18t-81 59l-50 -76zM126 375q0 -73 5.5 -126.5
t18.5 -91.5l344 468q-24 45 -64 61.5t-100 16.5q-55 0 -93.5 -14.5t-63 -51.5t-36 -100.5t-11.5 -161.5zM535 375q0 69 -5.5 119.5t-15.5 88.5l-345 -464q25 -42 64.5 -57.5t97.5 -15.5q55 0 93.5 14.5t63 52t36 101t11.5 161.5z" />
    <glyph glyph-name="Ugrave" unicode="&#xd9;" horiz-adv-x="662" 
d="M577 252q0 -141 -64.5 -203t-181.5 -62q-118 0 -182 62t-64 203v498h60v-497q0 -109 46 -157.5t140 -48.5t140 48.5t46 157.5v497h60v-498zM323 801l-106 112h76l78 -112h-48z" />
    <glyph glyph-name="Uacute" unicode="&#xda;" horiz-adv-x="662" 
d="M577 252q0 -141 -64.5 -203t-181.5 -62q-118 0 -182 62t-64 203v498h60v-497q0 -109 46 -157.5t140 -48.5t140 48.5t46 157.5v497h60v-498zM444 911l-112 -111h-49l79 111h82z" />
    <glyph glyph-name="Ucircumflex" unicode="&#xdb;" horiz-adv-x="662" 
d="M577 252q0 -141 -64.5 -203t-181.5 -62q-118 0 -182 62t-64 203v498h60v-497q0 -109 46 -157.5t140 -48.5t140 48.5t46 157.5v497h60v-498zM360 912l109 -113h-59l-80 83l-78 -83h-58l106 113h60z" />
    <glyph glyph-name="Udieresis" unicode="&#xdc;" horiz-adv-x="662" 
d="M577 252q0 -141 -64.5 -203t-181.5 -62q-118 0 -182 62t-64 203v498h60v-497q0 -109 46 -157.5t140 -48.5t140 48.5t46 157.5v497h60v-498zM277 843q0 -35 -32 -35q-16 0 -24.5 7.5t-8.5 27.5q0 36 33 36q32 0 32 -36zM447 843q0 -35 -33 -35q-16 0 -24 7.5t-8 27.5
q0 36 32 36q33 0 33 -36z" />
    <glyph glyph-name="Yacute" unicode="&#xdd;" horiz-adv-x="586" 
d="M97 750l164 -352l33 -74h3l32 74l163 352h67l-234 -488v-262h-61v262l-237 488h70zM409 911l-112 -111h-49l79 111h82z" />
    <glyph glyph-name="Thorn" unicode="&#xde;" horiz-adv-x="579" 
d="M533 389q0 -58 -13 -100t-42 -69t-75.5 -40t-112.5 -13h-130v-167h-60v750h60v-141h130q65 0 111 -12t75.5 -38.5t43 -68t13.5 -101.5zM472 389q0 46 -10.5 77t-32.5 50.5t-56.5 28t-82.5 8.5h-130v-332h130q47 0 81.5 8t57 27.5t33 51.5t10.5 81z" />
    <glyph glyph-name="germandbls" unicode="&#xdf;" horiz-adv-x="565" 
d="M91 521q0 118 52 180t148 62q33 0 60 -9.5t46.5 -26t30.5 -38.5t11 -48q0 -39 -22 -71t-48 -58.5t-48 -48t-22 -40.5q0 -16 16.5 -29.5t41.5 -28.5t53.5 -32.5t53.5 -41t41.5 -54.5t16.5 -72q0 -42 -14 -74t-40 -54t-62 -33.5t-79 -11.5q-38 0 -78.5 9.5t-68.5 31.5l6 53
q26 -20 60.5 -30t72.5 -10q63 0 104.5 29t41.5 89q0 35 -16.5 60.5t-41.5 46t-54.5 37t-54.5 33t-41.5 35t-16.5 41.5q0 18 11 35.5t27 34.5t35 34.5t35 36.5t27 39t11 43q0 32 -26 52t-70 20q-70 0 -106.5 -46.5t-36.5 -139.5v-526h-56v521z" />
    <glyph glyph-name="agrave" unicode="&#xe0;" horiz-adv-x="514" 
d="M390 81l-3 1q-22 -42 -65.5 -66t-99.5 -24q-73 0 -118 43t-45 142q0 86 47.5 131t145.5 45q36 0 70 -7.5t60 -18.5v80q0 42 -8 70t-25 44.5t-42.5 23.5t-60.5 7q-41 0 -77.5 -8.5t-71.5 -27.5l-7 50q76 38 165 38q48 0 83 -11t57 -35.5t32.5 -63.5t10.5 -96v-398h-43z
M382 282q-11 8 -42.5 17.5t-78.5 9.5q-78 0 -113.5 -34.5t-35.5 -97.5q0 -38 9.5 -64t26 -42t39.5 -23t50 -7q29 0 55 10t46 26.5t32 37t12 42.5v125zM247 669l-93 139h73l65 -139h-45z" />
    <glyph glyph-name="aacute" unicode="&#xe1;" horiz-adv-x="514" 
d="M390 81l-3 1q-22 -42 -65.5 -66t-99.5 -24q-73 0 -118 43t-45 142q0 86 47.5 131t145.5 45q36 0 70 -7.5t60 -18.5v80q0 42 -8 70t-25 44.5t-42.5 23.5t-60.5 7q-41 0 -77.5 -8.5t-71.5 -27.5l-7 50q76 38 165 38q48 0 83 -11t57 -35.5t32.5 -63.5t10.5 -96v-398h-43z
M382 282q-11 8 -42.5 17.5t-78.5 9.5q-78 0 -113.5 -34.5t-35.5 -97.5q0 -38 9.5 -64t26 -42t39.5 -23t50 -7q29 0 55 10t46 26.5t32 37t12 42.5v125zM353 808l-99 -139h-45l72 139h72z" />
    <glyph glyph-name="acircumflex" unicode="&#xe2;" horiz-adv-x="514" 
d="M390 81l-3 1q-22 -42 -65.5 -66t-99.5 -24q-73 0 -118 43t-45 142q0 86 47.5 131t145.5 45q36 0 70 -7.5t60 -18.5v80q0 42 -8 70t-25 44.5t-42.5 23.5t-60.5 7q-41 0 -77.5 -8.5t-71.5 -27.5l-7 50q76 38 165 38q48 0 83 -11t57 -35.5t32.5 -63.5t10.5 -96v-398h-43z
M382 282q-11 8 -42.5 17.5t-78.5 9.5q-78 0 -113.5 -34.5t-35.5 -97.5q0 -38 9.5 -64t26 -42t39.5 -23t50 -7q29 0 55 10t46 26.5t32 37t12 42.5v125zM279 808l98 -139h-48l-75 110l-75 -110h-47l96 139h51z" />
    <glyph glyph-name="atilde" unicode="&#xe3;" horiz-adv-x="514" 
d="M390 81l-3 1q-22 -42 -65.5 -66t-99.5 -24q-73 0 -118 43t-45 142q0 86 47.5 131t145.5 45q36 0 70 -7.5t60 -18.5v80q0 42 -8 70t-25 44.5t-42.5 23.5t-60.5 7q-41 0 -77.5 -8.5t-71.5 -27.5l-7 50q76 38 165 38q48 0 83 -11t57 -35.5t32.5 -63.5t10.5 -96v-398h-43z
M382 282q-11 8 -42.5 17.5t-78.5 9.5q-78 0 -113.5 -34.5t-35.5 -97.5q0 -38 9.5 -64t26 -42t39.5 -23t50 -7q29 0 55 10t46 26.5t32 37t12 42.5v125zM126 695q5 47 23.5 75t48.5 28q19 0 34 -11.5t28.5 -25t26 -25t27.5 -11.5q30 0 41 62l30 -1q-5 -47 -24 -75t-48 -28
q-19 0 -34 11.5t-28.5 25.5t-26 25.5t-26.5 11.5t-25 -17t-17 -46z" />
    <glyph glyph-name="adieresis" unicode="&#xe4;" horiz-adv-x="514" 
d="M390 81l-3 1q-22 -42 -65.5 -66t-99.5 -24q-73 0 -118 43t-45 142q0 86 47.5 131t145.5 45q36 0 70 -7.5t60 -18.5v80q0 42 -8 70t-25 44.5t-42.5 23.5t-60.5 7q-41 0 -77.5 -8.5t-71.5 -27.5l-7 50q76 38 165 38q48 0 83 -11t57 -35.5t32.5 -63.5t10.5 -96v-398h-43z
M382 282q-11 8 -42.5 17.5t-78.5 9.5q-78 0 -113.5 -34.5t-35.5 -97.5q0 -38 9.5 -64t26 -42t39.5 -23t50 -7q29 0 55 10t46 26.5t32 37t12 42.5v125zM224 755q0 -37 -33 -37q-16 0 -24 8.5t-8 28.5q0 38 32 38q33 0 33 -38zM361 755q0 -37 -33 -37q-16 0 -24.5 8.5
t-8.5 28.5q0 38 33 38t33 -38z" />
    <glyph glyph-name="aring" unicode="&#xe5;" horiz-adv-x="514" 
d="M390 79l-3 1q-22 -42 -65.5 -66t-99.5 -24q-73 0 -118 43t-45 142q0 86 47.5 131t145.5 45q36 0 70 -7.5t60 -18.5v80q0 42 -8 70t-25 44.5t-42.5 23.5t-60.5 7q-41 0 -77.5 -8.5t-71.5 -27.5l-7 50q76 38 165 38q48 0 83 -11t57 -35.5t32.5 -63.5t10.5 -96v-398h-43z
M382 280q-11 8 -42.5 17.5t-78.5 9.5q-78 0 -113.5 -34.5t-35.5 -97.5q0 -38 9.5 -64t26 -42t39.5 -23t50 -7q29 0 55 10t46 26.5t32 37t12 42.5v125zM176 747q0 31 21.5 50.5t59.5 19.5t60 -19.5t22 -50.5q0 -32 -22 -51.5t-60 -19.5q-37 0 -59 19t-22 52zM208 747
q0 -20 12.5 -32t37.5 -12q23 0 37 12t14 32q0 19 -13.5 31t-37.5 12q-25 0 -37.5 -12.5t-12.5 -30.5z" />
    <glyph glyph-name="ae" unicode="&#xe6;" horiz-adv-x="839" 
d="M255 602q67 0 106 -23t55 -77h2q51 100 172 100q44 0 80.5 -15t63 -48t41 -84.5t14.5 -124.5v-15t-1 -15h-355q1 -74 13 -123.5t34.5 -79.5t57 -42.5t81.5 -12.5q41 0 75.5 10.5t68.5 30.5l7 -52q-33 -20 -71.5 -31t-86.5 -11q-81 0 -130 29t-72 91h-3
q-20 -56 -66.5 -87.5t-112.5 -31.5q-77 0 -123 43t-46 142q0 86 47.5 130.5t145.5 44.5q38 0 71 -7.5t59 -19.5v82q0 42 -8 70t-25 44.5t-42.5 23.5t-60.5 7q-41 0 -77.5 -8.5t-71.5 -27.5l-7 50q76 38 165 38zM382 280q-11 8 -42.5 17.5t-78.5 9.5q-78 0 -114 -34.5
t-36 -97.5q0 -38 9.5 -64t26.5 -42t40 -23t50 -7q31 0 58 10.5t46 28.5t30 43t11 54v105zM738 342q-1 58 -12.5 98t-31.5 64.5t-47.5 35t-59.5 10.5q-78 0 -114.5 -51t-39.5 -157h305z" />
    <glyph glyph-name="ccedilla" unicode="&#xe7;" horiz-adv-x="450" 
d="M244 -12q-48 4 -84 23.5t-60 57.5t-36 96t-12 139q0 155 53 226t167 71q36 0 70 -8.5t60 -21.5l-5 -53q-24 13 -53.5 21t-61.5 8q-46 0 -78.5 -13t-53.5 -42t-30.5 -75t-9.5 -112q0 -75 10.5 -125.5t32 -81.5t53.5 -44.5t74 -13.5q69 0 121 38l5 -50q-22 -17 -53.5 -27.5
t-68.5 -12.5l-33 -179h-58z" />
    <glyph glyph-name="egrave" unicode="&#xe8;" horiz-adv-x="517" 
d="M289 -11q-63 0 -108 18t-73.5 57t-42 101.5t-13.5 151.5q0 285 211 285q45 0 82.5 -15t64.5 -48t41.5 -84.5t14.5 -124.5v-15t-1 -15h-356q1 -74 12.5 -123.5t34 -79.5t57 -42.5t82.5 -12.5q42 0 76.5 10t67.5 30l8 -51q-34 -20 -72.5 -31t-85.5 -11zM414 342
q0 58 -11.5 98t-31.5 64.5t-47 35t-60 10.5q-79 0 -115.5 -51t-40.5 -157h306zM256 669l-93 139h73l65 -139h-45z" />
    <glyph glyph-name="eacute" unicode="&#xe9;" horiz-adv-x="517" 
d="M289 -11q-63 0 -108 18t-73.5 57t-42 101.5t-13.5 151.5q0 285 211 285q45 0 82.5 -15t64.5 -48t41.5 -84.5t14.5 -124.5v-15t-1 -15h-356q1 -74 12.5 -123.5t34 -79.5t57 -42.5t82.5 -12.5q42 0 76.5 10t67.5 30l8 -51q-34 -20 -72.5 -31t-85.5 -11zM414 342
q0 58 -11.5 98t-31.5 64.5t-47 35t-60 10.5q-79 0 -115.5 -51t-40.5 -157h306zM362 808l-99 -139h-45l72 139h72z" />
    <glyph glyph-name="ecircumflex" unicode="&#xea;" horiz-adv-x="517" 
d="M289 -11q-63 0 -108 18t-73.5 57t-42 101.5t-13.5 151.5q0 285 211 285q45 0 82.5 -15t64.5 -48t41.5 -84.5t14.5 -124.5v-15t-1 -15h-356q1 -74 12.5 -123.5t34 -79.5t57 -42.5t82.5 -12.5q42 0 76.5 10t67.5 30l8 -51q-34 -20 -72.5 -31t-85.5 -11zM414 342
q0 58 -11.5 98t-31.5 64.5t-47 35t-60 10.5q-79 0 -115.5 -51t-40.5 -157h306zM288 808l98 -139h-48l-75 110l-75 -110h-47l96 139h51z" />
    <glyph glyph-name="edieresis" unicode="&#xeb;" horiz-adv-x="517" 
d="M289 -11q-63 0 -108 18t-73.5 57t-42 101.5t-13.5 151.5q0 285 211 285q45 0 82.5 -15t64.5 -48t41.5 -84.5t14.5 -124.5v-15t-1 -15h-356q1 -74 12.5 -123.5t34 -79.5t57 -42.5t82.5 -12.5q42 0 76.5 10t67.5 30l8 -51q-34 -20 -72.5 -31t-85.5 -11zM414 342
q0 58 -11.5 98t-31.5 64.5t-47 35t-60 10.5q-79 0 -115.5 -51t-40.5 -157h306zM222 755q0 -37 -33 -37q-16 0 -24 8.5t-8 28.5q0 38 32 38q33 0 33 -38zM359 755q0 -37 -33 -37q-16 0 -24.5 8.5t-8.5 28.5q0 38 33 38t33 -38z" />
    <glyph glyph-name="igrave" unicode="&#xec;" horiz-adv-x="280" 
d="M112 0v590l56 4v-594h-56zM131 669l-93 139h73l65 -139h-45z" />
    <glyph glyph-name="iacute" unicode="&#xed;" horiz-adv-x="280" 
d="M112 0v590l56 4v-594h-56zM236 808l-99 -139h-45l72 139h72z" />
    <glyph glyph-name="icircumflex" unicode="&#xee;" horiz-adv-x="280" 
d="M112 0v590l56 4v-594h-56zM163 808l98 -139h-48l-75 110l-75 -110h-47l96 139h51z" />
    <glyph glyph-name="idieresis" unicode="&#xef;" horiz-adv-x="280" 
d="M112 0v590l56 4v-594h-56zM107 755q0 -37 -33 -37q-16 0 -24 8.5t-8 28.5q0 38 32 38q33 0 33 -38zM244 755q0 -37 -33 -37q-16 0 -24.5 8.5t-8.5 28.5q0 38 33 38t33 -38z" />
    <glyph glyph-name="eth" unicode="&#xf0;" horiz-adv-x="549" 
d="M328 718q35 -37 65.5 -81.5t53.5 -94t36 -102t13 -104.5q0 -96 -13 -162t-40.5 -107t-70 -59.5t-102.5 -18.5q-53 0 -93.5 15t-68.5 50t-42 93t-14 145q0 77 12 131t37.5 88.5t65.5 50.5t96 16q48 0 85 -14.5t65 -41.5q-19 45 -49.5 87t-68.5 79l-77 -69l-24 23l76 70
q-20 18 -42.5 34.5t-46.5 32.5l37 30q21 -14 42.5 -30t42.5 -36l72 66l24 -27zM109 290q0 -76 11 -124.5t32 -76t52 -38t71 -10.5q41 0 72 16t51.5 50.5t30.5 88.5t10 130q0 103 -40 152t-124 49q-44 0 -75.5 -12t-51.5 -40t-29.5 -73t-9.5 -112z" />
    <glyph glyph-name="ntilde" unicode="&#xf1;" horiz-adv-x="554" 
d="M423 0v414q0 71 -36 102t-102 31q-20 0 -41 -5t-40.5 -14.5t-35.5 -24t-26 -32.5v-471h-56v591l40 4l10 -66h3q26 35 68.5 54t90.5 19q85 0 132.5 -45.5t47.5 -142.5v-414h-55zM151 695q5 47 23.5 75t48.5 28q19 0 34 -11.5t28.5 -25t26 -25t27.5 -11.5q30 0 41 62l30 -1
q-5 -47 -24 -75t-48 -28q-19 0 -34 11.5t-28.5 25.5t-26 25.5t-26.5 11.5t-25 -17t-17 -46z" />
    <glyph glyph-name="ograve" unicode="&#xf2;" horiz-adv-x="548" 
d="M495 295q0 -86 -12.5 -144.5t-39.5 -95t-68.5 -52.5t-99.5 -16t-100 16t-69.5 52.5t-40.5 95t-13 144.5q0 85 13.5 143.5t41 95t69.5 52.5t99 16q58 0 99.5 -16t68.5 -52.5t39.5 -95t12.5 -143.5zM110 295q0 -72 9 -121.5t29 -79.5t51.5 -43t75.5 -13t75 13t50.5 43.5
t28.5 79.5t9 121t-9 121t-28.5 79t-50.5 43t-75 13t-75.5 -13t-51.5 -43t-29 -79t-9 -121zM268 669l-93 139h73l65 -139h-45z" />
    <glyph glyph-name="oacute" unicode="&#xf3;" horiz-adv-x="548" 
d="M495 295q0 -86 -12.5 -144.5t-39.5 -95t-68.5 -52.5t-99.5 -16t-100 16t-69.5 52.5t-40.5 95t-13 144.5q0 85 13.5 143.5t41 95t69.5 52.5t99 16q58 0 99.5 -16t68.5 -52.5t39.5 -95t12.5 -143.5zM110 295q0 -72 9 -121.5t29 -79.5t51.5 -43t75.5 -13t75 13t50.5 43.5
t28.5 79.5t9 121t-9 121t-28.5 79t-50.5 43t-75 13t-75.5 -13t-51.5 -43t-29 -79t-9 -121zM374 808l-99 -139h-45l72 139h72z" />
    <glyph glyph-name="ocircumflex" unicode="&#xf4;" horiz-adv-x="548" 
d="M495 295q0 -86 -12.5 -144.5t-39.5 -95t-68.5 -52.5t-99.5 -16t-100 16t-69.5 52.5t-40.5 95t-13 144.5q0 85 13.5 143.5t41 95t69.5 52.5t99 16q58 0 99.5 -16t68.5 -52.5t39.5 -95t12.5 -143.5zM110 295q0 -72 9 -121.5t29 -79.5t51.5 -43t75.5 -13t75 13t50.5 43.5
t28.5 79.5t9 121t-9 121t-28.5 79t-50.5 43t-75 13t-75.5 -13t-51.5 -43t-29 -79t-9 -121zM300 808l98 -139h-48l-75 110l-75 -110h-47l96 139h51z" />
    <glyph glyph-name="otilde" unicode="&#xf5;" horiz-adv-x="548" 
d="M495 295q0 -86 -12.5 -144.5t-39.5 -95t-68.5 -52.5t-99.5 -16t-100 16t-69.5 52.5t-40.5 95t-13 144.5q0 85 13.5 143.5t41 95t69.5 52.5t99 16q58 0 99.5 -16t68.5 -52.5t39.5 -95t12.5 -143.5zM110 295q0 -72 9 -121.5t29 -79.5t51.5 -43t75.5 -13t75 13t50.5 43.5
t28.5 79.5t9 121t-9 121t-28.5 79t-50.5 43t-75 13t-75.5 -13t-51.5 -43t-29 -79t-9 -121zM147 695q5 47 23.5 75t48.5 28q19 0 34 -11.5t28.5 -25t26 -25t27.5 -11.5q30 0 41 62l30 -1q-5 -47 -24 -75t-48 -28q-19 0 -34 11.5t-28.5 25.5t-26 25.5t-26.5 11.5t-25 -17
t-17 -46z" />
    <glyph glyph-name="odieresis" unicode="&#xf6;" horiz-adv-x="548" 
d="M495 295q0 -86 -12.5 -144.5t-39.5 -95t-68.5 -52.5t-99.5 -16t-100 16t-69.5 52.5t-40.5 95t-13 144.5q0 85 13.5 143.5t41 95t69.5 52.5t99 16q58 0 99.5 -16t68.5 -52.5t39.5 -95t12.5 -143.5zM110 295q0 -72 9 -121.5t29 -79.5t51.5 -43t75.5 -13t75 13t50.5 43.5
t28.5 79.5t9 121t-9 121t-28.5 79t-50.5 43t-75 13t-75.5 -13t-51.5 -43t-29 -79t-9 -121zM238 755q0 -37 -33 -37q-16 0 -24 8.5t-8 28.5q0 38 32 38q33 0 33 -38zM375 755q0 -37 -33 -37q-16 0 -24.5 8.5t-8.5 28.5q0 38 33 38t33 -38z" />
    <glyph glyph-name="divide" unicode="&#xf7;" horiz-adv-x="537" 
d="M312 487q0 -40 -44 -40q-20 0 -31.5 8.5t-11.5 31.5q0 20 11.5 30.5t31.5 10.5q44 0 44 -41zM312 199q0 -40 -44 -40q-20 0 -31.5 8.5t-11.5 31.5q0 20 11.5 30.5t31.5 10.5q44 0 44 -41zM61 316v56h415v-56h-415z" />
    <glyph glyph-name="oslash" unicode="&#xf8;" horiz-adv-x="548" 
d="M38 25l46 67q-32 70 -32 203q0 85 13.5 143.5t41 95t69.5 52.5t99 16q52 0 90.5 -13t65.5 -42l35 53l27 -25l-39 -60q41 -72 41 -220q0 -86 -12.5 -144.5t-39.5 -95t-68.5 -52.5t-99.5 -16q-59 0 -101 16t-69 53l-40 -55zM438 295q0 56 -5 97.5t-16 72.5l-279 -355
q20 -39 53.5 -55.5t83.5 -16.5q44 0 75 13t50.5 43.5t28.5 79.5t9 121zM109 295q0 -47 3.5 -84t10.5 -66l276 351q-20 29 -50 42t-74 13q-45 0 -76.5 -13t-51.5 -43t-29 -79t-9 -121z" />
    <glyph glyph-name="ugrave" unicode="&#xf9;" horiz-adv-x="545" 
d="M469 177q0 -91 -48 -139.5t-148 -48.5t-148 49t-48 139v415h55v-414q0 -68 36 -101.5t105 -33.5t104.5 33.5t35.5 101.5v414h56v-415zM267 669l-93 139h73l65 -139h-45z" />
    <glyph glyph-name="uacute" unicode="&#xfa;" horiz-adv-x="545" 
d="M469 177q0 -91 -48 -139.5t-148 -48.5t-148 49t-48 139v415h55v-414q0 -68 36 -101.5t105 -33.5t104.5 33.5t35.5 101.5v414h56v-415zM373 808l-99 -139h-45l72 139h72z" />
    <glyph glyph-name="ucircumflex" unicode="&#xfb;" horiz-adv-x="545" 
d="M469 177q0 -91 -48 -139.5t-148 -48.5t-148 49t-48 139v415h55v-414q0 -68 36 -101.5t105 -33.5t104.5 33.5t35.5 101.5v414h56v-415zM299 808l98 -139h-48l-75 110l-75 -110h-47l96 139h51z" />
    <glyph glyph-name="udieresis" unicode="&#xfc;" horiz-adv-x="545" 
d="M469 177q0 -91 -48 -139.5t-148 -48.5t-148 49t-48 139v415h55v-414q0 -68 36 -101.5t105 -33.5t104.5 33.5t35.5 101.5v414h56v-415zM237 755q0 -37 -33 -37q-16 0 -24 8.5t-8 28.5q0 38 32 38q33 0 33 -38zM374 755q0 -37 -33 -37q-16 0 -24.5 8.5t-8.5 28.5
q0 38 33 38t33 -38z" />
    <glyph glyph-name="yacute" unicode="&#xfd;" horiz-adv-x="564" 
d="M169 -106q32 0 56 17.5t44 66.5l3 12l-233 602h66l169 -464l26 -76h3l21 78l140 462h61l-199 -613q-24 -74 -61.5 -103t-86.5 -29q-21 0 -41 5t-36 13l7 46q15 -9 30.5 -13t30.5 -4zM378 808l-99 -139h-45l72 139h72z" />
    <glyph glyph-name="thorn" unicode="&#xfe;" horiz-adv-x="564" 
d="M512 297q0 -85 -14 -144t-40.5 -95.5t-65 -52.5t-86.5 -16q-47 0 -87 16t-69 54l-2 -1l1 -81v-120h-58v942l58 3v-193l-1 -80l2 -1q28 35 70 54.5t94 19.5q47 0 83.5 -14.5t62 -49.5t39 -93.5t13.5 -147.5zM452 298q0 75 -10 123.5t-29.5 76t-48.5 38.5t-66 11
q-50 0 -87.5 -20.5t-61.5 -58.5v-345q17 -33 52.5 -58t90.5 -25q36 0 65.5 11t50.5 40t32.5 79t11.5 128z" />
    <glyph glyph-name="ydieresis" unicode="&#xff;" horiz-adv-x="564" 
d="M169 -106q32 0 56 17.5t44 66.5l3 12l-233 602h66l169 -464l26 -76h3l21 78l140 462h61l-199 -613q-24 -74 -61.5 -103t-86.5 -29q-21 0 -41 5t-36 13l7 46q15 -9 30.5 -13t30.5 -4zM247 755q0 -37 -33 -37q-16 0 -24 8.5t-8 28.5q0 38 32 38q33 0 33 -38zM384 755
q0 -37 -33 -37q-16 0 -24.5 8.5t-8.5 28.5q0 38 33 38t33 -38z" />
    <glyph glyph-name="Amacron" unicode="&#x100;" horiz-adv-x="623" 
d="M469 200h-317l-63 -200h-65l251 750h74l251 -750h-68zM288 625l-118 -369h281l-115 369l-22 78h-3zM436 819h-242v35h242v-35z" />
    <glyph glyph-name="amacron" unicode="&#x101;" horiz-adv-x="514" 
d="M390 81l-3 1q-22 -42 -65.5 -66t-99.5 -24q-73 0 -118 43t-45 142q0 86 47.5 131t145.5 45q36 0 70 -7.5t60 -18.5v80q0 42 -8 70t-25 44.5t-42.5 23.5t-60.5 7q-41 0 -77.5 -8.5t-71.5 -27.5l-7 50q76 38 165 38q48 0 83 -11t57 -35.5t32.5 -63.5t10.5 -96v-398h-43z
M382 282q-11 8 -42.5 17.5t-78.5 9.5q-78 0 -113.5 -34.5t-35.5 -97.5q0 -38 9.5 -64t26 -42t39.5 -23t50 -7q29 0 55 10t46 26.5t32 37t12 42.5v125zM375 724h-241v40h241v-40z" />
    <glyph glyph-name="Abreve" unicode="&#x102;" horiz-adv-x="623" 
d="M469 200h-317l-63 -200h-65l251 750h74l251 -750h-68zM288 625l-118 -369h281l-115 369l-22 78h-3zM444 911q0 -56 -32.5 -86t-99.5 -30q-133 0 -133 116h44q0 -44 26 -62t63 -18q39 0 63.5 18t23.5 62h45z" />
    <glyph glyph-name="abreve" unicode="&#x103;" horiz-adv-x="514" 
d="M390 81l-3 1q-22 -42 -65.5 -66t-99.5 -24q-73 0 -118 43t-45 142q0 86 47.5 131t145.5 45q36 0 70 -7.5t60 -18.5v80q0 42 -8 70t-25 44.5t-42.5 23.5t-60.5 7q-41 0 -77.5 -8.5t-71.5 -27.5l-7 50q76 38 165 38q48 0 83 -11t57 -35.5t32.5 -63.5t10.5 -96v-398h-43z
M382 282q-11 8 -42.5 17.5t-78.5 9.5q-78 0 -113.5 -34.5t-35.5 -97.5q0 -38 9.5 -64t26 -42t39.5 -23t50 -7q29 0 55 10t46 26.5t32 37t12 42.5v125zM372 808q0 -69 -29.5 -107.5t-89.5 -38.5t-89.5 37t-29.5 109h41q0 -56 22 -82.5t56 -26.5q35 0 56 26.5t21 82.5h42z" />
    <glyph glyph-name="Aogonek" unicode="&#x104;" horiz-adv-x="623" 
d="M586 0q-15 -1 -26.5 -8.5t-19.5 -18.5t-12.5 -25t-4.5 -27q0 -25 14 -39.5t45 -14.5q33 0 58 15l6 -34q-35 -22 -78 -22q-46 0 -68.5 21.5t-22.5 59.5q0 30 13.5 56t39.5 41l-61 196h-317l-63 -200h-65l251 750h74l251 -750h-14zM288 625l-118 -369h281l-115 369l-22 78
h-3z" />
    <glyph glyph-name="aogonek" unicode="&#x105;" horiz-adv-x="514" 
d="M419 -175q-49 0 -68.5 22.5t-19.5 53.5q0 29 16.5 55.5t47.5 43.5l-5 79l-3 1q-22 -42 -65.5 -66t-99.5 -24q-73 0 -118 43t-45 142q0 86 47.5 131t145.5 45q36 0 70 -7.5t60 -18.5v80q0 42 -8 70t-25 44.5t-42.5 23.5t-60.5 7q-41 0 -77.5 -8.5t-71.5 -27.5l-7 50
q76 38 165 38q48 0 83 -11t57 -35.5t32.5 -63.5t10.5 -96v-396q-32 -17 -47.5 -39.5t-15.5 -48.5q0 -21 13.5 -34t43.5 -13q32 0 59 15l5 -33q-35 -22 -77 -22zM382 280q-11 8 -42.5 17.5t-78.5 9.5q-78 0 -113.5 -34.5t-35.5 -97.5q0 -38 9.5 -64t26 -42t39.5 -23t50 -7
q29 0 55 10t46 26.5t32 37t12 42.5v125z" />
    <glyph glyph-name="Cacute" unicode="&#x106;" horiz-adv-x="547" 
d="M493 671q-27 14 -64.5 23t-78.5 9q-57 0 -99 -15.5t-69.5 -52t-41.5 -98t-14 -153.5q0 -99 14 -164t42 -103.5t70.5 -54.5t99.5 -16q43 0 78 9t66 26l9 -53q-29 -17 -72 -29t-88 -12q-73 0 -126.5 22.5t-88 70.5t-51 123.5t-16.5 180.5q0 101 17 172.5t52 117.5t88.5 67
t126.5 21q42 0 85.5 -10t69.5 -24zM445 911l-112 -111h-49l79 111h82z" />
    <glyph glyph-name="cacute" unicode="&#x107;" horiz-adv-x="450" 
d="M397 518q-24 13 -53.5 21t-61.5 8q-46 0 -78.5 -13t-53.5 -42t-30.5 -75t-9.5 -112q0 -75 10.5 -125.5t32 -81.5t53.5 -44.5t74 -13.5q69 0 121 38l5 -50q-23 -18 -58.5 -29.5t-77.5 -11.5q-55 0 -96 17t-68 55t-40.5 98.5t-13.5 146.5q0 155 53 226t167 71q36 0 70 -8.5
t60 -21.5zM360 808l-99 -139h-45l72 139h72z" />
    <glyph glyph-name="Ccircumflex" unicode="&#x108;" horiz-adv-x="547" 
d="M493 671q-27 14 -64.5 23t-78.5 9q-57 0 -99 -15.5t-69.5 -52t-41.5 -98t-14 -153.5q0 -99 14 -164t42 -103.5t70.5 -54.5t99.5 -16q43 0 78 9t66 26l9 -53q-29 -17 -72 -29t-88 -12q-73 0 -126.5 22.5t-88 70.5t-51 123.5t-16.5 180.5q0 101 17 172.5t52 117.5t88.5 67
t126.5 21q42 0 85.5 -10t69.5 -24zM360 912l109 -113h-59l-80 83l-78 -83h-58l106 113h60z" />
    <glyph glyph-name="ccircumflex" unicode="&#x109;" horiz-adv-x="450" 
d="M397 518q-24 13 -53.5 21t-61.5 8q-46 0 -78.5 -13t-53.5 -42t-30.5 -75t-9.5 -112q0 -75 10.5 -125.5t32 -81.5t53.5 -44.5t74 -13.5q69 0 121 38l5 -50q-23 -18 -58.5 -29.5t-77.5 -11.5q-55 0 -96 17t-68 55t-40.5 98.5t-13.5 146.5q0 155 53 226t167 71q36 0 70 -8.5
t60 -21.5zM285 808l98 -139h-48l-75 110l-75 -110h-47l96 139h51z" />
    <glyph glyph-name="Cdotaccent" unicode="&#x10a;" horiz-adv-x="547" 
d="M493 671q-27 14 -64.5 23t-78.5 9q-57 0 -99 -15.5t-69.5 -52t-41.5 -98t-14 -153.5q0 -99 14 -164t42 -103.5t70.5 -54.5t99.5 -16q43 0 78 9t66 26l9 -53q-29 -17 -72 -29t-88 -12q-73 0 -126.5 22.5t-88 70.5t-51 123.5t-16.5 180.5q0 101 17 172.5t52 117.5t88.5 67
t126.5 21q42 0 85.5 -10t69.5 -24zM373 844q0 -38 -43 -38q-23 0 -33 8.5t-10 29.5q0 38 43 38t43 -38z" />
    <glyph glyph-name="cdotaccent" unicode="&#x10b;" horiz-adv-x="450" 
d="M397 518q-24 13 -53.5 21t-61.5 8q-46 0 -78.5 -13t-53.5 -42t-30.5 -75t-9.5 -112q0 -75 10.5 -125.5t32 -81.5t53.5 -44.5t74 -13.5q69 0 121 38l5 -50q-23 -18 -58.5 -29.5t-77.5 -11.5q-55 0 -96 17t-68 55t-40.5 98.5t-13.5 146.5q0 155 53 226t167 71q36 0 70 -8.5
t60 -21.5zM304 754q0 -40 -42 -40q-21 0 -32 8.5t-11 31.5q0 41 43 41q42 0 42 -41z" />
    <glyph glyph-name="Ccaron" unicode="&#x10c;" horiz-adv-x="547" 
d="M493 671q-27 14 -64.5 23t-78.5 9q-57 0 -99 -15.5t-69.5 -52t-41.5 -98t-14 -153.5q0 -99 14 -164t42 -103.5t70.5 -54.5t99.5 -16q43 0 78 9t66 26l9 -53q-29 -17 -72 -29t-88 -12q-73 0 -126.5 22.5t-88 70.5t-51 123.5t-16.5 180.5q0 101 17 172.5t52 117.5t88.5 67
t126.5 21q42 0 85.5 -10t69.5 -24zM298 799l-107 113h58l80 -84l80 84h57l-108 -113h-60z" />
    <glyph glyph-name="ccaron" unicode="&#x10d;" horiz-adv-x="450" 
d="M397 518q-24 13 -53.5 21t-61.5 8q-46 0 -78.5 -13t-53.5 -42t-30.5 -75t-9.5 -112q0 -75 10.5 -125.5t32 -81.5t53.5 -44.5t74 -13.5q69 0 121 38l5 -50q-23 -18 -58.5 -29.5t-77.5 -11.5q-55 0 -96 17t-68 55t-40.5 98.5t-13.5 146.5q0 155 53 226t167 71q36 0 70 -8.5
t60 -21.5zM235 669l-97 139h48l74 -111l75 111h48l-97 -139h-51z" />
    <glyph glyph-name="Dcaron" unicode="&#x10e;" horiz-adv-x="663" 
d="M600 378q0 -105 -17 -177t-52 -116.5t-88.5 -64.5t-126.5 -20h-216v750h214q75 0 129.5 -19.5t89 -64t51 -115.5t16.5 -173zM537 378q0 93 -13 153.5t-40.5 95.5t-70 49t-100.5 14h-153v-631h154q56 0 98 13.5t69.5 49.5t41.5 98t14 158zM274 799l-107 113h58l80 -84
l80 84h57l-108 -113h-60z" />
    <glyph glyph-name="dcaron" unicode="&#x10f;" horiz-adv-x="633" 
d="M431 0l-9 66l-3 1q-50 -79 -163 -79q-54 0 -93 17.5t-63.5 55t-36 96t-11.5 140.5q0 157 48.5 231t156.5 74q48 0 90 -18t70 -56l2 1l-2 80v188l55 5v-802h-41zM417 469q-20 36 -58.5 57t-87.5 21q-44 0 -75 -13.5t-50 -43.5t-27.5 -78.5t-8.5 -117.5q0 -71 8.5 -120
t27 -79t49 -43.5t75.5 -13.5q32 0 56.5 7.5t42.5 19.5t29.5 27t18.5 29v348zM560 759q21 0 30 -10t9 -26q0 -9 -5.5 -22.5t-14 -29.5t-19 -33t-21.5 -32l-15 7l27 81q-30 4 -30 33q0 14 9.5 23t29.5 9z" />
    <glyph glyph-name="Dcroat" unicode="&#x110;" horiz-adv-x="670" 
d="M607 378q0 -105 -17 -177t-52 -116.5t-88.5 -64.5t-126.5 -20h-216v371h-72v44h72v335h214q75 0 129.5 -19.5t89 -64t51 -115.5t16.5 -173zM544 378q0 93 -13 153.5t-40.5 95.5t-70 49t-100.5 14h-153v-275h107v-44h-107v-312h154q56 0 98 13.5t69.5 49.5t41.5 98t14 158
z" />
    <glyph glyph-name="dcroat" unicode="&#x111;" horiz-adv-x="564" 
d="M431 0l-9 66l-3 1q-50 -79 -163 -79q-54 0 -93 17.5t-63.5 55t-36 96t-11.5 140.5q0 157 48.5 231t156.5 74q48 0 90 -18t70 -56l2 1l-2 66v67h-114v38h114v97l55 5v-102h64v-38h-64v-662h-41zM417 469q-20 36 -58.5 57t-87.5 21q-44 0 -75 -13.5t-50 -43.5t-27.5 -78.5
t-8.5 -117.5q0 -71 8.5 -120t27 -79t49 -43.5t75.5 -13.5q32 0 56.5 7.5t42.5 19.5t29.5 27t18.5 29v348z" />
    <glyph glyph-name="Emacron" unicode="&#x112;" horiz-adv-x="558" 
d="M512 58l-2 -58h-410v750h394l2 -58h-336v-272h291v-54h-291v-308h352zM430 819h-242v35h242v-35z" />
    <glyph glyph-name="emacron" unicode="&#x113;" horiz-adv-x="517" 
d="M289 -11q-63 0 -108 18t-73.5 57t-42 101.5t-13.5 151.5q0 285 211 285q45 0 82.5 -15t64.5 -48t41.5 -84.5t14.5 -124.5v-15t-1 -15h-356q1 -74 12.5 -123.5t34 -79.5t57 -42.5t82.5 -12.5q42 0 76.5 10t67.5 30l8 -51q-34 -20 -72.5 -31t-85.5 -11zM414 342
q0 58 -11.5 98t-31.5 64.5t-47 35t-60 10.5q-79 0 -115.5 -51t-40.5 -157h306zM384 724h-241v40h241v-40z" />
    <glyph glyph-name="Ebreve" unicode="&#x114;" horiz-adv-x="558" 
d="M512 58l-2 -58h-410v750h394l2 -58h-336v-272h291v-54h-291v-308h352zM437 911q0 -56 -32.5 -86t-99.5 -30q-133 0 -133 116h44q0 -44 26 -62t63 -18q39 0 63.5 18t23.5 62h45z" />
    <glyph glyph-name="ebreve" unicode="&#x115;" horiz-adv-x="517" 
d="M289 -11q-63 0 -108 18t-73.5 57t-42 101.5t-13.5 151.5q0 285 211 285q45 0 82.5 -15t64.5 -48t41.5 -84.5t14.5 -124.5v-15t-1 -15h-356q1 -74 12.5 -123.5t34 -79.5t57 -42.5t82.5 -12.5q42 0 76.5 10t67.5 30l8 -51q-34 -20 -72.5 -31t-85.5 -11zM414 342
q0 58 -11.5 98t-31.5 64.5t-47 35t-60 10.5q-79 0 -115.5 -51t-40.5 -157h306zM381 808q0 -69 -29.5 -107.5t-89.5 -38.5t-89.5 37t-29.5 109h41q0 -56 22 -82.5t56 -26.5q35 0 56 26.5t21 82.5h42z" />
    <glyph glyph-name="Edotaccent" unicode="&#x116;" horiz-adv-x="558" 
d="M512 58l-2 -58h-410v750h394l2 -58h-336v-272h291v-54h-291v-308h352zM348 844q0 -38 -43 -38q-23 0 -33 8.5t-10 29.5q0 38 43 38t43 -38z" />
    <glyph glyph-name="edotaccent" unicode="&#x117;" horiz-adv-x="517" 
d="M289 -11q-63 0 -108 18t-73.5 57t-42 101.5t-13.5 151.5q0 285 211 285q45 0 82.5 -15t64.5 -48t41.5 -84.5t14.5 -124.5v-15t-1 -15h-356q1 -74 12.5 -123.5t34 -79.5t57 -42.5t82.5 -12.5q42 0 76.5 10t67.5 30l8 -51q-34 -20 -72.5 -31t-85.5 -11zM414 342
q0 58 -11.5 98t-31.5 64.5t-47 35t-60 10.5q-79 0 -115.5 -51t-40.5 -157h306zM306 754q0 -40 -42 -40q-21 0 -32 8.5t-11 31.5q0 41 43 41q42 0 42 -41z" />
    <glyph glyph-name="Eogonek" unicode="&#x118;" horiz-adv-x="558" 
d="M512 58l-2 -58h-43q-15 0 -27 -7t-21 -18.5t-13.5 -25.5t-4.5 -28q0 -25 14 -39.5t45 -14.5q33 0 58 15l6 -34q-35 -22 -78 -22q-46 0 -68.5 21.5t-22.5 59.5q0 29 12 53.5t35 39.5h-302v750h394l2 -58h-336v-272h291v-54h-291v-308h352z" />
    <glyph glyph-name="eogonek" unicode="&#x119;" horiz-adv-x="517" 
d="M305 -181q-49 0 -68.5 22.5t-19.5 53.5q0 27 14.5 52t42.5 44q-60 1 -102 20t-68.5 58t-39 100.5t-12.5 147.5q0 285 211 285q45 0 82.5 -15t64.5 -48t41.5 -84.5t14.5 -124.5v-15t-1 -15h-356q1 -74 12.5 -123.5t34 -79.5t57 -42.5t82.5 -12.5q42 0 76.5 10t67.5 30
l8 -51q-29 -17 -60 -27.5t-68 -13.5q-29 -15 -43.5 -37t-14.5 -47q0 -21 13.5 -34t43.5 -13q32 0 59 15l5 -33q-35 -22 -77 -22zM414 342q0 58 -11.5 98t-31.5 64.5t-47 35t-60 10.5q-79 0 -115.5 -51t-40.5 -157h306z" />
    <glyph glyph-name="Ecaron" unicode="&#x11a;" horiz-adv-x="558" 
d="M512 58l-2 -58h-410v750h394l2 -58h-336v-272h291v-54h-291v-308h352zM273 799l-107 113h58l80 -84l80 84h57l-108 -113h-60z" />
    <glyph glyph-name="ecaron" unicode="&#x11b;" horiz-adv-x="517" 
d="M289 -11q-63 0 -108 18t-73.5 57t-42 101.5t-13.5 151.5q0 285 211 285q45 0 82.5 -15t64.5 -48t41.5 -84.5t14.5 -124.5v-15t-1 -15h-356q1 -74 12.5 -123.5t34 -79.5t57 -42.5t82.5 -12.5q42 0 76.5 10t67.5 30l8 -51q-34 -20 -72.5 -31t-85.5 -11zM414 342
q0 58 -11.5 98t-31.5 64.5t-47 35t-60 10.5q-79 0 -115.5 -51t-40.5 -157h306zM238 669l-97 139h48l74 -111l75 111h48l-97 -139h-51z" />
    <glyph glyph-name="Gcircumflex" unicode="&#x11c;" horiz-adv-x="612" 
d="M547 28q-35 -19 -84.5 -30t-105.5 -11q-76 0 -131.5 21t-91.5 67t-53.5 119t-17.5 177q0 107 17.5 181.5t54 121t92.5 67.5t132 21q47 0 93 -10t79 -26l-8 -56q-35 16 -74.5 25t-87.5 9q-60 0 -104 -15.5t-73 -53t-43.5 -102t-14.5 -161.5q0 -92 13 -154.5t41 -100.5
t71.5 -54.5t104.5 -16.5q80 0 137 26v324h54v-368zM376 912l109 -113h-59l-80 83l-78 -83h-58l106 113h60z" />
    <glyph glyph-name="gcircumflex" unicode="&#x11d;" horiz-adv-x="509" 
d="M253 261q-19 0 -38.5 2t-37.5 8q-27 -8 -41 -22t-14 -32q0 -37 54 -47l130 -16q48 -6 80.5 -17t52 -28t28 -40t8.5 -52q0 -39 -11 -70.5t-36.5 -53t-67 -33.5t-101.5 -12q-104 0 -151.5 42t-47.5 113q0 34 16 66.5t45 57.5q-22 10 -37 29t-15 48q0 27 19 49.5t52 35.5
q-31 17 -49.5 51t-18.5 90q0 84 42 127.5t138 43.5q35 0 69 -8t60 -30l90 42l13 -29l-73 -51q10 -18 15.5 -41.5t5.5 -53.5q0 -86 -40.5 -127.5t-138.5 -41.5zM168 117q-29 -22 -43.5 -50.5t-14.5 -56.5q0 -54 35 -84t113 -30q49 0 80.5 8t50 23t26 36t7.5 46
q0 19 -5.5 34.5t-19.5 27t-38.5 19t-61.5 11.5zM253 554q-69 0 -97 -31t-28 -94q0 -38 9.5 -62t26 -38t39 -19t49.5 -5q72 0 99 30.5t27 93.5q0 71 -29.5 98t-95.5 27zM287 808l98 -139h-48l-75 110l-75 -110h-47l96 139h51z" />
    <glyph glyph-name="Gbreve" unicode="&#x11e;" horiz-adv-x="612" 
d="M547 28q-35 -19 -84.5 -30t-105.5 -11q-76 0 -131.5 21t-91.5 67t-53.5 119t-17.5 177q0 107 17.5 181.5t54 121t92.5 67.5t132 21q47 0 93 -10t79 -26l-8 -56q-35 16 -74.5 25t-87.5 9q-60 0 -104 -15.5t-73 -53t-43.5 -102t-14.5 -161.5q0 -92 13 -154.5t41 -100.5
t71.5 -54.5t104.5 -16.5q80 0 137 26v324h54v-368zM478 911q0 -56 -32.5 -86t-99.5 -30q-133 0 -133 116h44q0 -44 26 -62t63 -18q39 0 63.5 18t23.5 62h45z" />
    <glyph glyph-name="gbreve" unicode="&#x11f;" horiz-adv-x="509" 
d="M253 261q-19 0 -38.5 2t-37.5 8q-27 -8 -41 -22t-14 -32q0 -37 54 -47l130 -16q48 -6 80.5 -17t52 -28t28 -40t8.5 -52q0 -39 -11 -70.5t-36.5 -53t-67 -33.5t-101.5 -12q-104 0 -151.5 42t-47.5 113q0 34 16 66.5t45 57.5q-22 10 -37 29t-15 48q0 27 19 49.5t52 35.5
q-31 17 -49.5 51t-18.5 90q0 84 42 127.5t138 43.5q35 0 69 -8t60 -30l90 42l13 -29l-73 -51q10 -18 15.5 -41.5t5.5 -53.5q0 -86 -40.5 -127.5t-138.5 -41.5zM168 117q-29 -22 -43.5 -50.5t-14.5 -56.5q0 -54 35 -84t113 -30q49 0 80.5 8t50 23t26 36t7.5 46
q0 19 -5.5 34.5t-19.5 27t-38.5 19t-61.5 11.5zM253 554q-69 0 -97 -31t-28 -94q0 -38 9.5 -62t26 -38t39 -19t49.5 -5q72 0 99 30.5t27 93.5q0 71 -29.5 98t-95.5 27zM382 808q0 -69 -29.5 -107.5t-89.5 -38.5t-89.5 37t-29.5 109h41q0 -56 22 -82.5t56 -26.5q35 0 56 26.5
t21 82.5h42z" />
    <glyph glyph-name="Gdotaccent" unicode="&#x120;" horiz-adv-x="612" 
d="M547 28q-35 -19 -84.5 -30t-105.5 -11q-76 0 -131.5 21t-91.5 67t-53.5 119t-17.5 177q0 107 17.5 181.5t54 121t92.5 67.5t132 21q47 0 93 -10t79 -26l-8 -56q-35 16 -74.5 25t-87.5 9q-60 0 -104 -15.5t-73 -53t-43.5 -102t-14.5 -161.5q0 -92 13 -154.5t41 -100.5
t71.5 -54.5t104.5 -16.5q80 0 137 26v324h54v-368zM391 844q0 -38 -43 -38q-23 0 -33 8.5t-10 29.5q0 38 43 38t43 -38z" />
    <glyph glyph-name="gdotaccent" unicode="&#x121;" horiz-adv-x="509" 
d="M253 261q-19 0 -38.5 2t-37.5 8q-27 -8 -41 -22t-14 -32q0 -37 54 -47l130 -16q48 -6 80.5 -17t52 -28t28 -40t8.5 -52q0 -39 -11 -70.5t-36.5 -53t-67 -33.5t-101.5 -12q-104 0 -151.5 42t-47.5 113q0 34 16 66.5t45 57.5q-22 10 -37 29t-15 48q0 27 19 49.5t52 35.5
q-31 17 -49.5 51t-18.5 90q0 84 42 127.5t138 43.5q35 0 69 -8t60 -30l90 42l13 -29l-73 -51q10 -18 15.5 -41.5t5.5 -53.5q0 -86 -40.5 -127.5t-138.5 -41.5zM168 117q-29 -22 -43.5 -50.5t-14.5 -56.5q0 -54 35 -84t113 -30q49 0 80.5 8t50 23t26 36t7.5 46
q0 19 -5.5 34.5t-19.5 27t-38.5 19t-61.5 11.5zM253 554q-69 0 -97 -31t-28 -94q0 -38 9.5 -62t26 -38t39 -19t49.5 -5q72 0 99 30.5t27 93.5q0 71 -29.5 98t-95.5 27zM306 754q0 -40 -42 -40q-21 0 -32 8.5t-11 31.5q0 41 43 41q42 0 42 -41z" />
    <glyph glyph-name="Gcommaaccent" unicode="&#x122;" horiz-adv-x="612" 
d="M547 28q-35 -19 -84.5 -30t-105.5 -11q-76 0 -131.5 21t-91.5 67t-53.5 119t-17.5 177q0 107 17.5 181.5t54 121t92.5 67.5t132 21q47 0 93 -10t79 -26l-8 -56q-35 16 -74.5 25t-87.5 9q-60 0 -104 -15.5t-73 -53t-43.5 -102t-14.5 -161.5q0 -92 13 -154.5t41 -100.5
t71.5 -54.5t104.5 -16.5q80 0 137 26v324h54v-368zM356 -43q23 0 33 -10t10 -26q0 -8 -5.5 -21.5t-15 -29.5t-21 -33t-23.5 -32l-18 6l29 82q-32 4 -32 32q0 13 10 22.5t33 9.5z" />
    <glyph glyph-name="gcommaaccent" unicode="&#x123;" horiz-adv-x="509" 
d="M253 261q-19 0 -38.5 2t-37.5 8q-27 -8 -41 -22t-14 -32q0 -37 54 -47l130 -16q48 -6 80.5 -17t52 -28t28 -40t8.5 -52q0 -39 -11 -70.5t-36.5 -53t-67 -33.5t-101.5 -12q-104 0 -151.5 42t-47.5 113q0 34 16 66.5t45 57.5q-22 10 -37 29t-15 48q0 27 19 49.5t52 35.5
q-31 17 -49.5 51t-18.5 90q0 84 42 127.5t138 43.5q35 0 69 -8t60 -30l90 42l13 -29l-73 -51q10 -18 15.5 -41.5t5.5 -53.5q0 -86 -40.5 -127.5t-138.5 -41.5zM168 117q-29 -22 -43.5 -50.5t-14.5 -56.5q0 -54 35 -84t113 -30q49 0 80.5 8t50 23t26 36t7.5 46
q0 19 -5.5 34.5t-19.5 27t-38.5 19t-61.5 11.5zM253 554q-69 0 -97 -31t-28 -94q0 -38 9.5 -62t26 -38t39 -19t49.5 -5q72 0 99 30.5t27 93.5q0 71 -29.5 98t-95.5 27zM263 670q-21 0 -30 10t-9 27q0 8 5.5 21.5t14 29.5t19 33.5t21.5 32.5l15 -7l-27 -82q30 -6 30 -32
q0 -14 -9.5 -23.5t-29.5 -9.5z" />
    <glyph glyph-name="Hcircumflex" unicode="&#x124;" horiz-adv-x="679" 
d="M519 0v363h-359v-363h-60v750h60v-328h359v328h60v-750h-60zM373 912l109 -113h-59l-80 83l-78 -83h-58l106 113h60z" />
    <glyph glyph-name="hcircumflex" unicode="&#x125;" horiz-adv-x="560" 
d="M338 751l99 -110h-47l-75 84l-74 -84h-46l96 110h47zM428 0v415q0 63 -33.5 97.5t-103.5 34.5q-50 0 -88.5 -22.5t-55.5 -54.5v-470h-56v797l56 5v-191l-1 -80l2 -1q27 35 68 53.5t90 18.5q87 0 132 -47t45 -140v-415h-55z" />
    <glyph glyph-name="Hbar" unicode="&#x126;" horiz-adv-x="692" 
d="M525 0v363h-359v-363h-60v558h-57v39h57v153h60v-153h359v153h60v-153h66v-39h-66v-558h-60zM525 422v136h-359v-136h359z" />
    <glyph glyph-name="hbar" unicode="&#x127;" horiz-adv-x="559" 
d="M427 0v415q0 63 -33.5 97.5t-103.5 34.5q-50 0 -88.5 -22.5t-55.5 -54.5v-470h-56v662h-84v38h84v97l56 5v-102h94v-38h-94v-51l-1 -80l2 -1q27 35 68 53.5t90 18.5q87 0 132 -47t45 -140v-415h-55z" />
    <glyph glyph-name="Itilde" unicode="&#x128;" horiz-adv-x="286" 
d="M112 750h62v-750h-62v750zM17 808q5 42 22.5 68.5t48.5 26.5q19 0 34 -11t28.5 -24t26 -24t26.5 -11q29 0 41 56l27 -1q-4 -42 -22 -68.5t-49 -26.5q-18 0 -33 11t-28.5 24t-26 24t-25.5 11q-15 0 -25 -15t-16 -40h-29z" />
    <glyph glyph-name="itilde" unicode="&#x129;" horiz-adv-x="280" 
d="M112 0v590l56 4v-594h-56zM9 695q5 47 23.5 75t48.5 28q19 0 34 -11.5t28.5 -25t26 -25t27.5 -11.5q30 0 41 62l30 -1q-5 -47 -24 -75t-48 -28q-19 0 -34 11.5t-28.5 25.5t-26 25.5t-26.5 11.5t-25 -17t-17 -46z" />
    <glyph glyph-name="Imacron" unicode="&#x12a;" horiz-adv-x="286" 
d="M112 750h62v-750h-62v750zM264 819h-242v35h242v-35z" />
    <glyph glyph-name="imacron" unicode="&#x12b;" horiz-adv-x="280" 
d="M112 0v590l56 4v-594h-56zM259 724h-241v40h241v-40z" />
    <glyph glyph-name="Ibreve" unicode="&#x12c;" horiz-adv-x="286" 
d="M112 750h62v-750h-62v750zM275 911q0 -56 -32.5 -86t-99.5 -30q-133 0 -133 116h44q0 -44 26 -62t63 -18q39 0 63.5 18t23.5 62h45z" />
    <glyph glyph-name="ibreve" unicode="&#x12d;" horiz-adv-x="280" 
d="M112 0v590l56 4v-594h-56zM256 808q0 -69 -29.5 -107.5t-89.5 -38.5t-89.5 37t-29.5 109h41q0 -56 22 -82.5t56 -26.5q35 0 56 26.5t21 82.5h42z" />
    <glyph glyph-name="Iogonek" unicode="&#x12e;" horiz-adv-x="286" 
d="M170 0q-15 0 -27 -7t-21 -18.5t-13.5 -25.5t-4.5 -28q0 -25 14 -39.5t45 -14.5q33 0 58 15l6 -34q-35 -22 -78 -22q-46 0 -68.5 21.5t-22.5 59.5q0 30 14 56.5t40 40.5v746h62v-750h-4z" />
    <glyph glyph-name="iogonek" unicode="&#x12f;" horiz-adv-x="280" 
d="M146 -173q-49 0 -68.5 22.5t-19.5 53.5q0 29 15.5 54.5t44.5 42.5h-6v590l56 4v-594h-4q-31 -15 -46.5 -37.5t-15.5 -48.5q0 -21 13.5 -34t43.5 -13q32 0 59 15l5 -33q-35 -22 -77 -22zM183 752q0 -40 -42 -40q-21 0 -32 8.5t-11 31.5q0 40 43 40q42 0 42 -40z" />
    <glyph glyph-name="Idotaccent" unicode="&#x130;" horiz-adv-x="286" 
d="M112 750h62v-750h-62v750zM186 844q0 -38 -43 -38q-23 0 -33 8.5t-10 29.5q0 38 43 38t43 -38z" />
    <glyph glyph-name="dotlessi" unicode="&#x131;" horiz-adv-x="280" 
d="M112 0v590l56 4v-594h-56z" />
    <glyph glyph-name="IJ" unicode="&#x132;" horiz-adv-x="760" 
d="M113 750h62v-750h-62v750zM660 223q0 -118 -56.5 -177t-161.5 -59q-44 0 -78 11t-58 30l7 57q23 -19 53.5 -29.5t69.5 -10.5q77 0 120 43.5t43 135.5v526h61v-527z" />
    <glyph glyph-name="ij" unicode="&#x133;" horiz-adv-x="517" 
d="M109 0v590l56 4v-594h-56zM180 752q0 -40 -42 -40q-21 0 -32 8.5t-11 31.5q0 40 43 40q42 0 42 -40zM420 -19q0 -75 -32.5 -104t-83.5 -29q-14 0 -30 3.5t-28 8.5l5 44q9 -4 19.5 -6.5t21.5 -2.5q32 0 52 20t20 67v608l56 4v-613zM434 754q0 -40 -43 -40q-21 0 -32 8.5
t-11 31.5q0 41 43 41t43 -41z" />
    <glyph glyph-name="Jcircumflex" unicode="&#x134;" horiz-adv-x="489" 
d="M389 223q0 -118 -56.5 -177t-161.5 -59q-44 0 -78 11t-58 30l7 57q23 -19 53.5 -29.5t69.5 -10.5q77 0 120 43.5t43 135.5v526h61v-527zM383 912l109 -113h-59l-80 83l-78 -83h-58l106 113h60z" />
    <glyph glyph-name="jcircumflex" unicode="&#x135;" horiz-adv-x="277" 
d="M166 -19q0 -75 -32.5 -104t-83.5 -29q-14 0 -30 3.5t-28 8.5l5 44q9 -4 19.5 -6.5t21.5 -2.5q32 0 52 20t20 67v608l56 4v-613zM156 808l98 -139h-48l-75 110l-75 -110h-47l96 139h51z" />
    <glyph glyph-name="Kcommaaccent" unicode="&#x136;" horiz-adv-x="620" 
d="M512 0l-243 365h-109v-365h-60v750h60v-330h108l233 330h75l-251 -355l265 -395h-78zM319 -43q23 0 33 -10t10 -26q0 -8 -5.5 -21.5t-15 -29.5t-21 -33t-23.5 -32l-18 6l29 82q-32 4 -32 32q0 13 10 22.5t33 9.5z" />
    <glyph glyph-name="kcommaaccent" unicode="&#x137;" horiz-adv-x="515" 
d="M147 346h84l184 247h70l-202 -271l211 -322h-70l-192 295h-85v-295h-56v798l56 4v-456zM267 -43q23 0 33 -10t10 -26q0 -8 -5.5 -21.5t-15 -29.5t-21 -33t-23.5 -32l-18 6l29 82q-32 4 -32 32q0 13 10 22.5t33 9.5z" />
    <glyph glyph-name="kgreenlandic" unicode="&#x138;" horiz-adv-x="515" 
d="M147 346h84l184 247h70l-202 -271l211 -322h-70l-192 295h-85v-295h-56v591l56 4v-249z" />
    <glyph glyph-name="Lacute" unicode="&#x139;" horiz-adv-x="514" 
d="M490 60l-3 -60h-387v750h60v-690h330zM324 911l-112 -111h-49l79 111h82z" />
    <glyph glyph-name="lacute" unicode="&#x13a;" horiz-adv-x="268" 
d="M106 0v798l56 4v-802h-56zM260 931l-112 -111h-49l79 111h82z" />
    <glyph glyph-name="Lcommaaccent" unicode="&#x13b;" horiz-adv-x="514" 
d="M490 60l-3 -60h-387v750h60v-690h330zM286 -43q23 0 33 -10t10 -26q0 -8 -5.5 -21.5t-15 -29.5t-21 -33t-23.5 -32l-18 6l29 82q-32 4 -32 32q0 13 10 22.5t33 9.5z" />
    <glyph glyph-name="lcommaaccent" unicode="&#x13c;" horiz-adv-x="268" 
d="M106 0v798l56 4v-802h-56zM135 -43q23 0 33 -10t10 -26q0 -8 -5.5 -21.5t-15 -29.5t-21 -33t-23.5 -32l-18 6l29 82q-32 4 -32 32q0 13 10 22.5t33 9.5z" />
    <glyph glyph-name="Lcaron" unicode="&#x13d;" horiz-adv-x="514" 
d="M490 60l-3 -60h-387v750h60v-690h330zM356 759q21 0 30 -10t9 -26q0 -9 -5.5 -22.5t-14 -29.5t-19 -33t-21.5 -32l-15 7l27 81q-30 4 -30 33q0 14 9.5 23t29.5 9z" />
    <glyph glyph-name="lcaron" unicode="&#x13e;" horiz-adv-x="343" 
d="M107 0v798l56 4v-802h-56zM266 759q21 0 30 -10t9 -26q0 -9 -5.5 -22.5t-14 -29.5t-19 -33t-21.5 -32l-15 7l27 81q-30 4 -30 33q0 14 9.5 23t29.5 9z" />
    <glyph glyph-name="Ldot" unicode="&#x13f;" horiz-adv-x="514" 
d="M490 60l-3 -60h-387v750h60v-690h330zM354 503q0 -43 -42 -43q-44 0 -44 43t44 43q42 0 42 -43z" />
    <glyph glyph-name="ldot" unicode="&#x140;" horiz-adv-x="354" 
d="M298 389q0 -20 -10 -31t-31 -11q-44 0 -44 42q0 43 44 43q41 0 41 -43zM106 0v798l56 4v-802h-56z" />
    <glyph glyph-name="Lslash" unicode="&#x141;" horiz-adv-x="533" 
d="M509 60l-3 -60h-387v314l-74 -39l-5 54l79 43v378h60v-350l198 106l7 -56l-205 -107v-283h330z" />
    <glyph glyph-name="lslash" unicode="&#x142;" horiz-adv-x="318" 
d="M44 450l83 49v299l56 4v-277l91 54l1 -51l-92 -56v-472h-56v446l-81 -49z" />
    <glyph glyph-name="Nacute" unicode="&#x143;" horiz-adv-x="684" 
d="M538 0l-343 581l-40 71l-2 -1l1 -81v-570h-54v750h61l370 -638l2 1l-2 80l-1 557h54v-750h-46zM464 911l-112 -111h-49l79 111h82z" />
    <glyph glyph-name="nacute" unicode="&#x144;" horiz-adv-x="554" 
d="M423 0v414q0 71 -36 102t-102 31q-20 0 -41 -5t-40.5 -14.5t-35.5 -24t-26 -32.5v-471h-56v591l40 4l10 -66h3q26 35 68.5 54t90.5 19q85 0 132.5 -45.5t47.5 -142.5v-414h-55zM373 808l-99 -139h-45l72 139h72z" />
    <glyph glyph-name="Ncommaaccent" unicode="&#x145;" horiz-adv-x="684" 
d="M538 0l-343 581l-40 71l-2 -1l1 -81v-570h-54v750h61l370 -638l2 1l-2 80l-1 557h54v-750h-46zM343 -43q23 0 33 -10t10 -26q0 -8 -5.5 -21.5t-15 -29.5t-21 -33t-23.5 -32l-18 6l29 82q-32 4 -32 32q0 13 10 22.5t33 9.5z" />
    <glyph glyph-name="ncommaaccent" unicode="&#x146;" horiz-adv-x="554" 
d="M423 0v414q0 71 -36 102t-102 31q-20 0 -41 -5t-40.5 -14.5t-35.5 -24t-26 -32.5v-471h-56v591l40 4l10 -66h3q26 35 68.5 54t90.5 19q85 0 132.5 -45.5t47.5 -142.5v-414h-55zM280 -43q23 0 33 -10t10 -26q0 -8 -5.5 -21.5t-15 -29.5t-21 -33t-23.5 -32l-18 6l29 82
q-32 4 -32 32q0 13 10 22.5t33 9.5z" />
    <glyph glyph-name="Ncaron" unicode="&#x147;" horiz-adv-x="684" 
d="M538 0l-343 581l-40 71l-2 -1l1 -81v-570h-54v750h61l370 -638l2 1l-2 80l-1 557h54v-750h-46zM322 799l-107 113h58l80 -84l80 84h57l-108 -113h-60z" />
    <glyph glyph-name="ncaron" unicode="&#x148;" horiz-adv-x="554" 
d="M423 0v414q0 71 -36 102t-102 31q-20 0 -41 -5t-40.5 -14.5t-35.5 -24t-26 -32.5v-471h-56v591l40 4l10 -66h3q26 35 68.5 54t90.5 19q85 0 132.5 -45.5t47.5 -142.5v-414h-55zM251 669l-97 139h48l74 -111l75 111h48l-97 -139h-51z" />
    <glyph glyph-name="napostrophe" unicode="&#x149;" horiz-adv-x="554" 
d="M431 0v414q0 71 -36 102t-102 31q-20 0 -41 -5t-40.5 -14.5t-35.5 -24t-26 -32.5v-471h-56v591l40 4l10 -66h3q26 35 68.5 54t90.5 19q85 0 132.5 -45.5t47.5 -142.5v-414h-55zM74 777q21 0 30 -10t9 -26q0 -9 -5.5 -22.5t-14 -29.5t-19 -33t-21.5 -32l-15 7l27 81
q-30 4 -30 33q0 14 9.5 23t29.5 9z" />
    <glyph glyph-name="Eng" unicode="&#x14a;" horiz-adv-x="684" 
d="M584 47q0 -48 -9.5 -80.5t-27 -53t-42 -29.5t-53.5 -9q-28 0 -53 9.5t-41 23.5l6 43q15 -14 36.5 -22.5t41.5 -8.5q36 0 57 19t29 64l-334 587l-39 71l-2 -1l1 -81v-579h-54v750h61l331 -586l39 -71l2 1l-2 80l-1 576h54v-703v0z" />
    <glyph glyph-name="eng" unicode="&#x14b;" horiz-adv-x="554" 
d="M423 414q0 71 -36 102t-102 31q-20 0 -41 -5t-40.5 -14.5t-36 -24t-26.5 -32.5v-471h-55v591l40 4l9 -67h3q26 35 69 54.5t91 19.5q85 0 132.5 -45.5t47.5 -142.5v-385q0 -69 -33 -104.5t-88 -35.5q-26 0 -50 7.5t-38 19.5l6 46q13 -12 32.5 -19t36.5 -7q33 0 56 20.5
t23 65.5v392z" />
    <glyph glyph-name="Omacron" unicode="&#x14c;" horiz-adv-x="661" 
d="M598 375q0 -107 -14.5 -181t-46 -120t-82.5 -66.5t-124 -20.5q-72 0 -123 20.5t-83.5 66.5t-47 120t-14.5 181t14.5 181t46.5 119.5t83 66t124 20.5t124 -20.5t82.5 -66t46 -119.5t14.5 -181zM535 375q0 98 -11 161.5t-35.5 100.5t-63.5 51.5t-94 14.5t-94 -14.5
t-63.5 -51.5t-36 -100.5t-11.5 -161.5t11.5 -161.5t36 -101t63.5 -52t94 -14.5t94 14.5t63.5 52t35.5 101t11 161.5zM455 819h-242v35h242v-35z" />
    <glyph glyph-name="omacron" unicode="&#x14d;" horiz-adv-x="548" 
d="M495 295q0 -86 -12.5 -144.5t-39.5 -95t-68.5 -52.5t-99.5 -16t-100 16t-69.5 52.5t-40.5 95t-13 144.5q0 85 13.5 143.5t41 95t69.5 52.5t99 16q58 0 99.5 -16t68.5 -52.5t39.5 -95t12.5 -143.5zM110 295q0 -72 9 -121.5t29 -79.5t51.5 -43t75.5 -13t75 13t50.5 43.5
t28.5 79.5t9 121t-9 121t-28.5 79t-50.5 43t-75 13t-75.5 -13t-51.5 -43t-29 -79t-9 -121zM396 724h-241v40h241v-40z" />
    <glyph glyph-name="Obreve" unicode="&#x14e;" horiz-adv-x="661" 
d="M598 375q0 -107 -14.5 -181t-46 -120t-82.5 -66.5t-124 -20.5q-72 0 -123 20.5t-83.5 66.5t-47 120t-14.5 181t14.5 181t46.5 119.5t83 66t124 20.5t124 -20.5t82.5 -66t46 -119.5t14.5 -181zM535 375q0 98 -11 161.5t-35.5 100.5t-63.5 51.5t-94 14.5t-94 -14.5
t-63.5 -51.5t-36 -100.5t-11.5 -161.5t11.5 -161.5t36 -101t63.5 -52t94 -14.5t94 14.5t63.5 52t35.5 101t11 161.5zM463 911q0 -56 -32.5 -86t-99.5 -30q-133 0 -133 116h44q0 -44 26 -62t63 -18q39 0 63.5 18t23.5 62h45z" />
    <glyph glyph-name="obreve" unicode="&#x14f;" horiz-adv-x="548" 
d="M495 295q0 -86 -12.5 -144.5t-39.5 -95t-68.5 -52.5t-99.5 -16t-100 16t-69.5 52.5t-40.5 95t-13 144.5q0 85 13.5 143.5t41 95t69.5 52.5t99 16q58 0 99.5 -16t68.5 -52.5t39.5 -95t12.5 -143.5zM110 295q0 -72 9 -121.5t29 -79.5t51.5 -43t75.5 -13t75 13t50.5 43.5
t28.5 79.5t9 121t-9 121t-28.5 79t-50.5 43t-75 13t-75.5 -13t-51.5 -43t-29 -79t-9 -121zM393 808q0 -69 -29.5 -107.5t-89.5 -38.5t-89.5 37t-29.5 109h41q0 -56 22 -82.5t56 -26.5q35 0 56 26.5t21 82.5h42z" />
    <glyph glyph-name="Ohungarumlaut" unicode="&#x150;" horiz-adv-x="661" 
d="M598 375q0 -107 -14.5 -181t-46 -120t-82.5 -66.5t-124 -20.5q-72 0 -123 20.5t-83.5 66.5t-47 120t-14.5 181t14.5 181t46.5 119.5t83 66t124 20.5t124 -20.5t82.5 -66t46 -119.5t14.5 -181zM535 375q0 98 -11 161.5t-35.5 100.5t-63.5 51.5t-94 14.5t-94 -14.5
t-63.5 -51.5t-36 -100.5t-11.5 -161.5t11.5 -161.5t36 -101t63.5 -52t94 -14.5t94 14.5t63.5 52t35.5 101t11 161.5zM377 912l-91 -113h-41l65 113h67zM510 912l-108 -113h-45l85 113h68z" />
    <glyph glyph-name="ohungarumlaut" unicode="&#x151;" horiz-adv-x="548" 
d="M495 295q0 -86 -12.5 -144.5t-39.5 -95t-68.5 -52.5t-99.5 -16t-100 16t-69.5 52.5t-40.5 95t-13 144.5q0 85 13.5 143.5t41 95t69.5 52.5t99 16q58 0 99.5 -16t68.5 -52.5t39.5 -95t12.5 -143.5zM110 295q0 -72 9 -121.5t29 -79.5t51.5 -43t75.5 -13t75 13t50.5 43.5
t28.5 79.5t9 121t-9 121t-28.5 79t-50.5 43t-75 13t-75.5 -13t-51.5 -43t-29 -79t-9 -121zM329 808l-98 -139h-39l71 139h66zM459 808l-101 -139h-44l79 139h66z" />
    <glyph glyph-name="OE" unicode="&#x152;" horiz-adv-x="989" 
d="M536 0v113l-3 1q-26 -67 -79.5 -97t-132.5 -30q-69 0 -117.5 20.5t-80 66.5t-46 120t-14.5 181t14.5 181t45.5 119.5t80 66t118 20.5q78 0 132 -26.5t80 -89.5h3v104h389l2 -58h-336v-272h291v-54h-291v-308h352l-2 -58h-405zM532 375q0 98 -10.5 161.5t-34.5 100.5
t-62.5 51.5t-93.5 14.5t-94 -14.5t-63.5 -51.5t-36 -100.5t-11.5 -161.5t11.5 -161.5t36 -101t63.5 -52t94 -14.5t93.5 14.5t62.5 52t34.5 101t10.5 161.5z" />
    <glyph glyph-name="oe" unicode="&#x153;" horiz-adv-x="908" 
d="M682 -11q-86 0 -134.5 32t-70.5 107h-3q-20 -77 -69 -109t-125 -32q-57 0 -98 16t-68 52.5t-40 95t-13 144.5q0 85 13.5 143.5t40.5 95t68 52.5t97 16q76 0 124 -29.5t69 -95.5h3q20 64 66 94.5t115 30.5q45 0 82 -15t63.5 -48t41 -84.5t14.5 -124.5v-15t-1 -15h-354
q1 -74 12.5 -123.5t34 -79.5t56.5 -42.5t81 -12.5q42 0 76.5 10.5t68.5 30.5l7 -52q-68 -42 -157 -42zM118 295q0 -72 9 -121.5t29 -79.5t51.5 -43t76.5 -13q44 0 74.5 13t50 43.5t28 79.5t8.5 121t-8.5 121t-28 79t-50 43t-74.5 13q-45 0 -76.5 -13t-51.5 -43t-29 -79
t-9 -121zM806 342q0 58 -11.5 98t-32 64.5t-47.5 35t-59 10.5q-78 0 -114.5 -51t-39.5 -157h304z" />
    <glyph glyph-name="Racute" unicode="&#x154;" horiz-adv-x="586" 
d="M514 549q0 -94 -37.5 -141t-108.5 -55l190 -353h-73l-175 342h-150v-342h-60v750h212q104 0 153 -48.5t49 -152.5zM452 547q0 81 -34 114t-106 33h-152v-301h148q74 0 109 34.5t35 119.5zM388 911l-112 -111h-49l79 111h82z" />
    <glyph glyph-name="racute" unicode="&#x155;" horiz-adv-x="395" 
d="M86 0v589l45 4l2 -63l2 -81h2q23 68 68 109.5t105 41.5q14 0 26.5 -2t23.5 -5l-4 -59q-11 4 -23.5 5t-25.5 1q-33 0 -63 -16t-52.5 -46t-36 -72.5t-13.5 -95.5v-310h-56zM298 808l-99 -139h-45l72 139h72z" />
    <glyph glyph-name="Rcommaaccent" unicode="&#x156;" horiz-adv-x="586" 
d="M514 549q0 -94 -37.5 -141t-108.5 -55l190 -353h-73l-175 342h-150v-342h-60v750h212q104 0 153 -48.5t49 -152.5zM452 547q0 81 -34 114t-106 33h-152v-301h148q74 0 109 34.5t35 119.5zM299 -43q23 0 33 -10t10 -26q0 -8 -5.5 -21.5t-15 -29.5t-21 -33t-23.5 -32l-18 6
l29 82q-32 4 -32 32q0 13 10 22.5t33 9.5z" />
    <glyph glyph-name="rcommaaccent" unicode="&#x157;" horiz-adv-x="395" 
d="M86 0v589l45 4l2 -63l2 -81h2q23 68 68 109.5t105 41.5q14 0 26.5 -2t23.5 -5l-4 -59q-11 4 -23.5 5t-25.5 1q-33 0 -63 -16t-52.5 -46t-36 -72.5t-13.5 -95.5v-310h-56zM115 -43q23 0 33 -10t10 -26q0 -8 -5.5 -21.5t-15 -29.5t-21 -33t-23.5 -32l-18 6l29 82
q-32 4 -32 32q0 13 10 22.5t33 9.5z" />
    <glyph glyph-name="Rcaron" unicode="&#x158;" horiz-adv-x="586" 
d="M514 549q0 -94 -37.5 -141t-108.5 -55l190 -353h-73l-175 342h-150v-342h-60v750h212q104 0 153 -48.5t49 -152.5zM452 547q0 81 -34 114t-106 33h-152v-301h148q74 0 109 34.5t35 119.5zM250 799l-107 113h58l80 -84l80 84h57l-108 -113h-60z" />
    <glyph glyph-name="rcaron" unicode="&#x159;" horiz-adv-x="395" 
d="M86 0v589l45 4l2 -63l2 -81h2q23 68 68 109.5t105 41.5q14 0 26.5 -2t23.5 -5l-4 -59q-11 4 -23.5 5t-25.5 1q-33 0 -63 -16t-52.5 -46t-36 -72.5t-13.5 -95.5v-310h-56zM186 669l-97 139h48l74 -111l75 111h48l-97 -139h-51z" />
    <glyph glyph-name="Sacute" unicode="&#x15a;" horiz-adv-x="506" 
d="M463 204q0 -105 -56 -161t-165 -56q-58 0 -105.5 14.5t-85.5 40.5l11 57q38 -26 81.5 -40t97.5 -14q81 0 122 40.5t41 115.5q0 50 -25.5 80t-64 50.5t-83.5 37t-83.5 40.5t-64 60.5t-25.5 97.5q0 43 13 78.5t39 61.5t65.5 40.5t93.5 14.5q50 0 93 -10t78 -29l-11 -55
q-37 17 -74.5 26.5t-81.5 9.5q-42 0 -71.5 -10.5t-48 -28.5t-27.5 -42.5t-9 -52.5q0 -48 25.5 -76t64 -47.5t83.5 -36t83.5 -41t64 -63.5t25.5 -102zM375 911l-112 -111h-49l79 111h82z" />
    <glyph glyph-name="sacute" unicode="&#x15b;" horiz-adv-x="441" 
d="M395 164q0 -83 -43 -129.5t-136 -46.5q-47 0 -89 12.5t-71 37.5l8 52q29 -25 69.5 -38t80.5 -13q68 0 98.5 33t30.5 87q0 40 -21 64t-53 40t-68.5 29t-68.5 31.5t-53 47.5t-21 77q0 73 45.5 113.5t132.5 40.5q76 0 138 -32l-6 -51q-66 32 -133 32q-57 0 -90 -27t-33 -73
q0 -37 21 -58.5t52.5 -36t68 -27t68 -31.5t52.5 -50.5t21 -83.5zM328 808l-99 -139h-45l72 139h72z" />
    <glyph glyph-name="Scircumflex" unicode="&#x15c;" horiz-adv-x="506" 
d="M463 204q0 -105 -56 -161t-165 -56q-58 0 -105.5 14.5t-85.5 40.5l11 57q38 -26 81.5 -40t97.5 -14q81 0 122 40.5t41 115.5q0 50 -25.5 80t-64 50.5t-83.5 37t-83.5 40.5t-64 60.5t-25.5 97.5q0 43 13 78.5t39 61.5t65.5 40.5t93.5 14.5q50 0 93 -10t78 -29l-11 -55
q-37 17 -74.5 26.5t-81.5 9.5q-42 0 -71.5 -10.5t-48 -28.5t-27.5 -42.5t-9 -52.5q0 -48 25.5 -76t64 -47.5t83.5 -36t83.5 -41t64 -63.5t25.5 -102zM298 912l109 -113h-59l-80 83l-78 -83h-58l106 113h60z" />
    <glyph glyph-name="scircumflex" unicode="&#x15d;" horiz-adv-x="441" 
d="M395 164q0 -83 -43 -129.5t-136 -46.5q-47 0 -89 12.5t-71 37.5l8 52q29 -25 69.5 -38t80.5 -13q68 0 98.5 33t30.5 87q0 40 -21 64t-53 40t-68.5 29t-68.5 31.5t-53 47.5t-21 77q0 73 45.5 113.5t132.5 40.5q76 0 138 -32l-6 -51q-66 32 -133 32q-57 0 -90 -27t-33 -73
q0 -37 21 -58.5t52.5 -36t68 -27t68 -31.5t52.5 -50.5t21 -83.5zM254 808l98 -139h-48l-75 110l-75 -110h-47l96 139h51z" />
    <glyph glyph-name="Scedilla" unicode="&#x15e;" horiz-adv-x="506" 
d="M232 -13q-55 2 -100 16t-81 39l11 57q38 -26 81.5 -40t97.5 -14q81 0 122 40.5t41 115.5q0 50 -25.5 80t-64 50.5t-83.5 37t-83.5 40.5t-64 60.5t-25.5 97.5q0 43 13 78.5t39 61.5t65.5 40.5t93.5 14.5q50 0 93 -10t78 -29l-11 -55q-37 17 -74.5 26.5t-81.5 9.5
q-42 0 -71.5 -10.5t-48 -28.5t-27.5 -42.5t-9 -52.5q0 -48 25.5 -76t64 -47.5t83.5 -36t83.5 -41t64 -63.5t25.5 -102q0 -97 -48 -152t-142 -63l-34 -180h-58z" />
    <glyph glyph-name="scedilla" unicode="&#x15f;" horiz-adv-x="441" 
d="M206 -12q-44 2 -83 14t-67 36l8 52q29 -25 69.5 -38t80.5 -13q68 0 98.5 33t30.5 87q0 40 -21 64t-53 40t-68.5 29t-68.5 31.5t-53 47.5t-21 77q0 73 45.5 113.5t132.5 40.5q76 0 138 -32l-6 -51q-66 32 -133 32q-57 0 -90 -27t-33 -73q0 -37 21 -58.5t52.5 -36t68 -27
t68 -31.5t52.5 -50.5t21 -83.5q0 -76 -36 -121t-112 -53l-34 -181h-58z" />
    <glyph glyph-name="Scaron" unicode="&#x160;" horiz-adv-x="506" 
d="M463 204q0 -105 -56 -161t-165 -56q-58 0 -105.5 14.5t-85.5 40.5l11 57q38 -26 81.5 -40t97.5 -14q81 0 122 40.5t41 115.5q0 50 -25.5 80t-64 50.5t-83.5 37t-83.5 40.5t-64 60.5t-25.5 97.5q0 43 13 78.5t39 61.5t65.5 40.5t93.5 14.5q50 0 93 -10t78 -29l-11 -55
q-37 17 -74.5 26.5t-81.5 9.5q-42 0 -71.5 -10.5t-48 -28.5t-27.5 -42.5t-9 -52.5q0 -48 25.5 -76t64 -47.5t83.5 -36t83.5 -41t64 -63.5t25.5 -102zM243 799l-107 113h58l80 -84l80 84h57l-108 -113h-60z" />
    <glyph glyph-name="scaron" unicode="&#x161;" horiz-adv-x="441" 
d="M395 164q0 -83 -43 -129.5t-136 -46.5q-47 0 -89 12.5t-71 37.5l8 52q29 -25 69.5 -38t80.5 -13q68 0 98.5 33t30.5 87q0 40 -21 64t-53 40t-68.5 29t-68.5 31.5t-53 47.5t-21 77q0 73 45.5 113.5t132.5 40.5q76 0 138 -32l-6 -51q-66 32 -133 32q-57 0 -90 -27t-33 -73
q0 -37 21 -58.5t52.5 -36t68 -27t68 -31.5t52.5 -50.5t21 -83.5zM204 669l-97 139h48l74 -111l75 111h48l-97 -139h-51z" />
    <glyph glyph-name="Tcommaaccent" unicode="&#x162;" horiz-adv-x="516" 
d="M239 0h-11v690h-211l2 60h479l1 -60h-211v-690h-10l-36 -191h-58z" />
    <glyph glyph-name="tcommaaccent" unicode="&#x163;" horiz-adv-x="348" 
d="M224 -8q-53 5 -80.5 39.5t-27.5 101.5v412h-82v47h83l11 153l44 6v-159h140v-47h-140v-410q0 -52 23.5 -73.5t63.5 -21.5q11 0 24 2.5t21 6.5l5 -46q-17 -8 -46 -11l-34 -183h-58z" />
    <glyph glyph-name="Tcaron" unicode="&#x164;" horiz-adv-x="516" 
d="M288 690v-690h-60v690h-211l2 60h479l1 -60h-211zM228 799l-107 113h58l80 -84l80 84h57l-108 -113h-60z" />
    <glyph glyph-name="tcaron" unicode="&#x165;" horiz-adv-x="388" 
d="M172 545v-410q0 -52 23.5 -73.5t63.5 -21.5q11 0 24 2.5t21 6.5l5 -46q-11 -5 -29 -8.5t-36 -3.5q-63 0 -95.5 34.5t-32.5 107.5v412h-82v47h83l11 153l44 6v-159h140v-47h-140zM306 777q21 0 30 -10t9 -26q0 -9 -5.5 -22.5t-14 -29.5t-19 -33t-21.5 -32l-15 7l27 81
q-30 4 -30 33q0 14 9.5 23t29.5 9z" />
    <glyph glyph-name="Tbar" unicode="&#x166;" horiz-adv-x="516" 
d="M288 690v-185h136v-44h-136v-461h-60v461h-136v44h136v185h-211l2 60h479l1 -60h-211z" />
    <glyph glyph-name="tbar" unicode="&#x167;" horiz-adv-x="348" 
d="M172 545v-94h141v-45h-141v-271q0 -52 23.5 -73.5t63.5 -21.5q11 0 24 2.5t21 6.5l5 -46q-11 -5 -29 -8.5t-36 -3.5q-63 0 -95.5 34.5t-32.5 107.5v273h-81v45h81v94h-82v47h83l11 153l44 6v-159h140v-47h-140z" />
    <glyph glyph-name="Utilde" unicode="&#x168;" horiz-adv-x="662" 
d="M577 252q0 -141 -64.5 -203t-181.5 -62q-118 0 -182 62t-64 203v498h60v-497q0 -109 46 -157.5t140 -48.5t140 48.5t46 157.5v497h60v-498zM204 808q5 42 22.5 68.5t48.5 26.5q19 0 34 -11t28.5 -24t26 -24t26.5 -11q29 0 41 56l27 -1q-4 -42 -22 -68.5t-49 -26.5
q-18 0 -33 11t-28.5 24t-26 24t-25.5 11q-15 0 -25 -15t-16 -40h-29z" />
    <glyph glyph-name="utilde" unicode="&#x169;" horiz-adv-x="545" 
d="M469 177q0 -91 -48 -139.5t-148 -48.5t-148 49t-48 139v415h55v-414q0 -68 36 -101.5t105 -33.5t104.5 33.5t35.5 101.5v414h56v-415zM146 695q5 47 23.5 75t48.5 28q19 0 34 -11.5t28.5 -25t26 -25t27.5 -11.5q30 0 41 62l30 -1q-5 -47 -24 -75t-48 -28q-19 0 -34 11.5
t-28.5 25.5t-26 25.5t-26.5 11.5t-25 -17t-17 -46z" />
    <glyph glyph-name="Umacron" unicode="&#x16a;" horiz-adv-x="662" 
d="M577 252q0 -141 -64.5 -203t-181.5 -62q-118 0 -182 62t-64 203v498h60v-497q0 -109 46 -157.5t140 -48.5t140 48.5t46 157.5v497h60v-498zM454 819h-242v35h242v-35z" />
    <glyph glyph-name="umacron" unicode="&#x16b;" horiz-adv-x="545" 
d="M469 177q0 -91 -48 -139.5t-148 -48.5t-148 49t-48 139v415h55v-414q0 -68 36 -101.5t105 -33.5t104.5 33.5t35.5 101.5v414h56v-415zM395 724h-241v40h241v-40z" />
    <glyph glyph-name="Ubreve" unicode="&#x16c;" horiz-adv-x="662" 
d="M577 252q0 -141 -64.5 -203t-181.5 -62q-118 0 -182 62t-64 203v498h60v-497q0 -109 46 -157.5t140 -48.5t140 48.5t46 157.5v497h60v-498zM462 911q0 -56 -32.5 -86t-99.5 -30q-133 0 -133 116h44q0 -44 26 -62t63 -18q39 0 63.5 18t23.5 62h45z" />
    <glyph glyph-name="ubreve" unicode="&#x16d;" horiz-adv-x="545" 
d="M469 177q0 -91 -48 -139.5t-148 -48.5t-148 49t-48 139v415h55v-414q0 -68 36 -101.5t105 -33.5t104.5 33.5t35.5 101.5v414h56v-415zM392 808q0 -69 -29.5 -107.5t-89.5 -38.5t-89.5 37t-29.5 109h41q0 -56 22 -82.5t56 -26.5q35 0 56 26.5t21 82.5h42z" />
    <glyph glyph-name="Uring" unicode="&#x16e;" horiz-adv-x="662" 
d="M577 252q0 -141 -64.5 -203t-181.5 -62q-118 0 -182 62t-64 203v498h60v-497q0 -109 46 -157.5t140 -48.5t140 48.5t46 157.5v497h60v-498zM254 794q0 30 19 49.5t57 19.5t58 -19t20 -49q0 -32 -20 -50.5t-58 -18.5q-36 0 -56 17.5t-20 50.5zM287 793q0 -17 11 -27.5
t33 -10.5t33 10.5t11 27.5q0 18 -11 28.5t-33 10.5t-33 -11t-11 -28z" />
    <glyph glyph-name="uring" unicode="&#x16f;" horiz-adv-x="545" 
d="M469 177q0 -91 -48 -139.5t-148 -48.5t-148 49t-48 139v415h55v-414q0 -68 36 -101.5t105 -33.5t104.5 33.5t35.5 101.5v414h56v-415zM196 747q0 31 21.5 50.5t59.5 19.5t60 -19.5t22 -50.5q0 -32 -22 -51.5t-60 -19.5q-37 0 -59 19t-22 52zM228 747q0 -20 12.5 -32
t37.5 -12q23 0 37 12t14 32q0 19 -13.5 31t-37.5 12q-25 0 -37.5 -12.5t-12.5 -30.5z" />
    <glyph glyph-name="Uhungarumlaut" unicode="&#x170;" horiz-adv-x="662" 
d="M577 252q0 -141 -64.5 -203t-181.5 -62q-118 0 -182 62t-64 203v498h60v-497q0 -109 46 -157.5t140 -48.5t140 48.5t46 157.5v497h60v-498zM371 912l-91 -113h-41l65 113h67zM504 912l-108 -113h-45l85 113h68z" />
    <glyph glyph-name="uhungarumlaut" unicode="&#x171;" horiz-adv-x="545" 
d="M469 177q0 -91 -48 -139.5t-148 -48.5t-148 49t-48 139v415h55v-414q0 -68 36 -101.5t105 -33.5t104.5 33.5t35.5 101.5v414h56v-415zM315 808l-98 -139h-39l71 139h66zM445 808l-101 -139h-44l79 139h66z" />
    <glyph glyph-name="Uogonek" unicode="&#x172;" horiz-adv-x="662" 
d="M406 -173q-49 0 -68.5 22.5t-19.5 53.5q0 24 11.5 46.5t34.5 39.5q-9 -1 -17 -1.5t-16 -0.5q-118 0 -182 62t-64 203v498h60v-497q0 -109 46 -157.5t140 -48.5t140 48.5t46 157.5v497h60v-498q0 -113 -41.5 -174t-118.5 -81q-28 -15 -41.5 -37t-13.5 -46q0 -21 13.5 -34
t43.5 -13q32 0 59 15l5 -33q-35 -22 -77 -22z" />
    <glyph glyph-name="uogonek" unicode="&#x173;" horiz-adv-x="545" 
d="M334 -173q-49 0 -68.5 22.5t-19.5 53.5q0 24 12 47t35 40q-6 -1 -10.5 -1h-9.5q-100 0 -148 49t-48 139v415h55v-414q0 -68 36 -101.5t105 -33.5t104.5 33.5t35.5 101.5v414h56v-415q0 -72 -30 -117t-91 -62q-29 -15 -43.5 -37t-14.5 -47q0 -21 13.5 -34t43.5 -13
q32 0 59 15l5 -33q-35 -22 -77 -22z" />
    <glyph glyph-name="Wcircumflex" unicode="&#x174;" horiz-adv-x="891" 
d="M481 750l137 -610l17 -79h3l14 79l123 610h60l-162 -750h-76l-135 608l-15 80h-3l-16 -80l-134 -608h-75l-163 750h62l123 -611l15 -79h3l16 79l137 611h69zM473 912l109 -113h-59l-80 83l-78 -83h-58l106 113h60z" />
    <glyph glyph-name="wcircumflex" unicode="&#x175;" horiz-adv-x="776" 
d="M421 592l111 -467l17 -79h3l14 79l97 467h56l-133 -592h-71l-106 455l-16 80h-3l-18 -80l-108 -455h-70l-137 592h57l99 -464l16 -79h3l17 79l110 464h62zM409 808l98 -139h-48l-75 110l-75 -110h-47l96 139h51z" />
    <glyph glyph-name="Ycircumflex" unicode="&#x176;" horiz-adv-x="586" 
d="M97 750l164 -352l33 -74h3l32 74l163 352h67l-234 -488v-262h-61v262l-237 488h70zM324 912l109 -113h-59l-80 83l-78 -83h-58l106 113h60z" />
    <glyph glyph-name="ycircumflex" unicode="&#x177;" horiz-adv-x="564" 
d="M169 -106q32 0 56 17.5t44 66.5l3 12l-233 602h66l169 -464l26 -76h3l21 78l140 462h61l-199 -613q-24 -74 -61.5 -103t-86.5 -29q-21 0 -41 5t-36 13l7 46q15 -9 30.5 -13t30.5 -4zM316 808l98 -139h-48l-75 110l-75 -110h-47l96 139h51z" />
    <glyph glyph-name="Ydieresis" unicode="&#x178;" horiz-adv-x="586" 
d="M97 750l164 -352l33 -74h3l32 74l163 352h67l-234 -488v-262h-61v262l-237 488h70zM242 843q0 -35 -32 -35q-16 0 -24.5 7.5t-8.5 27.5q0 36 33 36q32 0 32 -36zM412 843q0 -35 -33 -35q-16 0 -24 7.5t-8 27.5q0 36 32 36q33 0 33 -36z" />
    <glyph glyph-name="Zacute" unicode="&#x179;" horiz-adv-x="550" 
d="M48 0v43l337 579l42 67l-2 2h-366l3 59h434v-49l-333 -573l-41 -66l1 -3h373l-3 -59h-445zM398 911l-112 -111h-49l79 111h82z" />
    <glyph glyph-name="zacute" unicode="&#x17a;" horiz-adv-x="486" 
d="M168 120l-42 -66l1 -3h301l-2 -51h-364v42l257 429l43 67l-2 2h-287l3 52h349v-42zM348 808l-99 -139h-45l72 139h72z" />
    <glyph glyph-name="Zdotaccent" unicode="&#x17b;" horiz-adv-x="550" 
d="M48 0v43l337 579l42 67l-2 2h-366l3 59h434v-49l-333 -573l-41 -66l1 -3h373l-3 -59h-445zM326 844q0 -38 -43 -38q-23 0 -33 8.5t-10 29.5q0 38 43 38t43 -38z" />
    <glyph glyph-name="zdotaccent" unicode="&#x17c;" horiz-adv-x="486" 
d="M168 120l-42 -66l1 -3h301l-2 -51h-364v42l257 429l43 67l-2 2h-287l3 52h349v-42zM293 754q0 -40 -42 -40q-21 0 -32 8.5t-11 31.5q0 41 43 41q42 0 42 -41z" />
    <glyph glyph-name="Zcaron" unicode="&#x17d;" horiz-adv-x="550" 
d="M48 0v43l337 579l42 67l-2 2h-366l3 59h434v-49l-333 -573l-41 -66l1 -3h373l-3 -59h-445zM246 799l-107 113h58l80 -84l80 84h57l-108 -113h-60z" />
    <glyph glyph-name="zcaron" unicode="&#x17e;" horiz-adv-x="486" 
d="M168 120l-42 -66l1 -3h301l-2 -51h-364v42l257 429l43 67l-2 2h-287l3 52h349v-42zM225 669l-97 139h48l74 -111l75 111h48l-97 -139h-51z" />
    <glyph glyph-name="longs" unicode="&#x17f;" horiz-adv-x="260" 
d="M22 588h84q0 64 11.5 105.5t35 65.5t60.5 33.5t88 9.5l3 -37q-33 0 -60.5 -6t-47 -24.5t-30.5 -53.5t-11 -93v-498q0 -59 -11 -101t-33 -69.5t-55.5 -43.5t-78.5 -23l-5 36q36 7 61 20t41.5 36t24 58.5t7.5 86.5v464h-86z" />
    <glyph glyph-name="uni018F" unicode="&#x18f;" horiz-adv-x="660" 
d="M536 397q0 29 -2 54t-5 48q-9 63 -28 105t-48 66.5t-67.5 35t-86.5 10.5q-58 0 -105 -10t-81 -27l-7 40q31 17 84 29.5t114 12.5q58 0 104.5 -14.5t82 -46t58.5 -82t33 -122.5q4 -27 6 -57t2 -64q0 -107 -14 -181t-45 -120t-81 -66.5t-123 -20.5q-116 0 -177.5 54.5
t-79.5 182.5q-2 10 -3 26.5t-2.5 35.5t-2 39t-0.5 38v18t1 16h473zM326 32q55 0 94.5 14.5t65 51.5t37.5 99t13 158h-420q1 -38 2.5 -70t5.5 -59q8 -56 23.5 -93.5t40.5 -60t59 -31.5t79 -9z" />
    <glyph glyph-name="florin" unicode="&#x192;" horiz-adv-x="359" 
d="M0 -143l139 688h-57l10 47h57l11 61q11 61 49 94.5t101 33.5q20 0 38.5 -3.5t30.5 -8.5l-13 -42q-25 10 -54 10q-82 0 -97 -85l-11 -60h138l-10 -47h-137l-140 -688h-55z" />
    <glyph glyph-name="uni01B5" unicode="&#x1b5;" horiz-adv-x="550" 
d="M48 0v43l192 330h-147l3 42h168l121 207l42 67l-2 2h-366l3 59h434v-49l-166 -286h144l-2 -42h-167l-142 -245l-41 -66l1 -3h373l-3 -59h-445z" />
    <glyph glyph-name="uni01B6" unicode="&#x1b6;" horiz-adv-x="486" 
d="M290 324h104l-1 -40h-127l-98 -164l-42 -66l1 -3h301l-2 -51h-364v42l145 242h-100l1 40h123l88 147l43 67l-2 2h-287l3 52h349v-42z" />
    <glyph glyph-name="Aringacute" unicode="&#x1fa;" horiz-adv-x="623" 
d="M235 801q0 30 19 49.5t57 19.5h5l54 75h82l-90 -89q27 -18 27 -54q0 -44 -37 -61l248 -741h-68l-63 200h-317l-63 -200h-65l247 740q-36 16 -36 61zM288 625l-118 -369h281l-115 369l-22 78h-3zM268 800q0 -17 11 -27.5t33 -10.5t33 10.5t11 27.5q0 18 -11 28.5t-33 10.5
t-33 -11t-11 -28z" />
    <glyph glyph-name="aringacute" unicode="&#x1fb;" horiz-adv-x="514" 
d="M390 79l-3 1q-22 -42 -65.5 -66t-99.5 -24q-73 0 -118 43t-45 142q0 86 47.5 131t145.5 45q36 0 70 -7.5t60 -18.5v80q0 42 -8 70t-25 44.5t-42.5 23.5t-60.5 7q-41 0 -77.5 -8.5t-71.5 -27.5l-7 50q76 38 165 38q48 0 83 -11t57 -35.5t32.5 -63.5t10.5 -96v-398h-43z
M382 280q-11 8 -42.5 17.5t-78.5 9.5q-78 0 -113.5 -34.5t-35.5 -97.5q0 -38 9.5 -64t26 -42t39.5 -23t50 -7q29 0 55 10t46 26.5t32 37t12 42.5v125zM402 932l-92 -129q29 -20 29 -56q0 -32 -22 -51.5t-60 -19.5q-37 0 -59 19t-22 52q0 31 21.5 50.5t59.5 19.5h6.5t6.5 -1
l60 116h72zM208 747q0 -20 12.5 -32t37.5 -12q23 0 37 12t14 32q0 19 -13.5 31t-37.5 12q-25 0 -37.5 -12.5t-12.5 -30.5z" />
    <glyph glyph-name="AEacute" unicode="&#x1fc;" horiz-adv-x="936" 
d="M520 692l29 -272h278v-54h-273l33 -308h301l-2 -58h-355l-20 200h-293l-96 -200h-72l378 750h450l3 -58h-361zM426 630l-181 -374h260l-36 366l-6 81l-3 1zM723 911l-112 -111h-49l79 111h82z" />
    <glyph glyph-name="aeacute" unicode="&#x1fd;" horiz-adv-x="839" 
d="M255 602q67 0 106 -23t55 -77h2q51 100 172 100q44 0 80.5 -15t63 -48t41 -84.5t14.5 -124.5v-15t-1 -15h-355q1 -74 13 -123.5t34.5 -79.5t57 -42.5t81.5 -12.5q41 0 75.5 10.5t68.5 30.5l7 -52q-33 -20 -71.5 -31t-86.5 -11q-81 0 -130 29t-72 91h-3
q-20 -56 -66.5 -87.5t-112.5 -31.5q-77 0 -123 43t-46 142q0 86 47.5 130.5t145.5 44.5q38 0 71 -7.5t59 -19.5v82q0 42 -8 70t-25 44.5t-42.5 23.5t-60.5 7q-41 0 -77.5 -8.5t-71.5 -27.5l-7 50q76 38 165 38zM382 280q-11 8 -42.5 17.5t-78.5 9.5q-78 0 -114 -34.5
t-36 -97.5q0 -38 9.5 -64t26.5 -42t40 -23t50 -7q31 0 58 10.5t46 28.5t30 43t11 54v105zM738 342q-1 58 -12.5 98t-31.5 64.5t-47.5 35t-59.5 10.5q-78 0 -114.5 -51t-39.5 -157h305zM527 808l-99 -139h-45l72 139h72z" />
    <glyph glyph-name="Oslashacute" unicode="&#x1fe;" horiz-adv-x="661" 
d="M459 911l-112 -111h-49l79 111h82zM49 19l57 85q-23 47 -33 113.5t-10 157.5q0 107 14.5 181t46.5 119.5t82.5 66t123.5 20.5q72 0 122 -19.5t82 -64.5l61 81l32 -30l-69 -94q40 -90 40 -260q0 -107 -14.5 -181t-46.5 -120t-83 -66.5t-124 -20.5q-69 0 -118 18t-81 59
l-50 -76zM126 375q0 -73 5.5 -126.5t18.5 -91.5l344 468q-24 45 -64 61.5t-100 16.5q-55 0 -93.5 -14.5t-63 -51.5t-36 -100.5t-11.5 -161.5zM535 375q0 69 -5.5 119.5t-15.5 88.5l-345 -464q25 -42 64.5 -57.5t97.5 -15.5q55 0 93.5 14.5t63 52t36 101t11.5 161.5z" />
    <glyph glyph-name="oslashacute" unicode="&#x1ff;" horiz-adv-x="548" 
d="M38 25l46 67q-32 70 -32 203q0 85 13.5 143.5t41 95t69.5 52.5t99 16q52 0 90.5 -13t65.5 -42l35 53l27 -25l-39 -60q41 -72 41 -220q0 -86 -12.5 -144.5t-39.5 -95t-68.5 -52.5t-99.5 -16q-59 0 -101 16t-69 53l-40 -55zM438 295q0 56 -5 97.5t-16 72.5l-279 -355
q20 -39 53.5 -55.5t83.5 -16.5q44 0 75 13t50.5 43.5t28.5 79.5t9 121zM109 295q0 -47 3.5 -84t10.5 -66l276 351q-20 29 -50 42t-74 13q-45 0 -76.5 -13t-51.5 -43t-29 -79t-9 -121zM386 808l-99 -139h-45l72 139h72z" />
    <glyph glyph-name="Scommaaccent" unicode="&#x218;" horiz-adv-x="506" 
d="M463 204q0 -105 -56 -161t-165 -56q-58 0 -105.5 14.5t-85.5 40.5l11 57q38 -26 81.5 -40t97.5 -14q81 0 122 40.5t41 115.5q0 50 -25.5 80t-64 50.5t-83.5 37t-83.5 40.5t-64 60.5t-25.5 97.5q0 43 13 78.5t39 61.5t65.5 40.5t93.5 14.5q50 0 93 -10t78 -29l-11 -55
q-37 17 -74.5 26.5t-81.5 9.5q-42 0 -71.5 -10.5t-48 -28.5t-27.5 -42.5t-9 -52.5q0 -48 25.5 -76t64 -47.5t83.5 -36t83.5 -41t64 -63.5t25.5 -102zM254 -43q23 0 33 -10t10 -26q0 -8 -5.5 -21.5t-15 -29.5t-21 -33t-23.5 -32l-18 6l29 82q-32 4 -32 32q0 13 10 22.5
t33 9.5z" />
    <glyph glyph-name="scommaaccent" unicode="&#x219;" horiz-adv-x="441" 
d="M395 164q0 -83 -43 -129.5t-136 -46.5q-47 0 -89 12.5t-71 37.5l8 52q29 -25 69.5 -38t80.5 -13q68 0 98.5 33t30.5 87q0 40 -21 64t-53 40t-68.5 29t-68.5 31.5t-53 47.5t-21 77q0 73 45.5 113.5t132.5 40.5q76 0 138 -32l-6 -51q-66 32 -133 32q-57 0 -90 -27t-33 -73
q0 -37 21 -58.5t52.5 -36t68 -27t68 -31.5t52.5 -50.5t21 -83.5zM226 -43q23 0 33 -10t10 -26q0 -8 -5.5 -21.5t-15 -29.5t-21 -33t-23.5 -32l-18 6l29 82q-32 4 -32 32q0 13 10 22.5t33 9.5z" />
    <glyph glyph-name="uni021A" unicode="&#x21a;" horiz-adv-x="516" 
d="M288 690v-690h-60v690h-211l2 60h479l1 -60h-211zM257 -43q23 0 33 -10t10 -26q0 -8 -5.5 -21.5t-15 -29.5t-21 -33t-23.5 -32l-18 6l29 82q-32 4 -32 32q0 13 10 22.5t33 9.5z" />
    <glyph glyph-name="uni021B" unicode="&#x21b;" horiz-adv-x="348" 
d="M172 545v-410q0 -52 23.5 -73.5t63.5 -21.5q11 0 24 2.5t21 6.5l5 -46q-11 -5 -29 -8.5t-36 -3.5q-63 0 -95.5 34.5t-32.5 107.5v412h-82v47h83l11 153l44 6v-159h140v-47h-140zM209 -43q23 0 33 -10t10 -26q0 -8 -5.5 -21.5t-15 -29.5t-21 -33t-23.5 -32l-18 6l29 82
q-32 4 -32 32q0 13 10 22.5t33 9.5z" />
    <glyph glyph-name="dotlessj" unicode="&#x237;" horiz-adv-x="277" 
d="M166 -19q0 -75 -32.5 -104t-83.5 -29q-14 0 -30 3.5t-28 8.5l5 44q9 -4 19.5 -6.5t21.5 -2.5q32 0 52 20t20 67v608l56 4v-613z" />
    <glyph glyph-name="uni0259" unicode="&#x259;" horiz-adv-x="460" 
d="M198 -9q-70 0 -112 32t-42 106q0 36 14.5 70t50.5 64t96 53t151 37q-2 12 -2.5 23.5t-2.5 23.5q-6 46 -19 76.5t-32 48.5t-44.5 25.5t-55.5 7.5q-46 0 -83 -14.5t-63 -45.5l-20 31q29 33 72.5 52t100.5 19q38 0 70 -10.5t57 -34t41.5 -62t24.5 -94.5q4 -23 5.5 -48
t1.5 -48v-8q0 -155 -53.5 -229.5t-155.5 -74.5zM358 314q-80 -11 -132 -30.5t-83 -44.5t-43 -53.5t-12 -56.5v-10.5t1 -10.5q5 -37 32 -57.5t78 -20.5q85 0 122 66t37 200v18z" />
    <glyph glyph-name="circumflex" unicode="&#x2c6;" 
d="M208 808l98 -139h-48l-75 110l-75 -110h-47l96 139h51z" />
    <glyph glyph-name="caron" unicode="&#x2c7;" 
d="M158 669l-97 139h48l74 -111l75 111h48l-97 -139h-51z" />
    <glyph glyph-name="breve" unicode="&#x2d8;" 
d="M302 808q0 -69 -29.5 -107.5t-89.5 -38.5t-89.5 37t-29.5 109h41q0 -56 22 -82.5t56 -26.5q35 0 56 26.5t21 82.5h42z" />
    <glyph glyph-name="dotaccent" unicode="&#x2d9;" 
d="M225 754q0 -40 -42 -40q-21 0 -32 8.5t-11 31.5q0 41 43 41q42 0 42 -41z" />
    <glyph glyph-name="ring" unicode="&#x2da;" 
d="M102 747q0 31 21.5 50.5t59.5 19.5t60 -19.5t22 -50.5q0 -32 -22 -51.5t-60 -19.5q-37 0 -59 19t-22 52zM134 747q0 -20 12.5 -32t37.5 -12q23 0 37 12t14 32q0 19 -13.5 31t-37.5 12q-25 0 -37.5 -12.5t-12.5 -30.5z" />
    <glyph glyph-name="ogonek" unicode="&#x2db;" 
d="M221 -173q-49 0 -68.5 22.5t-19.5 53.5q0 33 21.5 62t60.5 46l24 -11q-31 -15 -46.5 -37.5t-15.5 -48.5q0 -21 13.5 -34t43.5 -13q32 0 59 15l5 -33q-35 -22 -77 -22z" />
    <glyph glyph-name="tilde" unicode="&#x2dc;" 
d="M59 695q5 47 23.5 75t48.5 28q19 0 34 -11.5t28.5 -25t26 -25t27.5 -11.5q30 0 41 62l30 -1q-5 -47 -24 -75t-48 -28q-19 0 -34 11.5t-28.5 25.5t-26 25.5t-26.5 11.5t-25 -17t-17 -46z" />
    <glyph glyph-name="hungarumlaut" unicode="&#x2dd;" 
d="M243 808l-98 -139h-39l71 139h66zM373 808l-101 -139h-44l79 139h66z" />
    <glyph glyph-name="tonos" unicode="&#x384;" 
d="M216 820l-18 -151h-35l-13 151h66z" />
    <glyph glyph-name="dieresistonos" unicode="&#x385;" 
d="M215 905l-16 -132h-33l-11 132h60zM100 755q0 -36 -32 -36q-15 0 -23 8t-8 28q0 37 31 37q32 0 32 -37zM329 755q0 -36 -32 -36q-15 0 -23.5 8t-8.5 28q0 37 32 37t32 -37z" />
    <glyph glyph-name="Alphatonos" unicode="&#x386;" horiz-adv-x="623" 
d="M469 200h-317l-63 -200h-65l251 750h74l251 -750h-68zM288 625l-118 -369h281l-115 369l-22 78h-3zM146 751l-18 -151h-35l-13 151h66z" />
    <glyph glyph-name="Epsilontonos" unicode="&#x388;" horiz-adv-x="646" 
d="M600 58l-2 -58h-410v750h394l2 -58h-336v-272h291v-54h-291v-308h352zM82 751l-18 -151h-35l-13 151h66z" />
    <glyph glyph-name="Etatonos" unicode="&#x389;" horiz-adv-x="767" 
d="M607 0v363h-359v-363h-60v750h60v-328h359v328h60v-750h-60zM82 751l-18 -151h-35l-13 151h66z" />
    <glyph glyph-name="Iotatonos" unicode="&#x38a;" horiz-adv-x="382" 
d="M208 750h62v-750h-62v750zM82 751l-18 -151h-35l-13 151h66z" />
    <glyph glyph-name="Omicrontonos" unicode="&#x38c;" horiz-adv-x="755" 
d="M692 375q0 -107 -14.5 -181t-46 -120t-82.5 -66.5t-124 -20.5q-72 0 -123 20.5t-83.5 66.5t-47 120t-14.5 181t14.5 181t46.5 119.5t83 66t124 20.5t124 -20.5t82.5 -66t46 -119.5t14.5 -181zM629 375q0 98 -11 161.5t-35.5 100.5t-63.5 51.5t-94 14.5t-94 -14.5
t-63.5 -51.5t-36 -100.5t-11.5 -161.5t11.5 -161.5t36 -101t63.5 -52t94 -14.5t94 14.5t63.5 52t35.5 101t11 161.5zM82 751l-18 -151h-35l-13 151h66z" />
    <glyph glyph-name="Upsilontonos" unicode="&#x38e;" horiz-adv-x="724" 
d="M235 750l164 -352l33 -74h3l32 74l163 352h67l-234 -488v-262h-61v262l-237 488h70zM82 751l-18 -151h-35l-13 151h66z" />
    <glyph glyph-name="Omegatonos" unicode="&#x38f;" horiz-adv-x="757" 
d="M425 761q64 0 113 -18.5t82 -58.5t49.5 -103t16.5 -151q0 -106 -42.5 -203t-130.5 -171v-3h180v-53h-229v75q73 69 116.5 159t43.5 194q0 74 -11.5 126.5t-36 85.5t-62 48t-89.5 15t-89.5 -15t-61.5 -48t-35.5 -85.5t-11.5 -126.5q0 -104 43.5 -194t116.5 -159v-75h-229
v53h179l1 3q-88 73 -130.5 170.5t-42.5 203.5q0 175 66 253t194 78zM82 751l-18 -151h-35l-13 151h66z" />
    <glyph glyph-name="iotadieresistonos" unicode="&#x390;" horiz-adv-x="316" 
d="M157 135q0 -52 23.5 -73.5t63.5 -21.5q11 0 24 2.5t21 6.5l5 -46q-11 -5 -29 -8.5t-36 -3.5q-63 0 -95.5 34.5t-32.5 107.5v457l56 4v-459zM170 905l-16 -132h-33l-11 132h60zM55 755q0 -36 -32 -36q-15 0 -23 8t-8 28q0 37 31 37q32 0 32 -37zM284 755q0 -36 -32 -36
q-15 0 -23.5 8t-8.5 28q0 37 32 37t32 -37z" />
    <glyph glyph-name="Alpha" unicode="&#x391;" horiz-adv-x="623" 
d="M469 200h-317l-63 -200h-65l251 750h74l251 -750h-68zM288 625l-118 -369h281l-115 369l-22 78h-3z" />
    <glyph glyph-name="Beta" unicode="&#x392;" horiz-adv-x="613" 
d="M549 210q0 -101 -48 -155.5t-161 -54.5h-240v750h228q97 0 145 -43t48 -140q0 -75 -29.5 -115t-75.5 -54v-2q61 -13 97 -56.5t36 -129.5zM489 214q0 81 -37.5 116.5t-115.5 35.5h-178v-311h183q70 0 109 35t39 124zM462 556q0 77 -33 107.5t-103 30.5h-168v-277h174
q67 0 98.5 34.5t31.5 104.5z" />
    <glyph glyph-name="Gamma" unicode="&#x393;" horiz-adv-x="513" 
d="M160 690v-690h-60v750h388l1 -60h-329z" />
    <glyph glyph-name="uni0394" unicode="&#x394;" horiz-adv-x="683" 
d="M633 0h-583l270 754h42zM315 602l-192 -548h435l-191 548l-24 78h-3z" />
    <glyph glyph-name="Epsilon" unicode="&#x395;" horiz-adv-x="558" 
d="M512 58l-2 -58h-410v750h394l2 -58h-336v-272h291v-54h-291v-308h352z" />
    <glyph glyph-name="Zeta" unicode="&#x396;" horiz-adv-x="550" 
d="M48 0v43l337 579l42 67l-2 2h-366l3 59h434v-49l-333 -573l-41 -66l1 -3h373l-3 -59h-445z" />
    <glyph glyph-name="Eta" unicode="&#x397;" horiz-adv-x="679" 
d="M519 0v363h-359v-363h-60v750h60v-328h359v328h60v-750h-60z" />
    <glyph glyph-name="Theta" unicode="&#x398;" horiz-adv-x="661" 
d="M598 375q0 -107 -14.5 -181t-46 -120t-82.5 -66.5t-124 -20.5q-72 0 -123 20.5t-83.5 66.5t-47 120t-14.5 181t14.5 181t46.5 119.5t83 66t124 20.5t124 -20.5t82.5 -66t46 -119.5t14.5 -181zM535 375q0 98 -11 161.5t-35.5 100.5t-63.5 51.5t-94 14.5t-94 -14.5
t-63.5 -51.5t-36 -100.5t-11.5 -161.5t11.5 -161.5t36 -101t63.5 -52t94 -14.5t94 14.5t63.5 52t35.5 101t11 161.5zM193 351v56h266v-56h-266z" />
    <glyph glyph-name="Iota" unicode="&#x399;" horiz-adv-x="286" 
d="M112 750h62v-750h-62v750z" />
    <glyph glyph-name="Kappa" unicode="&#x39a;" horiz-adv-x="620" 
d="M512 0l-243 365h-109v-365h-60v750h60v-330h108l233 330h75l-251 -355l265 -395h-78z" />
    <glyph glyph-name="Lambda" unicode="&#x39b;" horiz-adv-x="602" 
d="M25 0l242 750h68l242 -750h-70l-183 605l-23 77h-3l-21 -77l-186 -605h-66z" />
    <glyph glyph-name="Mu" unicode="&#x39c;" horiz-adv-x="816" 
d="M171 750l210 -584l26 -76h3l25 76l210 584h71v-750h-55v561l2 81l-3 1l-26 -77l-204 -566h-46l-204 563l-26 77l-2 -1l1 -81v-558h-53v750h71z" />
    <glyph glyph-name="Nu" unicode="&#x39d;" horiz-adv-x="684" 
d="M538 0l-343 581l-40 71l-2 -1l1 -81v-570h-54v750h61l370 -638l2 1l-2 80l-1 557h54v-750h-46z" />
    <glyph glyph-name="Xi" unicode="&#x39e;" horiz-adv-x="576" 
d="M530 60l-3 -60h-478l-3 60h484zM64 690l3 60h442l3 -60h-448zM448 360h-319v59h319v-59z" />
    <glyph glyph-name="Omicron" unicode="&#x39f;" horiz-adv-x="661" 
d="M598 375q0 -107 -14.5 -181t-46 -120t-82.5 -66.5t-124 -20.5q-72 0 -123 20.5t-83.5 66.5t-47 120t-14.5 181t14.5 181t46.5 119.5t83 66t124 20.5t124 -20.5t82.5 -66t46 -119.5t14.5 -181zM535 375q0 98 -11 161.5t-35.5 100.5t-63.5 51.5t-94 14.5t-94 -14.5
t-63.5 -51.5t-36 -100.5t-11.5 -161.5t11.5 -161.5t36 -101t63.5 -52t94 -14.5t94 14.5t63.5 52t35.5 101t11 161.5z" />
    <glyph glyph-name="Pi" unicode="&#x3a0;" horiz-adv-x="679" 
d="M519 0v691h-359v-691h-60v750h479v-750h-60z" />
    <glyph glyph-name="Rho" unicode="&#x3a1;" horiz-adv-x="581" 
d="M533 530q0 -116 -52 -169t-171 -53h-150v-308h-60v750h210q116 0 169.5 -50t53.5 -170zM472 531q0 91 -39 127t-123 36h-150v-332h150q40 0 70.5 8t51 27.5t30.5 52t10 81.5z" />
    <glyph glyph-name="Sigma" unicode="&#x3a3;" horiz-adv-x="562" 
d="M50 0v43l192 330l-182 323v54h436l3 -59h-366l-1 -3l38 -66l139 -246l-143 -246l-42 -68l1 -3h391l-3 -59h-463z" />
    <glyph glyph-name="Tau" unicode="&#x3a4;" horiz-adv-x="516" 
d="M288 690v-690h-60v690h-211l2 60h479l1 -60h-211z" />
    <glyph glyph-name="Upsilon" unicode="&#x3a5;" horiz-adv-x="586" 
d="M97 750l164 -352l33 -74h3l32 74l163 352h67l-234 -488v-262h-61v262l-237 488h70z" />
    <glyph glyph-name="Phi" unicode="&#x3a6;" horiz-adv-x="783" 
d="M734 374q0 -75 -20.5 -130.5t-57.5 -91.5t-89.5 -53.5t-115.5 -17.5h-30v-81h-60v81h-31q-63 0 -114.5 17.5t-88.5 53.5t-57.5 91.5t-20.5 130.5q0 76 20 131.5t56.5 91.5t88 53.5t114.5 17.5h33v82h60v-82h28q63 0 115.5 -17.5t90 -53.5t58.5 -91.5t21 -131.5zM421 611
v-473h41q45 0 83.5 14t66 43t43.5 73.5t16 105.5t-16 105.5t-43.5 74t-66 43.5t-83.5 14h-41zM112 374q0 -62 15 -106.5t42 -73t64 -42.5t82 -14h46v473h-40q-45 0 -83.5 -14t-66.5 -43t-43.5 -74t-15.5 -106z" />
    <glyph glyph-name="Chi" unicode="&#x3a7;" horiz-adv-x="616" 
d="M351 390l221 -390h-70l-157 282l-37 72h-3l-37 -72l-153 -282h-72l218 390l-209 360h73l143 -254l38 -71h3l37 71l140 254h71z" />
    <glyph glyph-name="Psi" unicode="&#x3a8;" horiz-adv-x="801" 
d="M370 258h-45q-57 0 -102 18.5t-76.5 52t-48.5 80.5t-17 103v237l60 2v-237q0 -88 46.5 -142.5t135.5 -54.5h47v433h60v-433h47q45 0 79 14t57 40t34.5 62.5t11.5 80.5v237l61 -2v-237q0 -56 -17 -103t-48.5 -80.5t-76.5 -52t-101 -18.5h-47v-258h-60v258z" />
    <glyph glyph-name="uni03A9" unicode="&#x3a9;" horiz-adv-x="663" 
d="M331 761q64 0 113 -18.5t82 -58.5t49.5 -103t16.5 -151q0 -106 -42.5 -203t-130.5 -171v-3h180v-53h-229v75q73 69 116.5 159t43.5 194q0 74 -11.5 126.5t-36 85.5t-62 48t-89.5 15t-89.5 -15t-61.5 -48t-35.5 -85.5t-11.5 -126.5q0 -104 43.5 -194t116.5 -159v-75h-229
v53h179l1 3q-88 73 -130.5 170.5t-42.5 203.5q0 175 66 253t194 78z" />
    <glyph glyph-name="Iotadieresis" unicode="&#x3aa;" horiz-adv-x="286" 
d="M112 750h62v-750h-62v750zM92 843q0 -35 -32 -35q-16 0 -24.5 7.5t-8.5 27.5q0 36 33 36q32 0 32 -36zM262 843q0 -35 -33 -35q-16 0 -24 7.5t-8 27.5q0 36 32 36q33 0 33 -36z" />
    <glyph glyph-name="Upsilondieresis" unicode="&#x3ab;" horiz-adv-x="586" 
d="M97 750l164 -352l33 -74h3l32 74l163 352h67l-234 -488v-262h-61v262l-237 488h70zM240 843q0 -35 -32 -35q-16 0 -24.5 7.5t-8.5 27.5q0 36 33 36q32 0 32 -36zM410 843q0 -35 -33 -35q-16 0 -24 7.5t-8 27.5q0 36 32 36q33 0 33 -36z" />
    <glyph glyph-name="alphatonos" unicode="&#x3ac;" horiz-adv-x="561" 
d="M431 0l-9 66l-3 1q-50 -79 -163 -79q-55 0 -93.5 18t-63 55.5t-36 95.5t-11.5 138q0 84 13.5 142t40 95t65.5 53.5t91 16.5q51 0 93 -20t68 -58h3q1 8 2.5 19.5t3.5 22.5q2 12 3 25h37v-591h-41zM416 465q-8 16 -22 31t-33 26.5t-42 18.5t-49 7q-42 0 -72.5 -12.5
t-50 -41.5t-28.5 -77.5t-9 -120.5q0 -73 8.5 -122.5t27 -79.5t49 -43t75.5 -13q32 0 56.5 7.5t42.5 19.5t29.5 27t17.5 29v344zM314 820l-18 -151h-35l-13 151h66z" />
    <glyph glyph-name="epsilontonos" unicode="&#x3ad;" horiz-adv-x="498" 
d="M460 33q-27 -15 -72.5 -29.5t-107.5 -14.5q-111 0 -165 47t-54 124q0 65 35.5 100.5t96.5 51.5v3q-48 8 -82 43.5t-34 89.5q0 68 51 111t144 43q61 0 106.5 -14.5t72.5 -31.5l-4 -52q-29 15 -72.5 30t-84.5 15q-33 0 -61.5 -5.5t-49 -17.5t-32 -32t-11.5 -50
q0 -54 50.5 -83t161.5 -29v-44q-117 0 -173.5 -28.5t-56.5 -96.5q0 -35 12 -58t34.5 -37.5t53 -20.5t68.5 -6q49 0 92 12.5t75 32.5l7 -53v0zM295 820l-18 -151h-35l-13 151h66z" />
    <glyph glyph-name="etatonos" unicode="&#x3ae;" horiz-adv-x="554" 
d="M423 -143v557q0 71 -36 102t-102 31q-20 0 -41 -5t-40.5 -14.5t-35.5 -24t-26 -32.5v-471h-56v591l40 4l10 -66h3q26 35 68.5 54t90.5 19q85 0 132.5 -45.5t47.5 -142.5v-557h-55zM317 820l-18 -151h-35l-13 151h66z" />
    <glyph glyph-name="iotatonos" unicode="&#x3af;" horiz-adv-x="316" 
d="M157 135q0 -52 23.5 -73.5t63.5 -21.5q11 0 24 2.5t21 6.5l5 -46q-11 -5 -29 -8.5t-36 -3.5q-63 0 -95.5 34.5t-32.5 107.5v457l56 4v-459zM171 820l-18 -151h-35l-13 151h66z" />
    <glyph glyph-name="upsilondieresistonos" unicode="&#x3b0;" horiz-adv-x="545" 
d="M469 177q0 -91 -48 -139.5t-148 -48.5t-148 49t-48 139v415h55v-414q0 -68 36 -101.5t105 -33.5t104.5 33.5t35.5 101.5v414h56v-415zM302 905l-16 -132h-33l-11 132h60zM187 755q0 -36 -32 -36q-15 0 -23 8t-8 28q0 37 31 37q32 0 32 -37zM416 755q0 -36 -32 -36
q-15 0 -23.5 8t-8.5 28q0 37 32 37t32 -37z" />
    <glyph glyph-name="alpha" unicode="&#x3b1;" horiz-adv-x="561" 
d="M431 0l-9 66l-3 1q-50 -79 -163 -79q-55 0 -93.5 18t-63 55.5t-36 95.5t-11.5 138q0 84 13.5 142t40 95t65.5 53.5t91 16.5q51 0 93 -20t68 -58h3q1 8 2.5 19.5t3.5 22.5q2 12 3 25h37v-591h-41zM416 465q-8 16 -22 31t-33 26.5t-42 18.5t-49 7q-42 0 -72.5 -12.5
t-50 -41.5t-28.5 -77.5t-9 -120.5q0 -73 8.5 -122.5t27 -79.5t49 -43t75.5 -13q32 0 56.5 7.5t42.5 19.5t29.5 27t17.5 29v344z" />
    <glyph glyph-name="beta" unicode="&#x3b2;" horiz-adv-x="569" 
d="M89 549q0 127 47 186.5t146 59.5q47 0 82 -13t58.5 -36.5t35 -55.5t11.5 -69q0 -31 -10.5 -57.5t-28 -47t-41 -35t-49.5 -21.5q29 -5 60.5 -20t57 -41.5t42 -66.5t16.5 -94q0 -58 -11.5 -104t-36.5 -78.5t-64.5 -49.5t-96.5 -17q-54 0 -93.5 16.5t-66.5 54.5l-2 -1l1 -83
v-119h-57v692zM145 123q20 -37 58 -60t92 -23q40 0 71 10t51 33.5t30.5 61t10.5 92.5q0 51 -17 87.5t-47.5 60t-73 34.5t-93.5 11v45q41 0 75.5 11.5t59 30.5t38.5 44.5t14 54.5q0 26 -7 49.5t-23 41t-41.5 28t-62.5 10.5q-75 0 -105 -50t-30 -155v-417z" />
    <glyph glyph-name="gamma" unicode="&#x3b3;" horiz-adv-x="564" 
d="M254 -143v126l-215 609h63l155 -462l25 -77h3l23 77l154 462h63l-215 -609v-126h-56z" />
    <glyph glyph-name="delta" unicode="&#x3b4;" horiz-adv-x="556" 
d="M165 654q0 -20 11.5 -36.5t30.5 -31t44 -28.5t53 -30q49 -28 86 -54t62 -56.5t38 -70.5t13 -96q0 -131 -53 -197.5t-170 -66.5t-172 67.5t-55 199.5q0 55 15 97t39 73.5t53 53.5t56 39q-19 9 -38 21.5t-34.5 29t-25.5 37.5t-10 47q0 31 12.5 57t37 45t60 30t80.5 11
q44 0 90 -13t77 -36l-8 -48q-35 24 -75 36t-82 12q-67 0 -101 -26.5t-34 -65.5zM111 256q0 -68 13 -110.5t36 -66.5t54 -32.5t67 -8.5t66.5 10t52 34.5t34 64.5t12.5 100q0 49 -10.5 82.5t-32.5 60t-56 50t-82 52.5q-31 -18 -59 -37.5t-49 -46t-33.5 -63t-12.5 -89.5z" />
    <glyph glyph-name="epsilon" unicode="&#x3b5;" horiz-adv-x="498" 
d="M460 33q-27 -15 -72.5 -29.5t-107.5 -14.5q-111 0 -165 47t-54 124q0 65 35.5 100.5t96.5 51.5v3q-48 8 -82 43.5t-34 89.5q0 68 51 111t144 43q61 0 106.5 -14.5t72.5 -31.5l-4 -52q-29 15 -72.5 30t-84.5 15q-33 0 -61.5 -5.5t-49 -17.5t-32 -32t-11.5 -50
q0 -54 50.5 -83t161.5 -29v-44q-117 0 -173.5 -28.5t-56.5 -96.5q0 -35 12 -58t34.5 -37.5t53 -20.5t68.5 -6q49 0 92 12.5t75 32.5l7 -53v0z" />
    <glyph glyph-name="zeta" unicode="&#x3b6;" horiz-adv-x="472" 
d="M58 215q0 34 8.5 64t24 60t38 61.5t50.5 69.5l152 204l47 61h-299l3 52h362v-43l-212 -285q-32 -44 -54.5 -76t-36.5 -59t-20 -52t-6 -56q0 -46 25 -72t63 -41.5t82 -25t82 -23t63 -35t25 -60.5q0 -35 -9.5 -65t-13.5 -40l-53 6q5 11 12.5 36.5t7.5 46.5q0 32 -25.5 48.5
t-63 27.5t-82 21.5t-82 30t-63 53t-25.5 91.5z" />
    <glyph glyph-name="eta" unicode="&#x3b7;" horiz-adv-x="554" 
d="M423 -143v557q0 71 -36 102t-102 31q-20 0 -41 -5t-40.5 -14.5t-35.5 -24t-26 -32.5v-471h-56v591l40 4l10 -66h3q26 35 68.5 54t90.5 19q85 0 132.5 -45.5t47.5 -142.5v-557h-55z" />
    <glyph glyph-name="theta" unicode="&#x3b8;" horiz-adv-x="575" 
d="M519 394q0 -116 -12 -194t-39.5 -125t-72 -67.5t-108.5 -20.5q-65 0 -109 20.5t-71 67.5t-39 125t-12 194t12 193.5t40 123.5t72 65t109 19q64 0 108 -19t71 -65t39 -123.5t12 -193.5zM288 38q45 0 77 14t52.5 51.5t30 102.5t11.5 167h-345q1 -102 11.5 -167t31.5 -102.5
t53.5 -51.5t77.5 -14zM289 743q-45 0 -77.5 -13.5t-53.5 -49.5t-31.5 -99.5t-12.5 -163.5h345q-2 100 -11.5 163.5t-29.5 99.5t-52 49.5t-77 13.5z" />
    <glyph glyph-name="iota" unicode="&#x3b9;" horiz-adv-x="316" 
d="M157 135q0 -52 23.5 -73.5t63.5 -21.5q11 0 24 2.5t21 6.5l5 -46q-11 -5 -29 -8.5t-36 -3.5q-63 0 -95.5 34.5t-32.5 107.5v457l56 4v-459z" />
    <glyph glyph-name="kappa" unicode="&#x3ba;" horiz-adv-x="515" 
d="M147 346h84l183 246h70l-201 -270l211 -322h-70l-192 295h-85v-295h-56v590l56 4v-248z" />
    <glyph glyph-name="lambda" unicode="&#x3bb;" horiz-adv-x="571" 
d="M174 746q-22 0 -38.5 -4t-30.5 -11l-9 44q17 8 38.5 14t44.5 6q17 0 34.5 -4.5t34 -18t32 -38.5t29.5 -65l229 -669h-64l-152 464l-23 77h-3l-26 -77l-170 -464h-62l229 604l-11 37q-17 58 -36.5 81.5t-45.5 23.5z" />
    <glyph glyph-name="uni03BC" unicode="&#x3bc;" horiz-adv-x="554" 
d="M288 -11q-46 0 -88 19.5t-64 67.5l-2 -1q3 -116 9 -217l-57 -6v740h56v-415q0 -33 11 -58t30.5 -42.5t46 -26.5t57.5 -9q58 0 96.5 30t38.5 90v431h56v-591l-40 -5l-9 61l-3 1q-18 -34 -54.5 -51.5t-83.5 -17.5z" />
    <glyph glyph-name="nu" unicode="&#x3bd;" horiz-adv-x="564" 
d="M525 592l-209 -592h-68l-209 592h63l155 -462l25 -77h3l23 77l154 462h63z" />
    <glyph glyph-name="xi" unicode="&#x3be;" horiz-adv-x="482" 
d="M472 -41q0 -35 -9.5 -65t-13.5 -40l-53 6q5 11 12.5 36.5t7.5 46.5q0 33 -29 51t-98 35q-19 5 -44 11t-51 16.5t-50.5 26t-43.5 40t-31 58t-12 80.5q0 87 40.5 142.5t111.5 78.5v2q-66 19 -99 54.5t-33 95.5q0 34 13.5 63.5t38.5 51t61.5 33.5t82.5 12q61 0 106.5 -14.5
t71.5 -30.5l-4 -51q-15 8 -33.5 16t-39.5 15t-43 11t-44 4q-69 0 -111 -28t-42 -87q0 -118 213 -118h60v-44h-70q-48 0 -88.5 -14t-70.5 -39t-46.5 -61t-16.5 -79q0 -54 14.5 -88t41.5 -55.5t66.5 -34t89.5 -24.5t79 -26t43.5 -29t18.5 -30t4 -28z" />
    <glyph glyph-name="omicron" unicode="&#x3bf;" horiz-adv-x="548" 
d="M495 295q0 -86 -12.5 -144.5t-39.5 -95t-68.5 -52.5t-99.5 -16t-100 16t-69.5 52.5t-40.5 95t-13 144.5q0 85 13.5 143.5t41 95t69.5 52.5t99 16q58 0 99.5 -16t68.5 -52.5t39.5 -95t12.5 -143.5zM110 295q0 -72 9 -121.5t29 -79.5t51.5 -43t75.5 -13t75 13t50.5 43.5
t28.5 79.5t9 121t-9 121t-28.5 79t-50.5 43t-75 13t-75.5 -13t-51.5 -43t-29 -79t-9 -121z" />
    <glyph glyph-name="pi" unicode="&#x3c0;" horiz-adv-x="607" 
d="M410 539h-215v-539h-56v540q-64 -3 -91 -26l-20 46q18 15 50.5 23.5t83.5 8.5h396v-52h-93v-409q0 -25 3 -42t11 -27t21.5 -14t33.5 -4v-47q-37 0 -61 6.5t-38 22t-19.5 41.5t-5.5 64v408z" />
    <glyph glyph-name="rho" unicode="&#x3c1;" horiz-adv-x="560" 
d="M503 298q0 -87 -15 -146.5t-43 -95.5t-68.5 -51.5t-90.5 -15.5q-45 0 -85.5 16t-68.5 55l-2 -1l1 -81v-121h-56v492q0 64 15 112t42 79t65 46.5t84 15.5q52 0 93.5 -14.5t70 -49t43.5 -93.5t15 -147zM446 297q0 73 -11 121.5t-31.5 77.5t-51 41.5t-69.5 12.5
q-78 0 -115 -51.5t-37 -159.5v-216q17 -33 52.5 -58t92.5 -25q40 0 71.5 11.5t53.5 40.5t33.5 78.5t11.5 126.5z" />
    <glyph glyph-name="sigma1" unicode="&#x3c2;" horiz-adv-x="452" 
d="M423 -41q0 -35 -9.5 -65t-13.5 -40l-53 6q2 6 5.5 15.5t6.5 21.5t5.5 24t2.5 22q0 15 -6.5 27t-22.5 23t-43 21.5t-68 24.5q-51 17 -84.5 40t-54 55t-28.5 74t-8 97q0 154 52.5 225t166.5 71q37 0 70.5 -8t60.5 -22l-5 -53q-25 13 -54 21t-61 8q-47 0 -79.5 -13.5
t-53.5 -42.5t-30.5 -75t-9.5 -111q0 -41 4.5 -74t20 -60.5t46.5 -49t84 -39.5q87 -29 123 -58t36 -65z" />
    <glyph glyph-name="sigma" unicode="&#x3c3;" horiz-adv-x="567" 
d="M548 540h-58q-24 0 -47.5 0.5t-42.5 1.5q48 -35 71.5 -97.5t23.5 -141.5q0 -89 -12.5 -149.5t-39.5 -97.5t-68.5 -53t-98.5 -16q-58 0 -100.5 16t-70 52t-40.5 95t-13 145q0 83 15 140t44.5 92.5t73.5 51t101 15.5q45 0 79 -1t71 -1h109zM110 295q0 -72 9 -121t29 -79.5
t51.5 -43.5t76.5 -13q44 0 75 13.5t50.5 44.5t28 82t8.5 125q0 45 -8.5 88t-27.5 76t-48 53.5t-70 20.5q-46 0 -79 -12.5t-54 -41.5t-31 -76t-10 -116z" />
    <glyph glyph-name="tau" unicode="&#x3c4;" horiz-adv-x="506" 
d="M266 540v-405q0 -52 23.5 -73.5t63.5 -21.5q11 0 24 2.5t21 6.5l5 -46q-11 -5 -29 -8.5t-36 -3.5q-63 0 -95.5 34.5t-32.5 107.5v407h-190l3 52h436l3 -52h-196z" />
    <glyph glyph-name="upsilon" unicode="&#x3c5;" horiz-adv-x="545" 
d="M469 177q0 -91 -48 -139.5t-148 -48.5t-148 49t-48 139v415h55v-414q0 -68 36 -101.5t105 -33.5t104.5 33.5t35.5 101.5v414h56v-415z" />
    <glyph glyph-name="phi" unicode="&#x3c6;" horiz-adv-x="796" 
d="M742 309q0 -79 -18 -137t-49.5 -96.5t-75 -57t-93.5 -18.5h-92v-143h-56v143h-8q-73 0 -128.5 16.5t-92.5 52t-56 91t-19 132.5q0 52 8.5 95.5t22.5 80.5t32 68.5t37 58.5l50 -27q-17 -23 -33.5 -51.5t-29.5 -63t-21 -75.5t-8 -89q0 -84 22.5 -131t57 -70.5t76.5 -29
t81 -5.5h9v286q0 140 48.5 201.5t137.5 61.5q43 0 79.5 -17.5t63 -54t41 -91.5t14.5 -130zM684 297q0 126 -34.5 188.5t-108.5 62.5q-39 0 -63.5 -15t-39 -43.5t-19.5 -70t-5 -94.5v-272h78q32 0 66 9t62 35.5t46 74t18 125.5z" />
    <glyph glyph-name="chi" unicode="&#x3c7;" horiz-adv-x="529" 
d="M301 201l-37 72h-3l-38 -72l-112 -201h-65l179 301l-175 291h67l109 -191l38 -71h3l37 71l108 191h65l-173 -289l180 -303h-69z" />
    <glyph glyph-name="psi" unicode="&#x3c8;" horiz-adv-x="790" 
d="M367 -143v143h-29q-130 0 -195.5 72.5t-65.5 201.5v317l55 2v-320q0 -57 16.5 -98.5t44.5 -68.5t63.5 -40t74.5 -13h36v744l55 5v-749h36q38 0 74 13t63.5 40t44.5 68.5t17 98.5v320l56 -2v-317q0 -129 -66 -201.5t-196 -72.5h-29v-143h-55z" />
    <glyph glyph-name="omega" unicode="&#x3c9;" horiz-adv-x="796" 
d="M642 594q19 -29 37 -60.5t32 -69t22.5 -82t8.5 -99.5q0 -154 -51.5 -224.5t-145.5 -70.5q-51 0 -86 23.5t-62 75.5q-26 -52 -61.5 -75.5t-86.5 -23.5q-95 0 -145 70.5t-50 224.5q0 55 8.5 99.5t22.5 82t32 69.5t37 61l50 -27q-16 -23 -32.5 -51.5t-29.5 -63.5t-21.5 -77
t-8.5 -93q0 -70 11.5 -116t30 -73.5t42.5 -38.5t50 -11q57 0 90.5 41t33.5 122v228h56v-228q0 -80 33 -121.5t90 -41.5q25 0 49.5 11t43.5 38.5t30.5 73.5t11.5 116q0 51 -8.5 93t-22 77.5t-29.5 63.5t-32 51l50 26v0z" />
    <glyph glyph-name="iotadieresis" unicode="&#x3ca;" horiz-adv-x="316" 
d="M157 135q0 -52 23.5 -73.5t63.5 -21.5q11 0 24 2.5t21 6.5l5 -46q-11 -5 -29 -8.5t-36 -3.5q-63 0 -95.5 34.5t-32.5 107.5v457l56 4v-459zM104 755q0 -37 -33 -37q-16 0 -24 8.5t-8 28.5q0 38 32 38q33 0 33 -38zM241 755q0 -37 -33 -37q-16 0 -24.5 8.5t-8.5 28.5
q0 38 33 38t33 -38z" />
    <glyph glyph-name="upsilondieresis" unicode="&#x3cb;" horiz-adv-x="545" 
d="M469 177q0 -91 -48 -139.5t-148 -48.5t-148 49t-48 139v415h55v-414q0 -68 36 -101.5t105 -33.5t104.5 33.5t35.5 101.5v414h56v-415zM236 755q0 -37 -33 -37q-16 0 -24 8.5t-8 28.5q0 38 32 38q33 0 33 -38zM373 755q0 -37 -33 -37q-16 0 -24.5 8.5t-8.5 28.5
q0 38 33 38t33 -38z" />
    <glyph glyph-name="omicrontonos" unicode="&#x3cc;" horiz-adv-x="548" 
d="M495 295q0 -86 -12.5 -144.5t-39.5 -95t-68.5 -52.5t-99.5 -16t-100 16t-69.5 52.5t-40.5 95t-13 144.5q0 85 13.5 143.5t41 95t69.5 52.5t99 16q58 0 99.5 -16t68.5 -52.5t39.5 -95t12.5 -143.5zM110 295q0 -72 9 -121.5t29 -79.5t51.5 -43t75.5 -13t75 13t50.5 43.5
t28.5 79.5t9 121t-9 121t-28.5 79t-50.5 43t-75 13t-75.5 -13t-51.5 -43t-29 -79t-9 -121zM312 820l-18 -151h-35l-13 151h66z" />
    <glyph glyph-name="upsilontonos" unicode="&#x3cd;" horiz-adv-x="545" 
d="M469 177q0 -91 -48 -139.5t-148 -48.5t-148 49t-48 139v415h55v-414q0 -68 36 -101.5t105 -33.5t104.5 33.5t35.5 101.5v414h56v-415zM307 820l-18 -151h-35l-13 151h66z" />
    <glyph glyph-name="omegatonos" unicode="&#x3ce;" horiz-adv-x="796" 
d="M642 594q19 -29 37 -60.5t32 -69t22.5 -82t8.5 -99.5q0 -154 -51.5 -224.5t-145.5 -70.5q-51 0 -86 23.5t-62 75.5q-26 -52 -61.5 -75.5t-86.5 -23.5q-95 0 -145 70.5t-50 224.5q0 55 8.5 99.5t22.5 82t32 69.5t37 61l50 -27q-16 -23 -32.5 -51.5t-29.5 -63.5t-21.5 -77
t-8.5 -93q0 -70 11.5 -116t30 -73.5t42.5 -38.5t50 -11q57 0 90.5 41t33.5 122v228h56v-228q0 -80 33 -121.5t90 -41.5q25 0 49.5 11t43.5 38.5t30.5 73.5t11.5 116q0 51 -8.5 93t-22 77.5t-29.5 63.5t-32 51l50 26v0zM432 820l-18 -151h-35l-13 151h66z" />
    <glyph glyph-name="afii10023" unicode="&#x401;" horiz-adv-x="558" 
d="M512 58l-2 -58h-410v750h394l2 -58h-336v-272h291v-54h-291v-308h352zM226 843q0 -35 -32 -35q-16 0 -24.5 7.5t-8.5 27.5q0 36 33 36q32 0 32 -36zM396 843q0 -35 -33 -35q-16 0 -24 7.5t-8 27.5q0 36 32 36q33 0 33 -36z" />
    <glyph glyph-name="afii10051" unicode="&#x402;" horiz-adv-x="712" 
d="M437 -5q-26 0 -48 4t-31 9l5 56q11 -5 32 -9.5t47 -4.5q37 0 67 9.5t51 30t32 53.5t11 80q0 45 -12 76.5t-35.5 51t-57 28t-75.5 8.5h-135v-387h-60v690h-211q1 16 1 30t1 30h480l1 -60h-212v-248h135q122 0 181.5 -52t59.5 -168q0 -112 -54.5 -169.5t-172.5 -57.5z" />
    <glyph glyph-name="afii10052" unicode="&#x403;" horiz-adv-x="513" 
d="M160 690v-690h-60v750h388l1 -60h-329zM395 911l-112 -111h-49l79 111h82z" />
    <glyph glyph-name="afii10053" unicode="&#x404;" horiz-adv-x="549" 
d="M493 671q-26 14 -64 23t-80 9q-53 0 -93.5 -14t-68.5 -47t-43.5 -87t-18.5 -135h311v-54h-311q1 -93 16 -154.5t43 -98.5t70 -52t98 -15q43 0 78.5 9t65.5 26l9 -53q-29 -17 -72 -29t-88 -12q-73 0 -126.5 22.5t-88 70.5t-51 123.5t-16.5 181.5q0 100 17 171.5t52 117.5
t88 67t126 21q21 0 43 -3t43 -7.5t39 -10.5t31 -12z" />
    <glyph glyph-name="afii10054" unicode="&#x405;" horiz-adv-x="506" 
d="M463 204q0 -105 -56 -161t-165 -56q-58 0 -105.5 14.5t-85.5 40.5l11 57q38 -26 81.5 -40t97.5 -14q81 0 122 40.5t41 115.5q0 50 -25.5 80t-64 50.5t-83.5 37t-83.5 40.5t-64 60.5t-25.5 97.5q0 43 13 78.5t39 61.5t65.5 40.5t93.5 14.5q50 0 93 -10t78 -29l-11 -55
q-37 17 -74.5 26.5t-81.5 9.5q-42 0 -71.5 -10.5t-48 -28.5t-27.5 -42.5t-9 -52.5q0 -48 25.5 -76t64 -47.5t83.5 -36t83.5 -41t64 -63.5t25.5 -102z" />
    <glyph glyph-name="afii10055" unicode="&#x406;" horiz-adv-x="286" 
d="M112 750h62v-750h-62v750z" />
    <glyph glyph-name="afii10056" unicode="&#x407;" horiz-adv-x="286" 
d="M112 750h62v-750h-62v750zM92 843q0 -35 -32 -35q-16 0 -24.5 7.5t-8.5 27.5q0 36 33 36q32 0 32 -36zM262 843q0 -35 -33 -35q-16 0 -24 7.5t-8 27.5q0 36 32 36q33 0 33 -36z" />
    <glyph glyph-name="afii10057" unicode="&#x408;" horiz-adv-x="489" 
d="M389 223q0 -118 -56.5 -177t-161.5 -59q-44 0 -78 11t-58 30l7 57q23 -19 53.5 -29.5t69.5 -10.5q77 0 120 43.5t43 135.5v526h61v-527z" />
    <glyph glyph-name="afii10058" unicode="&#x409;" horiz-adv-x="960" 
d="M912 222q0 -59 -12.5 -101t-39.5 -69t-69.5 -39.5t-101.5 -12.5h-210v691h-279v-254q0 -97 -2.5 -168t-9 -120.5t-17.5 -80.5t-27 -48.5t-37.5 -23.5t-49.5 -6q-11 0 -23 2t-21 7l6 56q6 -4 15 -6.5t16 -2.5q17 0 30.5 3.5t23.5 17.5t17 40.5t11 72t6 113.5t2 164v293
h399v-308h146q117 0 172 -51.5t55 -168.5zM851 223q0 91 -40 127.5t-125 36.5h-147v-332h150q40 0 70.5 8t51 27t30.5 51.5t10 81.5z" />
    <glyph glyph-name="afii10059" unicode="&#x40a;" horiz-adv-x="1001" 
d="M953 222q0 -59 -12.5 -101t-39.5 -69t-69.5 -39.5t-101.5 -12.5h-221v383h-349v-383h-60v750h60v-310h349v310h60v-308h157q117 0 172 -51.5t55 -168.5zM892 223q0 91 -40 127.5t-125 36.5h-158v-332h161q40 0 70.5 8t51 27t30.5 51.5t10 81.5z" />
    <glyph glyph-name="afii10060" unicode="&#x40b;" horiz-adv-x="748" 
d="M288 690v-291q43 14 83.5 22t87.5 8q114 0 165 -51t51 -167v-211h-60v204q0 47 -9.5 79t-28.5 51.5t-49 28t-70 8.5q-49 0 -90.5 -7.5t-79.5 -18.5v-345h-60v690h-211l2 60h479l1 -60h-211z" />
    <glyph glyph-name="afii10061" unicode="&#x40c;" horiz-adv-x="620" 
d="M512 0l-243 365h-109v-365h-60v750h60v-330h108l233 330h75l-251 -355l265 -395h-78zM424 911l-112 -111h-49l79 111h82z" />
    <glyph glyph-name="afii10062" unicode="&#x40e;" horiz-adv-x="606" 
d="M351 140q-16 -39 -33.5 -67t-39 -45.5t-49 -25.5t-62.5 -8q-15 0 -29.5 3t-23.5 6l5 52q10 -3 20 -5t21 -2q37 0 66.5 14.5t51.5 65.5l6 15l-247 607h69l211 -546h2l211 546h67zM448 911q0 -56 -32.5 -86t-99.5 -30q-133 0 -133 116h44q0 -44 26 -62t63 -18q39 0 63.5 18
t23.5 62h45z" />
    <glyph glyph-name="afii10145" unicode="&#x40f;" horiz-adv-x="679" 
d="M310 -143v143h-210v750h60v-691h359v691h60v-750h-209v-143h-60z" />
    <glyph glyph-name="afii10017" unicode="&#x410;" horiz-adv-x="623" 
d="M469 200h-317l-63 -200h-65l251 750h74l251 -750h-68zM288 625l-118 -369h281l-115 369l-22 78h-3z" />
    <glyph glyph-name="afii10018" unicode="&#x411;" horiz-adv-x="586" 
d="M160 690v-248h145q117 0 172 -51.5t55 -168.5q0 -59 -12.5 -101t-39.5 -69t-69.5 -39.5t-101.5 -12.5h-209v750h365l1 -60h-306zM471 223q0 91 -40 127.5t-125 36.5h-146v-332h148q41 0 71.5 8t51 27t30.5 51.5t10 81.5z" />
    <glyph glyph-name="afii10019" unicode="&#x412;" horiz-adv-x="613" 
d="M549 210q0 -101 -48 -155.5t-161 -54.5h-240v750h228q97 0 145 -43t48 -140q0 -75 -29.5 -115t-75.5 -54v-2q61 -13 97 -56.5t36 -129.5zM489 214q0 81 -37.5 116.5t-115.5 35.5h-178v-311h183q70 0 109 35t39 124zM462 556q0 77 -33 107.5t-103 30.5h-168v-277h174
q67 0 98.5 34.5t31.5 104.5z" />
    <glyph glyph-name="afii10020" unicode="&#x413;" horiz-adv-x="513" 
d="M160 690v-690h-60v750h388l1 -60h-329z" />
    <glyph glyph-name="afii10021" unicode="&#x414;" horiz-adv-x="644" 
d="M547 59h65v-180h-61v121h-493v-121h-61v164q50 29 86 65t59.5 92.5t34.5 141t11 210.5v198h359v-691zM487 57v634h-239v-152q0 -180 -33.5 -303.5t-118.5 -178.5h391z" />
    <glyph glyph-name="afii10022" unicode="&#x415;" horiz-adv-x="558" 
d="M512 58l-2 -58h-410v750h394l2 -58h-336v-272h291v-54h-291v-308h352z" />
    <glyph glyph-name="afii10024" unicode="&#x416;" horiz-adv-x="980" 
d="M30 0l265 395l-251 355h73l235 -330h108v330h60v-330h108l233 330h75l-251 -355l265 -395h-77l-244 365h-109v-365h-60v365h-109l-243 -365h-78z" />
    <glyph glyph-name="afii10025" unicode="&#x417;" horiz-adv-x="550" 
d="M486 214q0 -52 -14 -93.5t-44.5 -70t-78.5 -43.5t-115 -15q-66 0 -111.5 14t-76.5 36l10 52q71 -46 177 -46q100 0 146.5 45t46.5 125q0 82 -58.5 116t-172.5 34v55q49 0 87.5 7t65.5 24t41 46t14 73q0 71 -43 101t-115 30q-57 0 -102 -22.5t-77 -57.5l-17 54
q14 16 34.5 31t46 27t55 19t61.5 7q101 0 158 -46.5t57 -137.5q0 -73 -35 -117.5t-92 -61.5v-2q78 -16 115 -60.5t37 -122.5z" />
    <glyph glyph-name="afii10026" unicode="&#x418;" horiz-adv-x="693" 
d="M100 0v750h60v-540l-2 -80l2 -1l40 68l338 553h55v-750h-60v559l1 81l-2 1l-38 -71l-354 -570h-40z" />
    <glyph glyph-name="afii10027" unicode="&#x419;" horiz-adv-x="693" 
d="M100 0v750h60v-540l-2 -80l2 -1l40 68l338 553h55v-750h-60v559l1 81l-2 1l-38 -71l-354 -570h-40zM475 911q0 -56 -32.5 -86t-99.5 -30q-133 0 -133 116h44q0 -44 26 -62t63 -18q39 0 63.5 18t23.5 62h45z" />
    <glyph glyph-name="afii10028" unicode="&#x41a;" horiz-adv-x="620" 
d="M512 0l-243 365h-109v-365h-60v750h60v-330h108l233 330h75l-251 -355l265 -395h-78z" />
    <glyph glyph-name="afii10029" unicode="&#x41b;" horiz-adv-x="639" 
d="M479 0v691h-279v-254q0 -97 -2.5 -168t-9 -120.5t-17.5 -80.5t-27 -48.5t-37.5 -23.5t-49.5 -6q-11 0 -23 2t-21 7l6 56q6 -4 15 -6.5t16 -2.5q17 0 30.5 3.5t23.5 17.5t17 40.5t11 72t6 113.5t2 164v293h399v-750h-60z" />
    <glyph glyph-name="afii10030" unicode="&#x41c;" horiz-adv-x="816" 
d="M171 750l210 -584l26 -76h3l25 76l210 584h71v-750h-55v561l2 81l-3 1l-26 -77l-204 -566h-46l-204 563l-26 77l-2 -1l1 -81v-558h-53v750h71z" />
    <glyph glyph-name="afii10031" unicode="&#x41d;" horiz-adv-x="679" 
d="M519 0v363h-359v-363h-60v750h60v-328h359v328h60v-750h-60z" />
    <glyph glyph-name="afii10032" unicode="&#x41e;" horiz-adv-x="661" 
d="M598 375q0 -107 -14.5 -181t-46 -120t-82.5 -66.5t-124 -20.5q-72 0 -123 20.5t-83.5 66.5t-47 120t-14.5 181t14.5 181t46.5 119.5t83 66t124 20.5t124 -20.5t82.5 -66t46 -119.5t14.5 -181zM535 375q0 98 -11 161.5t-35.5 100.5t-63.5 51.5t-94 14.5t-94 -14.5
t-63.5 -51.5t-36 -100.5t-11.5 -161.5t11.5 -161.5t36 -101t63.5 -52t94 -14.5t94 14.5t63.5 52t35.5 101t11 161.5z" />
    <glyph glyph-name="afii10033" unicode="&#x41f;" horiz-adv-x="679" 
d="M519 0v691h-359v-691h-60v750h479v-750h-60z" />
    <glyph glyph-name="afii10034" unicode="&#x420;" horiz-adv-x="581" 
d="M533 530q0 -116 -52 -169t-171 -53h-150v-308h-60v750h210q116 0 169.5 -50t53.5 -170zM472 531q0 91 -39 127t-123 36h-150v-332h150q40 0 70.5 8t51 27.5t30.5 52t10 81.5z" />
    <glyph glyph-name="afii10035" unicode="&#x421;" horiz-adv-x="547" 
d="M493 671q-27 14 -64.5 23t-78.5 9q-57 0 -99 -15.5t-69.5 -52t-41.5 -98t-14 -153.5q0 -99 14 -164t42 -103.5t70.5 -54.5t99.5 -16q43 0 78 9t66 26l9 -53q-29 -17 -72 -29t-88 -12q-73 0 -126.5 22.5t-88 70.5t-51 123.5t-16.5 180.5q0 101 17 172.5t52 117.5t88.5 67
t126.5 21q42 0 85.5 -10t69.5 -24z" />
    <glyph glyph-name="afii10036" unicode="&#x422;" horiz-adv-x="516" 
d="M288 690v-690h-60v690h-211l2 60h479l1 -60h-211z" />
    <glyph glyph-name="afii10037" unicode="&#x423;" horiz-adv-x="606" 
d="M351 140q-16 -39 -33.5 -67t-39 -45.5t-49 -25.5t-62.5 -8q-15 0 -29.5 3t-23.5 6l5 52q10 -3 20 -5t21 -2q37 0 66.5 14.5t51.5 65.5l6 15l-247 607h69l211 -546h2l211 546h67z" />
    <glyph glyph-name="afii10038" unicode="&#x424;" horiz-adv-x="783" 
d="M734 374q0 -75 -20.5 -130.5t-57.5 -91.5t-89.5 -53.5t-115.5 -17.5h-30v-81h-60v81h-31q-63 0 -114.5 17.5t-88.5 53.5t-57.5 91.5t-20.5 130.5q0 76 20 131.5t56.5 91.5t88 53.5t114.5 17.5h33v82h60v-82h28q63 0 115.5 -17.5t90 -53.5t58.5 -91.5t21 -131.5zM421 611
v-473h41q45 0 83.5 14t66 43t43.5 73.5t16 105.5t-16 105.5t-43.5 74t-66 43.5t-83.5 14h-41zM112 374q0 -62 15 -106.5t42 -73t64 -42.5t82 -14h46v473h-40q-45 0 -83.5 -14t-66.5 -43t-43.5 -74t-15.5 -106z" />
    <glyph glyph-name="afii10039" unicode="&#x425;" horiz-adv-x="616" 
d="M351 390l221 -390h-70l-157 282l-37 72h-3l-37 -72l-153 -282h-72l218 390l-209 360h73l143 -254l38 -71h3l37 71l140 254h71z" />
    <glyph glyph-name="afii10040" unicode="&#x426;" horiz-adv-x="676" 
d="M584 -121v121h-484v750h60v-691h359v691h60v-691h66v-180h-61z" />
    <glyph glyph-name="afii10041" unicode="&#x427;" horiz-adv-x="643" 
d="M483 0v352q-41 -14 -85 -22t-84 -8q-114 0 -175 55t-61 169v204h61v-202q0 -89 42.5 -128t132.5 -39q48 0 91 7t78 17v345h60v-750h-60z" />
    <glyph glyph-name="afii10042" unicode="&#x428;" horiz-adv-x="978" 
d="M519 750v-691h299v691h60v-750h-778v750h60v-691h299v691h60z" />
    <glyph glyph-name="afii10043" unicode="&#x429;" horiz-adv-x="976" 
d="M883 -126v126h-783v750h60v-691h299v691h60v-691h299v691h60v-691h67v-185h-62z" />
    <glyph glyph-name="afii10044" unicode="&#x42a;" horiz-adv-x="709" 
d="M288 750v-308h146q117 0 172 -51.5t55 -168.5q0 -59 -12.5 -101t-39.5 -69t-69.5 -39.5t-101.5 -12.5h-210v690h-211l2 60h269zM600 223q0 91 -40 127.5t-125 36.5h-147v-332h150q40 0 70.5 8t51 27t30.5 51.5t10 81.5z" />
    <glyph glyph-name="afii10045" unicode="&#x42b;" horiz-adv-x="833" 
d="M533 222q0 -59 -12.5 -101t-39.5 -69t-69.5 -39.5t-101.5 -12.5h-210v750h60v-308h146q117 0 172 -51.5t55 -168.5zM472 223q0 91 -40 127.5t-125 36.5h-147v-332h150q40 0 70.5 8t51 27t30.5 51.5t10 81.5zM661 750h62v-750h-62v750z" />
    <glyph glyph-name="afii10046" unicode="&#x42c;" horiz-adv-x="581" 
d="M533 222q0 -59 -12.5 -101t-39.5 -69t-69.5 -39.5t-101.5 -12.5h-210v750h60v-308h146q117 0 172 -51.5t55 -168.5zM472 223q0 91 -40 127.5t-125 36.5h-147v-332h150q40 0 70.5 8t51 27t30.5 51.5t10 81.5z" />
    <glyph glyph-name="afii10047" unicode="&#x42d;" horiz-adv-x="550" 
d="M114 420h311q-5 81 -20.5 135.5t-43 87t-67.5 46.5t-93 14q-43 0 -77.5 -9t-63.5 -22l-9 55q25 13 69 24t89 11q73 0 125.5 -22.5t86.5 -70.5t50 -123.5t16 -181.5q0 -101 -17.5 -172t-52.5 -117t-88.5 -67t-126.5 -21q-46 0 -88 11.5t-72 28.5l9 55q29 -17 66 -26.5
t82 -9.5q57 0 99 15.5t70.5 52.5t43 98.5t14.5 153.5h-312v54z" />
    <glyph glyph-name="afii10048" unicode="&#x42e;" horiz-adv-x="944" 
d="M881 375q0 -107 -14.5 -181t-46 -120t-82.5 -66.5t-124 -20.5q-71 0 -121.5 20t-83 64.5t-47.5 116t-16 175.5h-186v-363h-60v750h60v-328h187q3 93 19.5 158t48.5 105.5t81 58.5t118 18q73 0 124 -20.5t82.5 -66t46 -119.5t14.5 -181zM818 375q0 98 -11 161.5
t-35.5 100.5t-63.5 51.5t-94 14.5t-94 -14.5t-63.5 -51.5t-36 -100.5t-11.5 -161.5t11.5 -161.5t36 -101t63.5 -52t94 -14.5t94 14.5t63.5 52t35.5 101t11 161.5z" />
    <glyph glyph-name="afii10049" unicode="&#x42f;" horiz-adv-x="586" 
d="M71 548q0 104 49.5 153t153.5 49h212v-750h-60v342h-154l-170 -342h-71q53 97 93 174q17 32 33.5 63.5t29.5 56.5q15 29 29 55q-71 11 -108 57.5t-37 141.5zM133 547q0 -84 35 -119t109 -35h149v301h-153q-71 0 -105.5 -32.5t-34.5 -114.5z" />
    <glyph glyph-name="afii10065" unicode="&#x430;" horiz-adv-x="514" 
d="M390 81l-3 1q-22 -42 -65.5 -66t-99.5 -24q-73 0 -118 43t-45 142q0 86 47.5 131t145.5 45q36 0 70 -7.5t60 -18.5v80q0 42 -8 70t-25 44.5t-42.5 23.5t-60.5 7q-41 0 -77.5 -8.5t-71.5 -27.5l-7 50q76 38 165 38q48 0 83 -11t57 -35.5t32.5 -63.5t10.5 -96v-398h-43z
M382 282q-11 8 -42.5 17.5t-78.5 9.5q-78 0 -113.5 -34.5t-35.5 -97.5q0 -38 9.5 -64t26 -42t39.5 -23t50 -7q29 0 55 10t46 26.5t32 37t12 42.5v125z" />
    <glyph glyph-name="afii10066" unicode="&#x431;" horiz-adv-x="552" 
d="M500 280q0 -92 -18 -149.5t-48 -89.5t-70 -43t-84 -11q-75 0 -119.5 29.5t-68 83t-30.5 127t-7 162.5q0 106 20 181.5t58.5 124t95 71t128.5 22.5h100l3 -52h-95q-43 0 -83 -8.5t-73 -35.5t-57.5 -78t-36.5 -136l2 -2q10 13 24 29t35 30.5t51 24.5t72 10
q98 0 149.5 -68.5t51.5 -221.5zM443 283q0 75 -12 121t-34 71t-51.5 33.5t-64.5 8.5q-28 0 -53 -9.5t-46 -25t-38 -35.5t-29 -42q-1 -2 -1 -6v-29q0 -74 5 -135t22.5 -105t50 -68t88.5 -24q85 0 124 56.5t39 188.5z" />
    <glyph glyph-name="afii10067" unicode="&#x432;" horiz-adv-x="524" 
d="M475 166q0 -81 -44 -123.5t-142 -42.5h-203v592h192q85 0 129.5 -34t44.5 -109q0 -57 -23 -89.5t-69 -44.5v-1q56 -11 85.5 -45.5t29.5 -102.5zM418 170q0 62 -32 89.5t-94 27.5h-150v-236h154q58 0 90 26.5t32 92.5zM395 441q0 57 -28 78.5t-85 21.5h-140v-209h144
q109 0 109 109z" />
    <glyph glyph-name="afii10068" unicode="&#x433;" horiz-adv-x="391" 
d="M86 0v592h273l3 -52h-220v-540h-56z" />
    <glyph glyph-name="afii10069" unicode="&#x434;" horiz-adv-x="557" 
d="M455 52h61v-166h-56v114h-403v-114h-56v155q55 24 86.5 70t46.5 101t18.5 113.5t3.5 108.5v158h299v-540zM399 52v488h-187v-109q0 -145 -28 -239.5t-87 -139.5h302z" />
    <glyph glyph-name="afii10070" unicode="&#x435;" horiz-adv-x="517" 
d="M289 -11q-63 0 -108 18t-73.5 57t-42 101.5t-13.5 151.5q0 285 211 285q45 0 82.5 -15t64.5 -48t41.5 -84.5t14.5 -124.5v-15t-1 -15h-356q1 -74 12.5 -123.5t34 -79.5t57 -42.5t82.5 -12.5q42 0 76.5 10t67.5 30l8 -51q-34 -20 -72.5 -31t-85.5 -11zM414 342
q0 58 -11.5 98t-31.5 64.5t-47 35t-60 10.5q-79 0 -115.5 -51t-40.5 -157h306z" />
    <glyph glyph-name="afii10072" unicode="&#x436;" horiz-adv-x="792" 
d="M368 592h56v-246h84l183 246h70l-201 -270l211 -322h-70l-192 295h-85v-295h-56v295h-85l-192 -295h-70l211 322l-201 270h70l183 -246h84v246z" />
    <glyph glyph-name="afii10073" unicode="&#x437;" horiz-adv-x="472" 
d="M415 166q0 -83 -52 -129.5t-162 -46.5q-58 0 -100.5 14t-69.5 34l11 51q28 -20 66.5 -33t92.5 -13q85 0 121 35.5t36 91.5q0 61 -50 89t-150 28v45q40 0 73 6t56.5 20.5t36 37.5t12.5 58q0 28 -10 46.5t-27.5 29.5t-41.5 15.5t-51 4.5q-49 0 -87.5 -16.5t-65.5 -39.5
l-17 47q26 23 71.5 42t99.5 19q83 0 133.5 -37t50.5 -109q0 -58 -26.5 -93.5t-72.5 -49.5q63 -13 93 -48.5t30 -98.5z" />
    <glyph glyph-name="afii10074" unicode="&#x438;" horiz-adv-x="577" 
d="M86 0v592h56v-419l-3 -68l3 -1l34 57l267 431h48v-592h-56v422l2 66l-3 2l-32 -53l-270 -437h-46z" />
    <glyph glyph-name="afii10075" unicode="&#x439;" horiz-adv-x="577" 
d="M86 0v592h56v-419l-3 -68l3 -1l34 57l267 431h48v-592h-56v422l2 66l-3 2l-32 -53l-270 -437h-46zM411 808q0 -69 -29.5 -107.5t-89.5 -38.5t-89.5 37t-29.5 109h41q0 -56 22 -82.5t56 -26.5q35 0 56 26.5t21 82.5h42z" />
    <glyph glyph-name="afii10076" unicode="&#x43a;" horiz-adv-x="515" 
d="M147 346h84l183 246h70l-201 -270l211 -322h-70l-192 295h-85v-295h-56v590l56 4v-248z" />
    <glyph glyph-name="afii10077" unicode="&#x43b;" horiz-adv-x="533" 
d="M391 0v540h-210v-196q0 -113 -4 -182t-16.5 -106.5t-35 -50.5t-59.5 -13q-10 0 -25 2.5t-23 7.5l4 45q5 -3 14.5 -5.5t17.5 -2.5q22 0 35.5 8t21.5 40t11 97.5t3 179.5v228h322v-592h-56z" />
    <glyph glyph-name="afii10078" unicode="&#x43c;" horiz-adv-x="683" 
d="M154 592l167 -446l20 -60h3l20 60l168 446h65v-592h-54v425l2 64l-3 1l-20 -61l-162 -429h-37l-163 426l-20 60l-2 -1l1 -63v-422h-53v592h68z" />
    <glyph glyph-name="afii10079" unicode="&#x43d;" horiz-adv-x="564" 
d="M422 0v284h-280v-284h-56v592h56v-256h280v256h56v-592h-56z" />
    <glyph glyph-name="afii10080" unicode="&#x43e;" horiz-adv-x="548" 
d="M495 295q0 -86 -12.5 -144.5t-39.5 -95t-68.5 -52.5t-99.5 -16t-100 16t-69.5 52.5t-40.5 95t-13 144.5q0 85 13.5 143.5t41 95t69.5 52.5t99 16q58 0 99.5 -16t68.5 -52.5t39.5 -95t12.5 -143.5zM110 295q0 -72 9 -121.5t29 -79.5t51.5 -43t75.5 -13t75 13t50.5 43.5
t28.5 79.5t9 121t-9 121t-28.5 79t-50.5 43t-75 13t-75.5 -13t-51.5 -43t-29 -79t-9 -121z" />
    <glyph glyph-name="afii10081" unicode="&#x43f;" horiz-adv-x="564" 
d="M422 0v540h-280v-540h-56v592h392v-592h-56z" />
    <glyph glyph-name="afii10082" unicode="&#x440;" horiz-adv-x="558" 
d="M506 297q0 -85 -14 -144t-41 -95.5t-65.5 -52.5t-87.5 -16q-46 0 -85.5 16t-67.5 55l-2 -1l1 -81v-121h-58v733l41 3l12 -65h3q26 35 68 54.5t94 19.5q48 0 86 -14.5t63.5 -49.5t39 -93.5t13.5 -147.5zM449 298q0 75 -10.5 123.5t-30.5 76t-49.5 38.5t-66.5 11
q-49 0 -87 -20.5t-61 -58.5v-345q17 -33 52.5 -58t90.5 -25q36 0 66 11t51 40t33 79t12 128z" />
    <glyph glyph-name="afii10083" unicode="&#x441;" horiz-adv-x="450" 
d="M397 518q-24 13 -53.5 21t-61.5 8q-46 0 -78.5 -13t-53.5 -42t-30.5 -75t-9.5 -112q0 -75 10.5 -125.5t32 -81.5t53.5 -44.5t74 -13.5q69 0 121 38l5 -50q-23 -18 -58.5 -29.5t-77.5 -11.5q-55 0 -96 17t-68 55t-40.5 98.5t-13.5 146.5q0 155 53 226t167 71q36 0 70 -8.5
t60 -21.5z" />
    <glyph glyph-name="afii10084" unicode="&#x442;" horiz-adv-x="476" 
d="M266 539v-539h-56v539h-190l2 53h432l2 -53h-190z" />
    <glyph glyph-name="afii10085" unicode="&#x443;" horiz-adv-x="564" 
d="M169 -106q32 0 56 17.5t44 66.5l3 12l-233 602h66l169 -464l26 -76h3l21 78l140 462h61l-199 -613q-24 -74 -61.5 -103t-86.5 -29q-21 0 -41 5t-36 13l7 46q15 -9 30.5 -13t30.5 -4z" />
    <glyph glyph-name="afii10086" unicode="&#x444;" horiz-adv-x="887" 
d="M472 530q26 32 67 52t92 20q48 0 86 -14.5t64 -49.5t39.5 -93.5t13.5 -147.5q0 -85 -14.5 -144t-41.5 -95.5t-65.5 -52.5t-87.5 -16q-46 0 -85.5 16t-67.5 55l-2 -1l1 -81v-121h-56v122l2 81l-2 1q-26 -34 -67 -53t-90 -19q-48 0 -86 16t-64.5 52t-40.5 94.5t-14 144.5
q0 81 12 139t37 95t63.5 54.5t92.5 17.5q47 0 88.5 -18t69.5 -56l2 1l-2 80v190l55 4v-192l-1 -80zM777 298q0 76 -10.5 125t-30.5 77t-49.5 38.5t-66.5 10.5q-49 0 -87.5 -21t-61.5 -59v-346q17 -33 53 -58.5t93 -25.5q36 0 65.5 11t50.5 40.5t32.5 79.5t11.5 128zM416 469
q-20 36 -58 57t-86 21q-43 0 -73.5 -12t-50 -41.5t-28.5 -77.5t-9 -120q0 -73 9.5 -122t29 -79t49 -42.5t70.5 -12.5q32 0 58.5 9t45.5 22.5t30 30.5t13 33v334z" />
    <glyph glyph-name="afii10087" unicode="&#x445;" horiz-adv-x="529" 
d="M301 201l-37 72h-3l-38 -72l-112 -201h-65l179 301l-175 291h67l109 -191l38 -71h3l37 71l108 191h65l-173 -289l180 -303h-69z" />
    <glyph glyph-name="afii10088" unicode="&#x446;" horiz-adv-x="580" 
d="M483 -114v114h-397v592h56v-540h280v540h56v-540h61v-166h-56z" />
    <glyph glyph-name="afii10089" unicode="&#x447;" horiz-adv-x="532" 
d="M390 0v272q-31 -11 -63.5 -17.5t-63.5 -6.5q-50 0 -88 10t-64 32.5t-39 59.5t-13 90v152h56v-160q0 -70 34 -101.5t111 -31.5q38 0 71 6t59 14v273h56v-592h-56z" />
    <glyph glyph-name="afii10090" unicode="&#x448;" horiz-adv-x="802" 
d="M86 0v592h56v-540h231v540h56v-540h231v540h56v-592h-630z" />
    <glyph glyph-name="afii10091" unicode="&#x449;" horiz-adv-x="818" 
d="M721 -114v114h-635v592h56v-540h231v540h56v-540h231v540h56v-540h61v-166h-56z" />
    <glyph glyph-name="afii10092" unicode="&#x44a;" horiz-adv-x="630" 
d="M266 592v-241h133q102 0 148.5 -40t46.5 -135q0 -93 -45.5 -134.5t-149.5 -41.5h-189v539h-190l2 53h244zM537 177q0 68 -31.5 96t-101.5 28h-138v-250h137q68 0 101 27.5t33 98.5z" />
    <glyph glyph-name="afii10093" unicode="&#x44b;" horiz-adv-x="733" 
d="M473 176q0 -93 -45.5 -134.5t-149.5 -41.5h-189v592h56v-241h133q102 0 148.5 -40t46.5 -135zM416 177q0 68 -31.5 96t-101.5 28h-138v-250h137q68 0 101 27.5t33 98.5zM583 0v590l56 4v-594h-56z" />
    <glyph glyph-name="afii10094" unicode="&#x44c;" horiz-adv-x="506" 
d="M470 176q0 -93 -45.5 -134.5t-149.5 -41.5h-189v592h56v-241h133q102 0 148.5 -40t46.5 -135zM413 177q0 68 -31.5 96t-101.5 28h-138v-250h137q68 0 101 27.5t33 98.5z" />
    <glyph glyph-name="afii10095" unicode="&#x44d;" horiz-adv-x="464" 
d="M49 74q16 -8 31.5 -14t33 -10.5t38.5 -7t47 -2.5q46 0 76.5 17.5t48 49.5t24.5 77.5t7 101.5h-220v46h220q-6 115 -44 165.5t-121 50.5q-36 0 -71.5 -11t-60.5 -25l-9 51q29 17 67.5 27t80.5 10q31 0 68.5 -8.5t70 -39t54.5 -89.5t22 -160q0 -60 -7 -117t-29.5 -101
t-65.5 -71t-114 -27q-54 0 -88.5 10.5t-63.5 24.5z" />
    <glyph glyph-name="afii10096" unicode="&#x44e;" horiz-adv-x="792" 
d="M738 295q0 -86 -12.5 -144.5t-39.5 -95t-68.5 -52.5t-99.5 -16q-57 0 -98.5 15.5t-69 50.5t-41 91.5t-14.5 139.5h-153v-284h-56v592h56v-256h154q3 73 18 124t42 82.5t67.5 45.5t94.5 14q58 0 99.5 -16t68.5 -52.5t39.5 -95t12.5 -143.5zM353 295q0 -72 9 -121.5
t29 -79.5t51.5 -43t75.5 -13t75 13t50.5 43.5t28.5 79.5t9 121t-9 121t-28.5 79t-50.5 43t-75 13t-75.5 -13t-51.5 -43t-29 -79t-9 -121z" />
    <glyph glyph-name="afii10097" unicode="&#x44f;" horiz-adv-x="522" 
d="M72 430q0 162 187 162h177v-592h-56v265h-127l-146 -265h-66l156 268q-64 8 -94.5 49t-30.5 113zM130 428q0 -66 29 -91.5t89 -25.5h132v230h-129q-59 0 -90 -24.5t-31 -88.5z" />
    <glyph glyph-name="afii10071" unicode="&#x451;" horiz-adv-x="517" 
d="M289 -11q-63 0 -108 18t-73.5 57t-42 101.5t-13.5 151.5q0 285 211 285q45 0 82.5 -15t64.5 -48t41.5 -84.5t14.5 -124.5v-15t-1 -15h-356q1 -74 12.5 -123.5t34 -79.5t57 -42.5t82.5 -12.5q42 0 76.5 10t67.5 30l8 -51q-34 -20 -72.5 -31t-85.5 -11zM414 342
q0 58 -11.5 98t-31.5 64.5t-47 35t-60 10.5q-79 0 -115.5 -51t-40.5 -157h306zM222 755q0 -37 -33 -37q-16 0 -24 8.5t-8 28.5q0 38 32 38q33 0 33 -38zM359 755q0 -37 -33 -37q-16 0 -24.5 8.5t-8.5 28.5q0 38 33 38t33 -38z" />
    <glyph glyph-name="afii10099" unicode="&#x452;" horiz-adv-x="559" 
d="M482 -19q0 -75 -32 -104t-83 -29q-14 0 -30 3.5t-28 8.5l5 44q9 -4 19.5 -6.5t21.5 -2.5q32 0 52 20t20 67v433q0 63 -33.5 97.5t-103.5 34.5q-50 0 -88.5 -22.5t-55.5 -54.5v-470h-56v662h-84v38h84v97l56 5v-102h94v-38h-94v-51l-1 -80l2 -1q27 35 68 53.5t90 18.5
q87 0 132 -47t45 -140v-434z" />
    <glyph glyph-name="afii10100" unicode="&#x453;" horiz-adv-x="391" 
d="M86 0v592h273l3 -52h-220v-540h-56zM298 808l-99 -139h-45l72 139h72z" />
    <glyph glyph-name="afii10101" unicode="&#x454;" horiz-adv-x="464" 
d="M408 521q-33 14 -63.5 21.5t-67.5 7.5q-89 0 -127 -50t-40 -166h219v-46h-220q1 -69 11.5 -116t30.5 -76t50.5 -41.5t72.5 -12.5q37 0 72 11.5t67 30.5l9 -52q-31 -19 -67 -31t-82 -12q-56 0 -97.5 17.5t-69 55.5t-41 98.5t-13.5 146.5q0 155 54.5 225t170.5 70
q39 0 71 -8t64 -22z" />
    <glyph glyph-name="afii10102" unicode="&#x455;" horiz-adv-x="441" 
d="M395 164q0 -83 -43 -129.5t-136 -46.5q-47 0 -89 12.5t-71 37.5l8 52q29 -25 69.5 -38t80.5 -13q68 0 98.5 33t30.5 87q0 40 -21 64t-53 40t-68.5 29t-68.5 31.5t-53 47.5t-21 77q0 73 45.5 113.5t132.5 40.5q76 0 138 -32l-6 -51q-66 32 -133 32q-57 0 -90 -27t-33 -73
q0 -37 21 -58.5t52.5 -36t68 -27t68 -31.5t52.5 -50.5t21 -83.5z" />
    <glyph glyph-name="afii10103" unicode="&#x456;" horiz-adv-x="280" 
d="M112 0v590l56 4v-594h-56zM183 752q0 -40 -42 -40q-21 0 -32 8.5t-11 31.5q0 40 43 40q42 0 42 -40z" />
    <glyph glyph-name="afii10104" unicode="&#x457;" horiz-adv-x="280" 
d="M112 0v590l56 4v-594h-56zM105 755q0 -37 -33 -37q-16 0 -24 8.5t-8 28.5q0 38 32 38q33 0 33 -38zM242 755q0 -37 -33 -37q-16 0 -24.5 8.5t-8.5 28.5q0 38 33 38t33 -38z" />
    <glyph glyph-name="afii10105" unicode="&#x458;" horiz-adv-x="277" 
d="M166 -19q0 -75 -32.5 -104t-83.5 -29q-14 0 -30 3.5t-28 8.5l5 44q9 -4 19.5 -6.5t21.5 -2.5q32 0 52 20t20 67v608l56 4v-613zM180 754q0 -40 -43 -40q-21 0 -32 8.5t-11 31.5q0 41 43 41t43 -41z" />
    <glyph glyph-name="afii10106" unicode="&#x459;" horiz-adv-x="809" 
d="M773 176q0 -93 -45.5 -134.5t-149.5 -41.5h-189v540h-208v-196q0 -113 -4 -182t-16.5 -106.5t-35 -50.5t-59.5 -13q-10 0 -25 2.5t-23 7.5l4 45q5 -3 14.5 -5.5t17.5 -2.5q22 0 35.5 8t21.5 40t11 97.5t3 179.5v228h320v-241h133q102 0 148.5 -40t46.5 -135zM716 177
q0 68 -31.5 96t-101.5 28h-138v-250h137q68 0 101 27.5t33 98.5z" />
    <glyph glyph-name="afii10107" unicode="&#x45a;" horiz-adv-x="837" 
d="M801 176q0 -93 -45.5 -134.5t-149.5 -41.5h-189v298h-275v-298h-56v592h56v-244h275v244h56v-241h133q102 0 148.5 -40t46.5 -135zM744 177q0 68 -31.5 96t-101.5 28h-138v-250h137q68 0 101 27.5t33 98.5z" />
    <glyph glyph-name="afii10108" unicode="&#x45b;" horiz-adv-x="559" 
d="M427 0v415q0 63 -33.5 97.5t-103.5 34.5q-50 0 -88.5 -22.5t-55.5 -54.5v-470h-56v662h-84v38h84v97l56 5v-102h94v-38h-94v-51l-1 -80l2 -1q27 35 68 53.5t90 18.5q87 0 132 -47t45 -140v-415h-55z" />
    <glyph glyph-name="afii10109" unicode="&#x45c;" horiz-adv-x="515" 
d="M147 346h84l183 246h70l-201 -270l211 -322h-70l-192 295h-85v-295h-56v590l56 4v-248zM367 808l-99 -139h-45l72 139h72z" />
    <glyph glyph-name="afii10110" unicode="&#x45e;" horiz-adv-x="564" 
d="M169 -106q32 0 56 17.5t44 66.5l3 12l-233 602h66l169 -464l26 -76h3l21 78l140 462h61l-199 -613q-24 -74 -61.5 -103t-86.5 -29q-21 0 -41 5t-36 13l7 46q15 -9 30.5 -13t30.5 -4zM401 808q0 -69 -29.5 -107.5t-89.5 -38.5t-89.5 37t-29.5 109h41q0 -56 22 -82.5
t56 -26.5q35 0 56 26.5t21 82.5h42z" />
    <glyph glyph-name="afii10193" unicode="&#x45f;" horiz-adv-x="564" 
d="M254 -124v124h-168v592h56v-540h280v540h56v-592h-168v-124h-56z" />
    <glyph glyph-name="afii10050" unicode="&#x490;" horiz-adv-x="513" 
d="M484 870v-180h-324v-690h-60v750h323v120h61z" />
    <glyph glyph-name="afii10098" unicode="&#x491;" horiz-adv-x="391" 
d="M142 540v-540h-56v592h214v114h56v-166h-214z" />
    <glyph glyph-name="Wgrave" unicode="&#x1e80;" horiz-adv-x="891" 
d="M481 750l137 -610l17 -79h3l14 79l123 610h60l-162 -750h-76l-135 608l-15 80h-3l-16 -80l-134 -608h-75l-163 750h62l123 -611l15 -79h3l16 79l137 611h69zM426 801l-106 112h76l78 -112h-48z" />
    <glyph glyph-name="wgrave" unicode="&#x1e81;" horiz-adv-x="776" 
d="M421 592l111 -467l17 -79h3l14 79l97 467h56l-133 -592h-71l-106 455l-16 80h-3l-18 -80l-108 -455h-70l-137 592h57l99 -464l16 -79h3l17 79l110 464h62zM374 669l-93 139h73l65 -139h-45z" />
    <glyph glyph-name="Wacute" unicode="&#x1e82;" horiz-adv-x="891" 
d="M481 750l137 -610l17 -79h3l14 79l123 610h60l-162 -750h-76l-135 608l-15 80h-3l-16 -80l-134 -608h-75l-163 750h62l123 -611l15 -79h3l16 79l137 611h69zM577 911l-112 -111h-49l79 111h82z" />
    <glyph glyph-name="wacute" unicode="&#x1e83;" horiz-adv-x="776" 
d="M421 592l111 -467l17 -79h3l14 79l97 467h56l-133 -592h-71l-106 455l-16 80h-3l-18 -80l-108 -455h-70l-137 592h57l99 -464l16 -79h3l17 79l110 464h62zM506 808l-99 -139h-45l72 139h72z" />
    <glyph glyph-name="Wdieresis" unicode="&#x1e84;" horiz-adv-x="891" 
d="M481 750l137 -610l17 -79h3l14 79l123 610h60l-162 -750h-76l-135 608l-15 80h-3l-16 -80l-134 -608h-75l-163 750h62l123 -611l15 -79h3l16 79l137 611h69zM393 843q0 -35 -32 -35q-16 0 -24.5 7.5t-8.5 27.5q0 36 33 36q32 0 32 -36zM563 843q0 -35 -33 -35
q-16 0 -24 7.5t-8 27.5q0 36 32 36q33 0 33 -36z" />
    <glyph glyph-name="wdieresis" unicode="&#x1e85;" horiz-adv-x="776" 
d="M421 592l111 -467l17 -79h3l14 79l97 467h56l-133 -592h-71l-106 455l-16 80h-3l-18 -80l-108 -455h-70l-137 592h57l99 -464l16 -79h3l17 79l110 464h62zM349 755q0 -37 -33 -37q-16 0 -24 8.5t-8 28.5q0 38 32 38q33 0 33 -38zM486 755q0 -37 -33 -37q-16 0 -24.5 8.5
t-8.5 28.5q0 38 33 38t33 -38z" />
    <glyph glyph-name="uni1E8A" unicode="&#x1e8a;" horiz-adv-x="616" 
d="M351 390l221 -390h-70l-157 282l-37 72h-3l-37 -72l-153 -282h-72l218 390l-209 360h73l143 -254l38 -71h3l37 71l140 254h71zM351 844q0 -38 -43 -38q-23 0 -33 8.5t-10 29.5q0 38 43 38t43 -38z" />
    <glyph glyph-name="uni1E8B" unicode="&#x1e8b;" horiz-adv-x="529" 
d="M301 201l-37 72h-3l-38 -72l-112 -201h-65l179 301l-175 291h67l109 -191l38 -71h3l37 71l108 191h65l-173 -289l180 -303h-69zM308 754q0 -40 -42 -40q-21 0 -32 8.5t-11 31.5q0 41 43 41q42 0 42 -41z" />
    <glyph glyph-name="Ygrave" unicode="&#x1ef2;" horiz-adv-x="586" 
d="M97 750l164 -352l33 -74h3l32 74l163 352h67l-234 -488v-262h-61v262l-237 488h70zM288 801l-106 112h76l78 -112h-48z" />
    <glyph glyph-name="ygrave" unicode="&#x1ef3;" horiz-adv-x="564" 
d="M169 -106q32 0 56 17.5t44 66.5l3 12l-233 602h66l169 -464l26 -76h3l21 78l140 462h61l-199 -613q-24 -74 -61.5 -103t-86.5 -29q-21 0 -41 5t-36 13l7 46q15 -9 30.5 -13t30.5 -4zM278 669l-93 139h73l65 -139h-45z" />
    <glyph glyph-name="uni2007" unicode="&#x2007;" horiz-adv-x="590" 
 />
    <glyph glyph-name="uni2008" unicode="&#x2008;" horiz-adv-x="223" 
 />
    <glyph glyph-name="uni200B" unicode="&#x200b;" horiz-adv-x="0" 
 />
    <glyph glyph-name="endash" unicode="&#x2013;" horiz-adv-x="497" 
d="M424 366v-46h-351v46h351z" />
    <glyph glyph-name="emdash" unicode="&#x2014;" horiz-adv-x="663" 
d="M590 366v-46h-517v46h517z" />
    <glyph glyph-name="afii00208" unicode="&#x2015;" horiz-adv-x="663" 
d="M590 366v-46h-517v46h517z" />
    <glyph glyph-name="quoteleft" unicode="&#x2018;" horiz-adv-x="205" 
d="M103 606q-23 0 -33.5 13.5t-10.5 33.5q0 11 5.5 32t14 45.5t19 49t19.5 43.5l22 -6l-25 -124q14 -3 23 -15t9 -26q0 -20 -10 -33t-33 -13z" />
    <glyph glyph-name="quoteright" unicode="&#x2019;" horiz-adv-x="205" 
d="M101 796q23 0 34 -13t11 -34q0 -11 -6 -32t-14.5 -45t-19 -49t-20.5 -43l-21 5l26 124q-14 3 -23.5 15t-9.5 27q0 20 10 32.5t33 12.5z" />
    <glyph glyph-name="quotesinglbase" unicode="&#x201a;" horiz-adv-x="205" 
d="M101 77q23 0 34 -13t11 -34q0 -11 -6 -32t-14.5 -45t-19 -49t-20.5 -43l-21 5l26 124q-14 3 -23.5 15t-9.5 27q0 20 10 32.5t33 12.5z" />
    <glyph glyph-name="quotedblleft" unicode="&#x201c;" horiz-adv-x="354" 
d="M103 606q-23 0 -33.5 13.5t-10.5 33.5q0 11 5.5 32t14 45.5t19 49t19.5 43.5l22 -6l-25 -124q14 -3 23 -15t9 -26q0 -20 -10 -33t-33 -13zM252 606q-23 0 -33.5 13.5t-10.5 33.5q0 11 5.5 32t14.5 45.5t19.5 49t20.5 43.5l20 -6l-25 -124q14 -3 23 -15t9 -26
q0 -20 -10 -33t-33 -13z" />
    <glyph glyph-name="quotedblright" unicode="&#x201d;" horiz-adv-x="354" 
d="M101 796q23 0 34 -13t11 -34q0 -11 -6 -32t-14.5 -45t-19 -49t-20.5 -43l-21 5l26 124q-14 3 -23.5 15t-9.5 27q0 20 10 32.5t33 12.5zM250 796q23 0 34 -13t11 -34q0 -11 -6 -32t-14.5 -45t-19 -49t-20.5 -43l-21 5l26 124q-14 3 -23.5 15t-9.5 27q0 20 10 32.5t33 12.5
z" />
    <glyph glyph-name="quotedblbase" unicode="&#x201e;" horiz-adv-x="354" 
d="M250 77q23 0 34 -13t11 -34q0 -11 -6 -32t-14.5 -45t-19 -49t-20.5 -43l-21 5l26 124q-14 3 -23.5 15t-9.5 27q0 20 10 32.5t33 12.5zM101 77q23 0 34 -13t11 -34q0 -11 -6 -32t-14.5 -45t-19 -49t-20.5 -43l-21 5l26 124q-14 3 -23.5 15t-9.5 27q0 20 10 32.5t33 12.5z
" />
    <glyph glyph-name="dagger" unicode="&#x2020;" horiz-adv-x="470" 
d="M209 591l-5 206h55l-4 -206l168 4v-57l-168 5l4 -684h-55l5 684l-162 -5v57z" />
    <glyph glyph-name="daggerdbl" unicode="&#x2021;" horiz-adv-x="470" 
d="M423 62l-168 5l4 -209h-55l5 209l-162 -5v56l162 -3v428l-162 -4v56l162 -4l-5 206h55l-4 -206l168 4v-56l-168 4v-428l168 4v-57z" />
    <glyph glyph-name="bullet" unicode="&#x2022;" horiz-adv-x="376" 
d="M70 326q0 118 116 118q115 0 115 -118q0 -119 -115 -119q-116 0 -116 119z" />
    <glyph glyph-name="ellipsis" unicode="&#x2026;" horiz-adv-x="557" 
d="M490 34q0 -44 -43 -44q-45 0 -45 44q0 45 45 45q43 0 43 -45zM327 34q0 -44 -43 -44q-45 0 -45 44q0 45 45 45q43 0 43 -45zM155 34q0 -44 -43 -44q-45 0 -45 44q0 45 45 45q43 0 43 -45z" />
    <glyph glyph-name="perthousand" unicode="&#x2030;" horiz-adv-x="917" 
d="M300 592q0 -94 -31 -133t-93 -39q-64 0 -94 39t-30 133t28.5 133.5t95.5 39.5q30 0 53.5 -8.5t39 -29t23.5 -53.5t8 -82zM259 593q0 40 -5 65.5t-15.5 40.5t-26 20.5t-36.5 5.5t-37 -5.5t-26.5 -20.5t-15.5 -40.5t-5 -65.5t5 -65.5t15.5 -40.5t26.5 -21t37 -6t36.5 6
t26 21t15.5 40.5t5 65.5zM506 718l-354 -709l-38 25l355 709zM581 166q0 -95 -30.5 -134t-92.5 -39q-64 0 -94 39.5t-30 133.5t28.5 134t95.5 40q30 0 53 -9t38.5 -29.5t23.5 -53.5t8 -82zM542 166q0 40 -5.5 65.5t-16 40.5t-26 20.5t-36.5 5.5t-37 -5.5t-26.5 -20.5
t-15.5 -40.5t-5 -65.5t5.5 -65.5t16 -40.5t26 -20.5t36.5 -5.5t36.5 5.5t26 20.5t16 40.5t5.5 65.5zM865 166q0 -95 -30.5 -134t-93.5 -39q-64 0 -94 39.5t-30 133.5t28.5 134t95.5 40q30 0 53.5 -9t39 -29.5t23.5 -53.5t8 -82zM825 166q0 40 -5.5 65.5t-16 40.5t-26 20.5
t-36.5 5.5t-37 -5.5t-26.5 -20.5t-15.5 -40.5t-5 -65.5t5.5 -65.5t16 -40.5t26 -20.5t36.5 -5.5t36.5 5.5t26 20.5t16 40.5t5.5 65.5z" />
    <glyph glyph-name="guilsinglleft" unicode="&#x2039;" horiz-adv-x="379" 
d="M111 328l196 -125v-50l-257 172v7l257 172v-51z" />
    <glyph glyph-name="guilsinglright" unicode="&#x203a;" horiz-adv-x="379" 
d="M73 203l194 125l-194 125v51l256 -172v-7l-256 -172v50z" />
    <glyph glyph-name="fraction" unicode="&#x2044;" horiz-adv-x="256" 
d="M391 750l-462 -750h-45l462 750h45z" />
    <glyph glyph-name="uni2070" unicode="&#x2070;" horiz-adv-x="325" 
d="M293 697q0 -56 -7.5 -94.5t-23 -62.5t-40.5 -35t-59 -11q-35 0 -59.5 11t-40.5 35t-23 62.5t-7 94.5q0 57 7 95.5t23 62.5t41 34t60 10q34 0 58.5 -10t40 -34t23 -62.5t7.5 -95.5zM245 698q0 49 -5 80t-14.5 48.5t-25 24t-36.5 6.5q-22 0 -38 -6.5t-26 -24t-15 -48.5
t-5 -80q0 -50 5 -81.5t15 -49.5t26 -24.5t38 -6.5q21 0 36.5 6.5t25 24.5t14.5 49.5t5 81.5z" />
    <glyph glyph-name="uni2074" unicode="&#x2074;" horiz-adv-x="325" 
d="M262 589v-89h-45v89h-182l-4 28l172 277h59v-265h46l-2 -40h-44zM219 767l2 81l-2 1l-41 -70l-50 -82l-43 -65l1 -3h132z" />
    <glyph glyph-name="uni2075" unicode="&#x2075;" horiz-adv-x="325" 
d="M288 635q0 -70 -30.5 -105t-96.5 -35q-62 0 -106 28l9 40q21 -14 42.5 -20.5t50.5 -6.5q45 0 64.5 22.5t19.5 73.5q0 41 -20 58.5t-60 17.5q-25 0 -47 -5.5t-38 -13.5l-20 17l15 188h199l2 -42h-164l-8 -116q17 5 35 8.5t36 3.5q117 0 117 -113z" />
    <glyph glyph-name="uni2076" unicode="&#x2076;" horiz-adv-x="325" 
d="M291 635q0 -140 -124 -140q-31 0 -55 9.5t-40.5 31.5t-25 58t-8.5 89q0 114 39 165t114 51q23 0 42 -4t38 -11l-4 -41q-17 8 -33.5 10.5t-37.5 2.5q-54 0 -81 -31t-32 -106l3 -2q18 17 41.5 25t49.5 8q58 0 86 -27.5t28 -87.5zM243 635q0 42 -18 59.5t-56 17.5
q-22 0 -45.5 -10t-36.5 -29q1 -78 19.5 -107.5t61.5 -29.5q38 0 56.5 24t18.5 75z" />
    <glyph glyph-name="uni2077" unicode="&#x2077;" horiz-adv-x="325" 
d="M291 854l-153 -354h-56l157 349h-200l2 45h250v-40z" />
    <glyph glyph-name="uni2078" unicode="&#x2078;" horiz-adv-x="325" 
d="M34 607q0 35 19.5 59.5t51.5 40.5v3q-25 11 -41 31.5t-16 57.5q0 48 27 74t89 26q59 0 86 -25t27 -75q0 -60 -58 -91v-2q30 -12 51 -34t21 -65q0 -112 -127 -112q-68 0 -99 27.5t-31 84.5zM243 604q0 21 -8.5 34.5t-23 22.5t-32.5 16l-36 14q-27 -15 -44.5 -34.5
t-17.5 -50.5q0 -38 18.5 -55t64.5 -17q37 0 58 16t21 54zM93 798q0 -18 7.5 -30t19.5 -20.5t28 -14.5t33 -12q26 15 39 33t13 42q0 33 -16.5 49t-52.5 16q-71 0 -71 -63z" />
    <glyph glyph-name="uni2079" unicode="&#x2079;" horiz-adv-x="325" 
d="M286 716q0 -60 -9 -102.5t-27 -68.5t-45 -38t-62 -12q-28 0 -46.5 4.5t-36.5 12.5l7 39q18 -8 34.5 -11.5t38.5 -3.5q50 0 76 35.5t29 126.5l-2 1q-32 -36 -86 -36q-64 0 -92 31.5t-28 84.5q0 56 29.5 88t90.5 32q67 0 98 -44t31 -139zM240 734q0 36 -5.5 60.5t-16 38.5
t-26 20t-36.5 6q-35 0 -55 -19.5t-20 -58.5t19 -60.5t61 -21.5q23 0 45 9t34 26z" />
    <glyph glyph-name="uni207A" unicode="&#x207a;" horiz-adv-x="328" 
d="M181 682v-108h-36v108h-106v40h106v110h36v-110h107v-40h-107z" />
    <glyph glyph-name="uni207B" unicode="&#x207b;" horiz-adv-x="328" 
d="M44 685v40h243v-40h-243z" />
    <glyph glyph-name="uni207C" unicode="&#x207c;" horiz-adv-x="328" 
d="M42 738v35h244v-35h-244zM42 634v36h244v-36h-244z" />
    <glyph glyph-name="uni207D" unicode="&#x207d;" horiz-adv-x="185" 
d="M170 924q-32 -54 -49 -113.5t-17 -128.5q0 -70 17.5 -129t48.5 -112l-35 -2q-35 47 -55.5 109.5t-20.5 133.5q0 75 19.5 134t56.5 110z" />
    <glyph glyph-name="uni207E" unicode="&#x207e;" horiz-adv-x="185" 
d="M51 926q37 -51 56 -110t19 -134q0 -71 -20 -133.5t-55 -109.5l-36 2q30 53 48 112t18 129q0 69 -17 128.5t-49 113.5z" />
    <glyph glyph-name="uni2080" unicode="&#x2080;" horiz-adv-x="325" 
d="M293 56q0 -56 -7.5 -94.5t-23 -62.5t-40.5 -35t-59 -11q-35 0 -59.5 11t-40.5 35t-23 62.5t-7 94.5q0 57 7 95.5t23 62t41 33.5t60 10q34 0 58.5 -10t40 -33.5t23 -62t7.5 -95.5zM245 56q0 49 -5 80.5t-14.5 49t-25 24t-36.5 6.5q-22 0 -38 -6.5t-26 -24.5t-15 -49
t-5 -80q0 -50 5 -81.5t15 -49.5t26 -24.5t38 -6.5q21 0 36.5 6.5t25 24.5t14.5 49.5t5 81.5z" />
    <glyph glyph-name="uni2081" unicode="&#x2081;" horiz-adv-x="237" 
d="M174 -142h-49v250l3 79l-3 1l-77 -54l-5 41l101 79h30v-396z" />
    <glyph glyph-name="uni2082" unicode="&#x2082;" horiz-adv-x="310" 
d="M275 151q0 -31 -13.5 -61t-36.5 -60t-55 -61.5t-69 -65.5v-3h178l-1 -42h-237v32q35 36 68.5 70.5t59.5 67t41.5 62.5t15.5 57q0 29 -17.5 48t-59.5 19q-28 0 -51 -10t-43 -27l-13 39q20 17 49.5 29t65.5 12q59 0 88.5 -28t29.5 -78z" />
    <glyph glyph-name="uni2083" unicode="&#x2083;" horiz-adv-x="310" 
d="M277 -24q0 -57 -32 -90t-102 -33q-37 0 -63.5 8.5t-46.5 20.5l11 39q21 -13 45.5 -20t53.5 -7q46 0 66.5 23t20.5 61t-26 55t-91 17v36q60 0 84.5 17.5t24.5 52.5q0 32 -20 46t-56 14q-30 0 -54 -9.5t-44 -26.5l-12 36q19 17 48 29t64 12q56 0 88 -24t32 -73
q0 -38 -18.5 -59.5t-48.5 -30.5v-2q37 -8 56.5 -29.5t19.5 -62.5z" />
    <glyph glyph-name="uni2084" unicode="&#x2084;" horiz-adv-x="325" 
d="M262 -53v-89h-45v89h-182l-4 28l172 277h59v-265h46l-2 -40h-44zM219 125l2 81l-2 1l-41 -70l-50 -82l-43 -65l1 -3h132z" />
    <glyph glyph-name="uni2085" unicode="&#x2085;" horiz-adv-x="325" 
d="M288 -7q0 -70 -30.5 -105t-96.5 -35q-62 0 -106 28l9 40q21 -13 42.5 -20t50.5 -7q45 0 64.5 22.5t19.5 73.5q0 41 -20 58.5t-60 17.5q-25 0 -47 -5.5t-38 -13.5l-20 17l15 188h199l2 -42h-164l-8 -116q33 12 71 12q117 0 117 -113z" />
    <glyph glyph-name="uni2086" unicode="&#x2086;" horiz-adv-x="325" 
d="M291 -7q0 -140 -124 -140q-31 0 -55 9.5t-40.5 31.5t-25 58t-8.5 89q0 114 39 165t114 51q23 0 42 -3.5t38 -11.5l-4 -41q-17 8 -33.5 10.5t-37.5 2.5q-54 0 -81 -31.5t-32 -105.5l3 -2q18 17 41.5 25t49.5 8q58 0 86 -27.5t28 -87.5zM243 -6q0 42 -18 59t-56 17
q-22 0 -45.5 -9.5t-36.5 -29.5q1 -78 19.5 -107t61.5 -29q38 0 56.5 23.5t18.5 75.5z" />
    <glyph glyph-name="uni2087" unicode="&#x2087;" horiz-adv-x="325" 
d="M291 212l-153 -354h-56l157 349h-200l2 45h250v-40z" />
    <glyph glyph-name="uni2088" unicode="&#x2088;" horiz-adv-x="325" 
d="M34 -35q0 35 19.5 60t52.5 40v3q-26 11 -42 32t-16 58q0 47 27 73t89 26q59 0 86 -25t27 -74q0 -31 -15 -54.5t-43 -37.5v-2q29 -12 50.5 -33.5t21.5 -65.5q0 -112 -127 -112q-68 0 -99 27.5t-31 84.5zM243 -38q0 21 -8.5 34.5t-23 22.5t-32.5 16l-36 14
q-27 -15 -44.5 -34.5t-17.5 -50.5q0 -38 18.5 -55t64.5 -17q37 0 58 16t21 54zM93 156q0 -18 7.5 -30t19.5 -20.5t28 -14.5t33 -12q26 15 39 33t13 42q0 33 -16.5 49t-52.5 16q-71 0 -71 -63z" />
    <glyph glyph-name="uni2089" unicode="&#x2089;" horiz-adv-x="325" 
d="M286 74q0 -60 -9 -102.5t-27 -68.5t-45 -38t-62 -12q-28 0 -46.5 4.5t-36.5 12.5l7 39q18 -8 34.5 -11.5t38.5 -3.5q49 0 75.5 36t29.5 126l-2 1q-32 -36 -86 -36q-64 0 -92 31.5t-28 85.5q0 55 29.5 87t90.5 32q67 0 98 -44t31 -139zM240 92q0 36 -5.5 60.5t-16 38.5
t-26 20t-36.5 6q-35 0 -55 -19.5t-20 -58.5t19 -60.5t61 -21.5q23 0 45 9t34 26z" />
    <glyph glyph-name="uni208A" unicode="&#x208a;" horiz-adv-x="328" 
d="M181 41v-109h-36v109h-106v39h106v110h36v-110h107v-39h-107z" />
    <glyph glyph-name="uni208B" unicode="&#x208b;" horiz-adv-x="328" 
d="M44 44v39h243v-39h-243z" />
    <glyph glyph-name="uni208C" unicode="&#x208c;" horiz-adv-x="328" 
d="M42 96v35h244v-35h-244zM42 -7v35h244v-35h-244z" />
    <glyph glyph-name="uni208D" unicode="&#x208d;" horiz-adv-x="185" 
d="M170 285q-32 -54 -49 -113.5t-17 -128.5q0 -71 17.5 -129.5t48.5 -111.5l-35 -2q-35 47 -55.5 109.5t-20.5 133.5q0 75 19.5 133.5t56.5 110.5z" />
    <glyph glyph-name="uni208E" unicode="&#x208e;" horiz-adv-x="185" 
d="M51 287q37 -52 56 -110.5t19 -133.5q0 -71 -20 -133.5t-55 -109.5l-36 2q30 53 48 111.5t18 129.5q0 69 -17 128.5t-49 113.5z" />
    <glyph glyph-name="franc" unicode="&#x20a3;" horiz-adv-x="551" 
d="M108 164v586h393l2 -60h-335v-273h263v-57h-263v-196h89v-46h-89v-118h-60v118h-86v46h86z" />
    <glyph glyph-name="lira" unicode="&#x20a4;" horiz-adv-x="607" 
d="M80 450h37q-7 26 -11 52t-4 56q0 42 12 78.5t40 63.5t72 42.5t109 15.5q49 0 92 -10.5t76 -27.5l-10 -55q-28 15 -68.5 25.5t-84.5 10.5q-47 0 -80.5 -11.5t-55 -31.5t-31.5 -47.5t-10 -59.5q0 -26 3.5 -50.5t9.5 -50.5h269v-42h-259l8 -34t7 -35h244v-42h-239
q2 -15 3 -30t1 -32q0 -64 -20.5 -110t-55.5 -72l2 -3q46 9 93.5 12t110.5 3q53 0 103.5 -3.5t100.5 -8.5l-4 -59q-61 7 -113.5 10.5t-111.5 3.5q-65 0 -124 -3t-132 -10l-3 56q48 20 72 69t24 112q0 35 -3 65h-65l-2 42h61l-15 69h-46z" />
    <glyph glyph-name="peseta" unicode="&#x20a7;" horiz-adv-x="716" 
d="M339 540q0 -61 -8.5 -102.5t-27 -67t-47.5 -36.5t-70 -11h-65v-323h-46v750h111q39 0 68 -9.5t47.5 -33.5t28 -64.5t9.5 -102.5zM291 540q0 46 -5.5 77t-18 49t-32.5 25.5t-49 7.5h-65v-327h65q27 0 47 7t33 25.5t19 51.5t6 84zM434 414v-327q0 -30 10 -41.5t24 -11.5
q8 0 19 7l2 -42q-5 -4 -14 -6t-18 -2q-32 0 -48.5 22.5t-16.5 72.5v328h-31v41h31l8 108l34 5v-113h59v-41h-59zM675 121q0 -70 -22 -101t-66 -31q-17 0 -33.5 6t-27.5 17l2 45q23 -23 56 -23q52 0 52 86q0 30 -8.5 48t-20.5 31t-27 24t-27 26t-20.5 37t-8.5 58
q0 54 22.5 86t63.5 32q32 0 56 -19l-4 -44q-23 17 -49 17q-25 0 -37 -18.5t-12 -52.5q0 -27 8 -43.5t20.5 -28t27 -22.5t27 -26.5t20.5 -40t8 -63.5z" />
    <glyph glyph-name="Euro" unicode="&#x20ac;" horiz-adv-x="619" 
d="M435 302h-262q6 -70 23 -119t45 -79.5t67.5 -44.5t90.5 -14q44 0 86 13.5t79 36.5l7 -49q-35 -25 -82.5 -39t-99.5 -14q-132 0 -196 74t-76 235h-84v40h82q-1 11 -1 23v25v24h-81v41h83q12 152 82.5 227t195.5 75q46 0 89.5 -10t72.5 -27l-13 -49q-34 16 -66 23t-75 7
q-205 0 -229 -246h306l-9 -41h-300v-28v-22.5t1 -21.5h274z" />
    <glyph glyph-name="afii61352" unicode="&#x2116;" horiz-adv-x="998" 
d="M496 0l-307 575l-33 69l-1 -1q0 -21 0.5 -41.5t0.5 -40.5v-561h-56v750h59l301 -578q9 -17 17 -35.5t17 -35.5q1 0 1 0.5t1 0.5l-2 80v568h56v-750h-54zM928 195h-253v45h253v-45zM950 547q0 -59 -8.5 -99.5t-26.5 -65.5t-46 -35.5t-67 -10.5t-67 10.5t-46.5 35.5
t-27.5 65.5t-9 99.5t9 99.5t27.5 65t46.5 35.5t67 11t67 -11t46 -35.5t26.5 -65t8.5 -99.5zM702 547q0 -48 5.5 -79.5t17.5 -51t31 -27.5t46 -8t45.5 8t30.5 27.5t17.5 51t5.5 79.5t-5.5 80t-17.5 50.5t-30.5 26.5t-45.5 8t-46 -8t-31 -27t-17.5 -50.5t-5.5 -79.5z" />
    <glyph glyph-name="trademark" unicode="&#x2122;" horiz-adv-x="593" 
d="M510 515v142l2 81l-3 1l-29 -76l-60 -148h-26l-61 147l-29 76l-2 -1l1 -81v-141h-32v264h47l59 -144l29 -75h3l29 75l59 144h44v-264h-31zM151 745v-230h-36v230h-81v34h197v-34h-80z" />
    <glyph glyph-name="Omega" unicode="&#x2126;" horiz-adv-x="663" 
d="M331 761q64 0 113 -18.5t82 -58.5t49.5 -103t16.5 -151q0 -106 -42.5 -203t-130.5 -171v-3h180v-53h-229v75q73 69 116.5 159t43.5 194q0 74 -11.5 126.5t-36 85.5t-62 48t-89.5 15t-89.5 -15t-61.5 -48t-35.5 -85.5t-11.5 -126.5q0 -104 43.5 -194t116.5 -159v-75h-229
v53h179l1 3q-88 73 -130.5 170.5t-42.5 203.5q0 175 66 253t194 78z" />
    <glyph glyph-name="onethird" unicode="&#x2153;" horiz-adv-x="781" 
d="M710 118q0 -57 -31.5 -90t-101.5 -33q-37 0 -64 8.5t-47 20.5l11 39q21 -13 45.5 -20t53.5 -7q46 0 67 23t21 61t-26 55t-92 17v36q61 0 85.5 18t24.5 53q0 31 -20 45t-56 14q-31 0 -54.5 -9.5t-43.5 -26.5l-13 36q19 17 48 29t64 12q57 0 88.5 -24t31.5 -73
q0 -38 -18.5 -59.5t-48.5 -30.5v-2q37 -8 56.5 -29.5t19.5 -62.5zM634 750l-462 -750h-45l462 750h45zM244 356h-49v250l3 79l-3 1l-77 -54l-5 41l101 79h30v-396z" />
    <glyph glyph-name="twothirds" unicode="&#x2154;" horiz-adv-x="781" 
d="M293 649q0 -31 -13.5 -61t-36.5 -60.5t-55 -62t-69 -64.5v-3h178l-1 -42h-237v32q35 36 68.5 70t59.5 66.5t41.5 62.5t15.5 58q0 29 -17.5 48t-59.5 19q-28 0 -51 -10.5t-43 -26.5l-13 39q20 17 49.5 29t65.5 12q59 0 88.5 -28t29.5 -78zM643 750l-462 -750h-45l462 750
h45zM712 118q0 -57 -31.5 -90t-101.5 -33q-37 0 -64 8.5t-47 20.5l11 39q21 -13 45.5 -20t53.5 -7q46 0 67 23t21 61t-26 55t-92 17v36q61 0 85.5 18t24.5 53q0 31 -20 45t-56 14q-31 0 -54.5 -9.5t-43.5 -26.5l-13 36q19 17 48 29t64 12q57 0 88.5 -24t31.5 -73
q0 -38 -18.5 -59.5t-48.5 -30.5v-2q37 -8 56.5 -29.5t19.5 -62.5z" />
    <glyph glyph-name="oneeighth" unicode="&#x215b;" horiz-adv-x="781" 
d="M249 356h-49v250l3 79l-3 1l-77 -54l-5 41l101 79h30v-396zM633 750l-462 -750h-45l462 750h45zM448 107q0 35 19.5 60t52.5 40v3q-26 11 -42 32t-16 58q0 47 27 73t89 26q59 0 86 -25t27 -74q0 -31 -15 -54.5t-43 -37.5v-2q29 -12 50.5 -33.5t21.5 -65.5
q0 -112 -127 -112q-68 0 -99 27.5t-31 84.5zM657 104q0 21 -8.5 34.5t-23 22.5t-32.5 16l-36 14q-27 -15 -44.5 -34.5t-17.5 -50.5q0 -38 18.5 -54.5t64.5 -16.5q37 0 58 15.5t21 53.5zM507 298q0 -18 7.5 -30t19.5 -20.5t28 -14.5t33 -12q26 15 39 33t13 42q0 33 -16.5 49
t-52.5 16q-71 0 -71 -63z" />
    <glyph glyph-name="threeeighths" unicode="&#x215c;" horiz-adv-x="781" 
d="M308 474q0 -57 -32 -90t-102 -33q-37 0 -63.5 8.5t-46.5 20.5l11 39q42 -27 99 -27q46 0 66.5 23t20.5 61t-26 55t-91 17v35q60 0 84.5 18t24.5 53q0 32 -20 45.5t-56 13.5q-30 0 -54 -9t-44 -26l-12 36q19 17 48 29t64 12q56 0 88 -24t32 -74q0 -38 -18.5 -59t-47.5 -30
v-2q37 -9 56 -31t19 -61zM641 750l-462 -750h-45l462 750h45zM455 107q0 35 19.5 60t52.5 40v3q-26 11 -42 32t-16 58q0 47 27 73t89 26q59 0 86 -25t27 -74q0 -31 -15 -54.5t-43 -37.5v-2q29 -12 50.5 -33.5t21.5 -65.5q0 -112 -127 -112q-68 0 -99 27.5t-31 84.5zM664 104
q0 21 -8.5 34.5t-23 22.5t-32.5 16l-36 14q-27 -15 -44.5 -34.5t-17.5 -50.5q0 -38 18.5 -54.5t64.5 -16.5q37 0 58 15.5t21 53.5zM514 298q0 -18 7.5 -30t19.5 -20.5t28 -14.5t33 -12q26 15 39 33t13 42q0 33 -16.5 49t-52.5 16q-71 0 -71 -63z" />
    <glyph glyph-name="fiveeighths" unicode="&#x215d;" horiz-adv-x="781" 
d="M341 491q0 -70 -30.5 -105t-96.5 -35q-62 0 -106 28l9 40q21 -14 42.5 -20.5t50.5 -6.5q45 0 64.5 22.5t19.5 73.5q0 41 -20 58.5t-60 17.5q-25 0 -47 -5.5t-38 -13.5l-20 17l15 188h199l2 -42h-164l-8 -116q17 5 35 8.5t36 3.5q117 0 117 -113zM638 750l-462 -750h-45
l462 750h45zM453 107q0 35 19.5 60t52.5 40v3q-26 11 -42 32t-16 58q0 47 27 73t89 26q59 0 86 -25t27 -74q0 -31 -15 -54.5t-43 -37.5v-2q29 -12 50.5 -33.5t21.5 -65.5q0 -112 -127 -112q-68 0 -99 27.5t-31 84.5zM662 104q0 21 -8.5 34.5t-23 22.5t-32.5 16l-36 14
q-27 -15 -44.5 -34.5t-17.5 -50.5q0 -38 18.5 -54.5t64.5 -16.5q37 0 58 15.5t21 53.5zM512 298q0 -18 7.5 -30t19.5 -20.5t28 -14.5t33 -12q26 15 39 33t13 42q0 33 -16.5 49t-52.5 16q-71 0 -71 -63z" />
    <glyph glyph-name="seveneighths" unicode="&#x215e;" horiz-adv-x="781" 
d="M371 709l-153 -353h-56l157 349h-200l2 45h250v-41zM632 750l-462 -750h-45l462 750h45zM447 107q0 35 19.5 60t52.5 40v3q-26 11 -42 32t-16 58q0 47 27 73t89 26q59 0 86 -25t27 -74q0 -31 -15 -54.5t-43 -37.5v-2q29 -12 50.5 -33.5t21.5 -65.5q0 -112 -127 -112
q-68 0 -99 27.5t-31 84.5zM656 104q0 21 -8.5 34.5t-23 22.5t-32.5 16l-36 14q-27 -15 -44.5 -34.5t-17.5 -50.5q0 -38 18.5 -54.5t64.5 -16.5q37 0 58 15.5t21 53.5zM506 298q0 -18 7.5 -30t19.5 -20.5t28 -14.5t33 -12q26 15 39 33t13 42q0 33 -16.5 49t-52.5 16
q-71 0 -71 -63z" />
    <glyph glyph-name="partialdiff" unicode="&#x2202;" horiz-adv-x="566" 
d="M303 572q52 0 92 -18t64 -49l2 1q-13 104 -59.5 151.5t-129.5 47.5q-57 0 -97 -17t-72 -50l-18 42q35 35 81.5 56t113.5 21q52 0 95 -19t74 -58.5t48 -101.5t17 -149q0 -92 -18.5 -172.5t-53 -140.5t-85.5 -94.5t-115 -34.5q-99 0 -144.5 59.5t-45.5 171.5q0 84 17 150
t49 111t79 69t106 24zM455 402q0 22 -9 44t-27 39.5t-45 28.5t-63 11q-93 0 -147.5 -78t-54.5 -232q0 -178 139 -178q51 0 90 30.5t65 81.5t39 116.5t13 136.5z" />
    <glyph glyph-name="Delta" unicode="&#x2206;" horiz-adv-x="632" 
d="M24 0l255 750h73l256 -750h-584zM290 622l-183 -563h414l-182 563l-22 78h-3z" />
    <glyph glyph-name="product" unicode="&#x220f;" horiz-adv-x="665" 
d="M146 -145v847l-78 6l-2 42h535l-1 -42l-79 -5v-848h-53v844h-268v-844h-54z" />
    <glyph glyph-name="summation" unicode="&#x2211;" horiz-adv-x="626" 
d="M206 -28l-46 -66h2h414l-2 -51h-479v37l271 419l-271 400v39h462l3 -52h-394l-1 -2l46 -64l214 -314v-14z" />
    <glyph glyph-name="minus" unicode="&#x2212;" horiz-adv-x="537" 
d="M75 316v56h388v-56h-388z" />
    <glyph glyph-name="uni2219" unicode="&#x2219;" horiz-adv-x="537" 
d="M153 326q0 118 116 118q115 0 115 -118q0 -119 -115 -119q-116 0 -116 119z" />
    <glyph glyph-name="radical" unicode="&#x221a;" horiz-adv-x="515" 
d="M8 488h120l106 -345l22 -78h3l18 78l169 658h59l-212 -801h-67l-139 433h-79v55z" />
    <glyph glyph-name="infinity" unicode="&#x221e;" horiz-adv-x="657" 
d="M475 188q-54 0 -89 26.5t-60 74.5q-11 -21 -24.5 -39.5t-30.5 -32t-39 -21.5t-50 -8q-60 0 -98 42.5t-38 122.5q0 73 35 119t101 46q52 0 87.5 -26.5t61.5 -74.5q11 21 24.5 39t30.5 32t38.5 22t50.5 8q59 0 97.5 -43t38.5 -124q0 -36 -9 -65.5t-26.5 -51.5t-43 -34
t-57.5 -12zM183 239q25 0 44 10.5t33 29t26 42.5t24 51q-23 48 -52 72.5t-73 24.5q-45 0 -68 -33t-23 -81q0 -56 25.5 -86t63.5 -30zM474 466q-25 0 -43.5 -10.5t-33 -28.5t-26.5 -43t-25 -53q24 -47 53 -70.5t73 -23.5q45 0 68 32.5t23 81.5q0 55 -25.5 85t-63.5 30z" />
    <glyph glyph-name="integral" unicode="&#x222b;" horiz-adv-x="282" 
d="M170 33q0 -93 -40 -138t-125 -45l-1 40q57 2 82.5 36t25.5 105v586q0 89 41.5 135t122.5 47l2 -42q-51 -1 -79.5 -36.5t-28.5 -104.5v-583z" />
    <glyph glyph-name="approxequal" unicode="&#x2248;" horiz-adv-x="590" 
d="M393 370q-26 0 -51.5 8.5t-50.5 19t-49 19t-47 8.5q-29 0 -52 -9t-46 -26v51q21 14 45 23t53 9q25 0 50.5 -8.5t50.5 -19t49.5 -19t47.5 -8.5q29 0 53 10t47 25v-49q-20 -15 -45.5 -24.5t-54.5 -9.5zM393 214q-26 0 -51.5 8.5t-50.5 19t-49 19t-47 8.5q-29 0 -52 -9
t-46 -26v50q21 15 45 24.5t53 9.5q25 0 50.5 -9t50.5 -19.5t49.5 -19t47.5 -8.5q29 0 53 9.5t47 25.5v-50q-20 -15 -45.5 -24t-54.5 -9z" />
    <glyph glyph-name="notequal" unicode="&#x2260;" horiz-adv-x="590" 
d="M419 546l-49 -99h123v-49h-147l-55 -112h202v-49h-226l-61 -123l-40 19l51 104h-120v49h144l56 112h-200v49h224l59 119z" />
    <glyph glyph-name="lessequal" unicode="&#x2264;" horiz-adv-x="590" 
d="M211 412l-74 -30v-3l75 -30l271 -114v-59l-389 177v55l389 185v-60zM99 70v50h385v-50h-385z" />
    <glyph glyph-name="greaterequal" unicode="&#x2265;" horiz-adv-x="590" 
d="M94 235l271 114l76 30v3l-75 30l-272 121l1 60l388 -185v-55l-389 -177v59zM94 70v50h384v-50h-384z" />
    <glyph glyph-name="dotmath" unicode="&#x22c5;" horiz-adv-x="537" 
d="M312 346q0 -44 -43 -44q-45 0 -45 44q0 45 45 45q43 0 43 -45z" />
    <glyph glyph-name="lozenge" unicode="&#x25ca;" horiz-adv-x="545" 
d="M272 635l241 -313l-241 -313l-240 313zM272 91l179 231l-180 231l-177 -231z" />
    <glyph glyph-name="numbersign.tf" horiz-adv-x="590" 
d="M179 288l26 183h-141v47h146l28 232h44l-27 -232h117l28 232h44l-29 -232h112v-47h-117l-25 -183h141v-48h-146l-29 -240h-44l30 240h-119l-28 -240h-45l29 240h-111v48h116zM224 288h117l26 183h-118z" />
    <glyph glyph-name="dollar.tf" horiz-adv-x="590" 
d="M244 -83l5 71q-48 4 -92.5 17t-75.5 33l8 60q35 -23 76.5 -37.5t87.5 -18.5l25 325q-36 15 -71.5 31.5t-63 40t-44.5 55.5t-17 78q0 91 58.5 139t166.5 50l5 64l38 -2l-5 -63q43 -4 78.5 -13.5t55.5 -20.5l-6 -56q-62 27 -133 33l-22 -284q36 -15 71 -32.5t62 -43
t44 -61.5t17 -87q0 -109 -56.5 -157.5t-171.5 -50.5l-5 -73zM465 188q0 34 -12.5 59t-33.5 44t-48.5 33.5t-57.5 27.5l-25 -311q89 1 133 36.5t44 110.5zM134 574q0 -30 12 -51t32.5 -37.5t47.5 -29t57 -24.5l20 273q-88 -1 -128.5 -37.5t-40.5 -93.5z" />
    <glyph glyph-name="zero.tf" horiz-adv-x="590" 
d="M530 376q0 -108 -13.5 -182t-42 -119t-73 -65t-106.5 -20q-63 0 -107.5 20t-73 65t-41.5 119t-13 182q0 109 13 183t41.5 118t73.5 63t108 19q62 0 106 -19t72.5 -63t42 -118t13.5 -183zM472 377q0 100 -10.5 163.5t-32.5 99.5t-55 49.5t-78 13.5q-46 0 -79.5 -13.5
t-55.5 -49.5t-33 -99.5t-11 -163.5q0 -102 11 -166.5t33 -101t55.5 -50.5t79.5 -14q45 0 78 14t55 51t32.5 101.5t10.5 165.5z" />
    <glyph glyph-name="one.tf" horiz-adv-x="590" 
d="M172 49h131v539l2 81l-2 1l-66 -48l-91 -63l-7 54l190 139h34v-703h127v-49h-318v49z" />
    <glyph glyph-name="two.tf" horiz-adv-x="590" 
d="M506 565q0 -60 -26 -120t-72 -122.5t-109 -128t-136 -134.5l1 -3h350l-3 -57h-428v42q79 82 146 153.5t115.5 135.5t75.5 120.5t27 108.5q0 30 -9 55.5t-29 44.5t-51 30t-75 11q-51 0 -96.5 -21t-80.5 -53l-18 50q35 34 87.5 57.5t115.5 23.5q104 0 159.5 -49.5
t55.5 -143.5z" />
    <glyph glyph-name="three.tf" horiz-adv-x="590" 
d="M519 224q0 -53 -14.5 -95.5t-44 -73t-75 -47t-107.5 -16.5q-69 0 -116.5 16t-82.5 39l13 52q39 -26 83.5 -39.5t100.5 -13.5q48 0 83.5 13t58 37t33.5 57t11 73q0 82 -55 117.5t-181 35.5v47q116 0 167 38.5t51 110.5q0 67 -43.5 97t-116.5 30q-57 0 -100.5 -19.5
t-80.5 -52.5l-18 48q33 33 84.5 56.5t117.5 23.5q99 0 155 -44t56 -135q0 -74 -36.5 -115.5t-93.5 -58.5v-2q74 -15 112.5 -57t38.5 -122z" />
    <glyph glyph-name="four.tf" horiz-adv-x="590" 
d="M447 177v-177h-55v177h-320l-5 40l306 533h74v-519h93l-2 -54h-91zM397 617l3 81l-2 1l-265 -468h261z" />
    <glyph glyph-name="five.tf" horiz-adv-x="590" 
d="M510 256q0 -134 -56.5 -199t-172.5 -65q-60 0 -105 14.5t-83 40.5l12 54q38 -26 78.5 -40.5t92.5 -14.5q91 0 133.5 49t42.5 155q0 90 -42 128t-127 38q-49 0 -92 -12t-73 -31l-24 24l27 353h357l2 -57h-314l-19 -255q33 15 72.5 23t77.5 8q107 0 160 -51.5t53 -161.5z
" />
    <glyph glyph-name="six.tf" horiz-adv-x="590" 
d="M519 256q0 -135 -55 -199.5t-166 -64.5q-56 0 -99 17t-72 58t-44 109.5t-15 171.5q0 109 18 187t52.5 127.5t85.5 72.5t117 23q39 0 73 -6.5t69 -21.5l-6 -54q-32 13 -62 19t-68 6q-54 0 -95 -17t-69 -54.5t-43.5 -96t-17.5 -140.5l3 -2q36 38 85 59t101 21
q108 0 158 -51.5t50 -163.5zM462 257q0 88 -39 126.5t-122 38.5q-23 0 -47.5 -6t-48 -17t-44 -27t-35.5 -36q1 -83 11.5 -138.5t31.5 -89t53 -48t76 -14.5q81 0 122.5 51t41.5 160z" />
    <glyph glyph-name="seven.tf" horiz-adv-x="590" 
d="M529 698l-301 -698h-67l310 690h-400l3 60h455v-52z" />
    <glyph glyph-name="eight.tf" horiz-adv-x="590" 
d="M67 199q0 72 40 121t103 78v3q-25 11 -46.5 25.5t-37.5 35.5t-25 48.5t-9 63.5q0 87 48 135.5t156 48.5q104 0 153.5 -45.5t49.5 -138.5q0 -61 -31 -107t-91 -75v-2q30 -11 56.5 -26t46.5 -37.5t32 -53.5t12 -74q0 -106 -57.5 -156.5t-170.5 -50.5q-119 0 -174 50
t-55 157zM468 196q0 41 -15 68.5t-40.5 46.5t-58 32t-66.5 25l-26 9q-30 -15 -55.5 -32t-44 -38.5t-29.5 -48t-11 -60.5q0 -80 40.5 -117.5t135.5 -37.5q78 0 124 36t46 117zM146 572q0 -39 15 -65t40 -43.5t57.5 -29.5t66.5 -24q65 30 93.5 68t28.5 92q0 70 -36.5 103
t-114.5 33q-77 0 -113.5 -33.5t-36.5 -100.5z" />
    <glyph glyph-name="nine.tf" horiz-adv-x="590" 
d="M518 416q0 -119 -16.5 -200t-49.5 -130.5t-81.5 -71.5t-112.5 -22q-44 0 -78 7t-70 24l8 52q33 -14 64.5 -21t69.5 -7q52 0 91 17.5t65 57.5t40 104.5t16 159.5l-2 1q-35 -36 -80.5 -53t-97.5 -17q-113 0 -166 58t-53 160q0 108 53.5 165.5t165.5 57.5t173 -81.5
t61 -260.5zM461 443q-1 72 -13.5 121.5t-35.5 80.5t-56 45t-73 14q-80 0 -121 -41t-41 -126q0 -80 41 -124.5t129 -44.5q50 0 94 16.5t76 58.5z" />
    <glyph glyph-name="cent.tf" horiz-adv-x="590" 
d="M451 518q-24 13 -53.5 21t-61.5 8q-46 0 -78.5 -13t-53.5 -42t-30.5 -75t-9.5 -112q0 -75 10.5 -125.5t32 -81.5t53.5 -44.5t74 -13.5q69 0 121 38l5 -50q-21 -17 -52 -27.5t-68 -12.5l-6 -139h-46l6 140q-47 4 -82.5 23.5t-59 57.5t-35 96t-11.5 138q0 149 49 220
t153 76l8 131h46l-8 -132q29 -3 55.5 -10.5t46.5 -17.5z" />
    <glyph glyph-name="sterling.tf" horiz-adv-x="590" 
d="M82 401h52q-12 40 -20 81t-8 77q0 42 12 78.5t39 63.5t71 42.5t107 15.5q49 0 92 -11t75 -28l-10 -54q-27 15 -67 25.5t-84 10.5q-47 0 -80.5 -11t-54.5 -31t-31 -47t-10 -59q0 -38 8 -75t17 -78h241v-50h-230q5 -26 8 -55t3 -61q0 -66 -20.5 -112t-58.5 -72l2 -3
q47 10 94.5 13.5t111.5 3.5q51 0 102 -3.5t100 -8.5l-4 -59q-60 7 -112.5 10.5t-109.5 3.5q-65 0 -123.5 -3t-130.5 -10l-3 55q48 20 72 70t24 113q0 35 -3 63.5t-8 54.5h-61z" />
    <glyph glyph-name="currency.tf" horiz-adv-x="590" 
d="M139 352q0 52 30 93l-61 63l31 34l63 -64q39 31 92 31q52 0 92 -31l65 65l31 -35l-63 -64q30 -41 30 -92q0 -50 -28 -90l60 -61l-31 -35l-62 62q-20 -15 -44 -23.5t-50 -8.5q-27 0 -50.5 8.5t-43.5 23.5l-61 -62l-32 34l61 61q-14 20 -21.5 42.5t-7.5 48.5zM179 354
q0 -24 9 -44.5t24.5 -35.5t36 -23.5t44.5 -8.5t45 8.5t36.5 23.5t24.5 35.5t9 44.5q0 23 -9 43.5t-24.5 35.5t-36.5 24t-45 9t-44.5 -9t-36 -24t-24.5 -35.5t-9 -43.5z" />
    <glyph glyph-name="yen.tf" horiz-adv-x="590" 
d="M249 323l-207 427h68l155 -350l31 -74h3l30 74l153 350h65l-201 -427h106v-43h-123v-57h124v-42h-124v-181h-62v181h-126v42h126v57h-126v43h108z" />
    <glyph glyph-name="franc.tf" horiz-adv-x="590" 
d="M113 164v586h402l2 -60h-344v-273h273v-57h-273v-196h89v-46h-89v-118h-60v118h-86v46h86z" />
    <glyph glyph-name="lira.tf" horiz-adv-x="590" 
d="M84 450h37q-6 26 -10.5 52t-4.5 57q0 42 12 78.5t39.5 63.5t71.5 42.5t107 15.5q49 0 91.5 -11t74.5 -28l-9 -54q-28 15 -68 25.5t-84 10.5q-47 0 -80 -11.5t-54.5 -31.5t-31.5 -47.5t-10 -59.5q0 -26 4 -51t10 -51h266v-42h-256q4 -17 7.5 -34t6.5 -35h242v-42h-236
q2 -15 3 -30t1 -32q0 -66 -21 -111.5t-58 -71.5l2 -3q47 9 94.5 12.5t110.5 3.5q52 0 102.5 -3.5t99.5 -8.5l-4 -59q-60 7 -112 10.5t-110 3.5q-33 0 -63 -1t-60.5 -2.5t-62.5 -4t-68 -5.5l-3 55q48 20 72 70t24 113q0 34 -3 64h-65l-2 42h61q-4 19 -7 35.5t-8 33.5h-46z
" />
    <glyph glyph-name="peseta.tf" horiz-adv-x="590" 
d="M493 510q-4 -106 -53.5 -153.5t-156.5 -47.5h-137v-309h-56v510h-62v38h62v202h193q53 0 92 -10.5t64.5 -34.5t39 -62.5t15.5 -94.5h59v-38h-60zM283 361q36 0 64 7t47 24t29.5 45.5t12.5 72.5h-290v-149h137zM146 548h290q-3 83 -40 116t-113 33h-137v-149z" />
    <glyph glyph-name="Euro.tf" horiz-adv-x="590" 
d="M440 302h-262q6 -69 23 -118t45 -79.5t67.5 -44.5t90.5 -14q44 0 86.5 13t79.5 37l6 -50q-35 -25 -82.5 -39t-100.5 -14q-132 0 -196.5 74t-77.5 235h-84v40h82q-1 11 -1 23v25v24h-81v41h83q13 152 83.5 227t196.5 75q47 0 90.5 -10t72.5 -27l-13 -50q-34 16 -66 23.5
t-75 7.5q-207 0 -229 -246h306l-9 -41h-300v-72h275z" />
    <glyph glyph-name="i.latn_TRK" horiz-adv-x="280" 
d="M112 0v590l56 4v-594h-56zM183 752q0 -40 -42 -40q-21 0 -32 8.5t-11 31.5q0 40 43 40q42 0 42 -40z" />
    <glyph glyph-name="dollar.subs" horiz-adv-x="279" 
d="M187 320l-6 -78q21 -2 39.5 -6.5t35.5 -11.5l-7 -40q-21 8 -41 12.5t-43 4.5q-40 0 -55.5 -16.5t-15.5 -39.5q0 -21 13 -32.5t32 -20t42 -16t42 -19t32 -31t13 -50.5q0 -46 -25 -74t-73 -33l-2 -80h-38l4 80q-52 3 -89 26l7 41q22 -15 45 -21.5t50 -6.5q75 0 75 64
q0 22 -13 35t-32 21.5t-42 16.5t-42 19.5t-32 30t-13 48.5q0 39 23.5 66.5t72.5 32.5l4 78h39z" />
    <glyph glyph-name="comma.subs" horiz-adv-x="138" 
d="M68 -90q17 0 25 -9.5t8 -25.5q0 -8 -3.5 -20.5t-9.5 -26.5t-13 -28.5t-14 -25.5l-17 4l16 70q-9 2 -16.5 10t-7.5 19q0 14 7.5 23.5t24.5 9.5z" />
    <glyph glyph-name="period.subs" horiz-adv-x="138" 
d="M101 -121q0 -30 -32 -30q-17 0 -25 6.5t-8 23.5q0 32 33 32q32 0 32 -32z" />
    <glyph glyph-name="cent.subs" horiz-adv-x="279" 
d="M250 184q-14 7 -32 11t-37 4q-54 0 -76.5 -30.5t-22.5 -106.5q0 -84 24.5 -116.5t74.5 -32.5q40 0 71 20l5 -37q-14 -9 -33 -15.5t-42 -8.5l-1 -83h-39l4 84q-57 7 -85.5 51t-28.5 138q0 88 29 131t95 48l5 79h38l-5 -79q34 -5 59 -17z" />
    <glyph glyph-name="dollar.sups" horiz-adv-x="279" 
d="M187 961l-6 -78q42 -3 75 -18l-7 -39q-21 8 -41 12.5t-43 4.5q-40 0 -55.5 -16.5t-15.5 -39.5q0 -21 13 -32.5t32 -20t42 -16t42 -19t32 -31t13 -50.5q0 -48 -25 -75t-73 -32l-2 -80h-38l4 79q-53 3 -89 27l7 41q22 -15 45 -21.5t50 -6.5q75 0 75 64q0 22 -13 34.5
t-32 21.5t-42 16.5t-42 19.5t-32 30t-13 49q0 39 23.5 66t72.5 32l4 78h39z" />
    <glyph glyph-name="comma.sups" horiz-adv-x="138" 
d="M68 551q33 0 33 -34q0 -8 -3.5 -21t-9.5 -27t-13 -28.5t-14 -24.5l-17 4l16 70q-9 2 -16.5 10t-7.5 19q0 14 7.5 23t24.5 9z" />
    <glyph glyph-name="period.sups" horiz-adv-x="138" 
d="M101 521q0 -30 -32 -30q-17 0 -25 6.5t-8 23.5q0 32 33 32q32 0 32 -32z" />
    <glyph glyph-name="cent.sups" horiz-adv-x="279" 
d="M250 826q-30 14 -69 14q-54 0 -76.5 -30t-22.5 -106q0 -42 6 -71t18.5 -46t31 -24.5t43.5 -7.5q20 0 38 4.5t33 15.5l5 -37q-14 -10 -33 -16.5t-42 -8.5l-1 -82h-39l4 83q-57 7 -85.5 51.5t-28.5 138.5q0 88 29 131t95 48l5 79h38l-5 -79q34 -5 59 -17z" />
    <glyph glyph-name="dollar.numr" horiz-adv-x="279" 
d="M187 817l-6 -78q42 -3 75 -18l-7 -39q-21 8 -41 12.5t-43 4.5q-40 0 -55.5 -16.5t-15.5 -39.5q0 -21 13 -32.5t32 -20t42 -16t42 -19t32 -31t13 -50.5q0 -48 -25 -75t-73 -32l-2 -80h-38l4 79q-53 3 -89 27l7 41q22 -15 45 -21.5t50 -6.5q75 0 75 64q0 22 -13 34.5
t-32 21.5t-42 16.5t-42 19.5t-32 30t-13 49q0 39 23.5 66t72.5 32l4 78h39z" />
    <glyph glyph-name="parenleft.numr" horiz-adv-x="185" 
d="M170 780q-32 -54 -49 -113.5t-17 -128.5q0 -70 17.5 -129t48.5 -112l-35 -2q-35 47 -55.5 109.5t-20.5 133.5q0 75 19.5 134t56.5 110z" />
    <glyph glyph-name="parenright.numr" horiz-adv-x="185" 
d="M51 782q37 -51 56 -110t19 -134q0 -71 -20 -133.5t-55 -109.5l-36 2q30 53 48 112t18 129q0 69 -17 128.5t-49 113.5z" />
    <glyph glyph-name="plus.numr" horiz-adv-x="328" 
d="M181 538v-108h-36v108h-106v40h106v110h36v-110h107v-40h-107z" />
    <glyph glyph-name="comma.numr" horiz-adv-x="138" 
d="M68 407q33 0 33 -34q0 -8 -3.5 -21t-9.5 -27t-13 -28.5t-14 -24.5l-17 4l16 70q-9 2 -16.5 10t-7.5 19q0 14 7.5 23t24.5 9z" />
    <glyph glyph-name="period.numr" horiz-adv-x="138" 
d="M101 377q0 -30 -32 -30q-17 0 -25 6.5t-8 23.5q0 32 33 32q32 0 32 -32z" />
    <glyph glyph-name="zero.numr" horiz-adv-x="325" 
d="M293 553q0 -56 -7.5 -94.5t-23 -62.5t-40.5 -35t-59 -11q-35 0 -59.5 11t-40.5 35t-23 62.5t-7 94.5q0 57 7 95.5t23 62.5t41 34t60 10q34 0 58.5 -10t40 -34t23 -62.5t7.5 -95.5zM245 554q0 49 -5 80t-14.5 48.5t-25 24t-36.5 6.5q-22 0 -38 -6.5t-26 -24t-15 -48.5
t-5 -80q0 -50 5 -81.5t15 -49.5t26 -24.5t38 -6.5q21 0 36.5 6.5t25 24.5t14.5 49.5t5 81.5z" />
    <glyph glyph-name="one.numr" horiz-adv-x="237" 
d="M174 356h-49v250l3 79l-3 1l-77 -54l-5 41l101 79h30v-396z" />
    <glyph glyph-name="two.numr" horiz-adv-x="310" 
d="M275 649q0 -31 -13.5 -61t-36.5 -60.5t-55 -62t-69 -64.5v-3h178l-1 -42h-237v32q35 36 68.5 70t59.5 66.5t41.5 62.5t15.5 58q0 29 -17.5 48t-59.5 19q-28 0 -51 -10.5t-43 -26.5l-13 39q20 17 49.5 29t65.5 12q59 0 88.5 -28t29.5 -78z" />
    <glyph glyph-name="three.numr" horiz-adv-x="310" 
d="M277 474q0 -57 -32 -90t-102 -33q-37 0 -63.5 8.5t-46.5 20.5l11 39q42 -27 99 -27q46 0 66.5 23t20.5 61t-26 55t-91 17v35q60 0 84.5 18t24.5 53q0 32 -20 45.5t-56 13.5q-30 0 -54 -9t-44 -26l-12 36q19 17 48 29t64 12q56 0 88 -24t32 -74q0 -38 -18.5 -59t-47.5 -30
v-2q37 -9 56 -31t19 -61z" />
    <glyph glyph-name="four.numr" horiz-adv-x="325" 
d="M262 444v-88h-45v88h-182l-4 29l172 277h59v-266h46l-2 -40h-44zM219 623l2 81l-2 1l-41 -71l-50 -82l-43 -65l1 -3h132z" />
    <glyph glyph-name="five.numr" horiz-adv-x="325" 
d="M288 491q0 -70 -30.5 -105t-96.5 -35q-62 0 -106 28l9 40q21 -14 42.5 -20.5t50.5 -6.5q45 0 64.5 22.5t19.5 73.5q0 41 -20 58.5t-60 17.5q-25 0 -47 -5.5t-38 -13.5l-20 17l15 188h199l2 -42h-164l-8 -116q17 5 35 8.5t36 3.5q117 0 117 -113z" />
    <glyph glyph-name="six.numr" horiz-adv-x="325" 
d="M291 491q0 -140 -124 -140q-31 0 -55 9.5t-40.5 31.5t-25 58t-8.5 89q0 114 39 165t114 51q23 0 42 -4t38 -11l-4 -41q-17 8 -33.5 10.5t-37.5 2.5q-54 0 -81 -32t-32 -106l3 -2q18 17 41.5 25.5t49.5 8.5q58 0 86 -27.5t28 -87.5zM243 491q0 42 -18 59.5t-56 17.5
q-22 0 -45.5 -10t-36.5 -29q1 -78 19.5 -107.5t61.5 -29.5q38 0 56.5 24t18.5 75z" />
    <glyph glyph-name="seven.numr" horiz-adv-x="325" 
d="M291 709l-153 -353h-56l157 349h-200l2 45h250v-41z" />
    <glyph glyph-name="eight.numr" horiz-adv-x="325" 
d="M34 463q0 35 19.5 59.5t51.5 40.5v3q-25 11 -41 31.5t-16 57.5q0 48 27 74t89 26q59 0 86 -25t27 -75q0 -60 -58 -91v-2q30 -12 51 -34t21 -65q0 -112 -127 -112q-68 0 -99 27.5t-31 84.5zM243 460q0 21 -8.5 34.5t-23 22.5t-32.5 16l-36 14q-27 -15 -44.5 -34.5
t-17.5 -50.5q0 -38 18.5 -55t64.5 -17q37 0 58 16t21 54zM93 654q0 -18 7.5 -30t19.5 -20.5t28 -14.5t33 -12q26 15 39 33t13 42q0 33 -16.5 48.5t-52.5 15.5q-71 0 -71 -62z" />
    <glyph glyph-name="nine.numr" horiz-adv-x="325" 
d="M286 572q0 -60 -9 -102.5t-27 -68.5t-45 -38t-62 -12q-28 0 -46.5 4.5t-36.5 12.5l7 39q18 -8 34.5 -11.5t38.5 -3.5q50 0 76 35.5t29 126.5l-2 1q-32 -36 -86 -36q-64 0 -92 31.5t-28 84.5q0 56 29.5 88t90.5 32q67 0 98 -44t31 -139zM240 590q0 36 -5.5 60.5t-16 38.5
t-26 20t-36.5 6q-35 0 -55 -19.5t-20 -58.5t19 -60.5t61 -21.5q23 0 45 9t34 26z" />
    <glyph glyph-name="equal.numr" horiz-adv-x="328" 
d="M42 594v35h244v-35h-244zM42 490v36h244v-36h-244z" />
    <glyph glyph-name="cent.numr" horiz-adv-x="279" 
d="M250 682q-30 14 -68 14q-55 0 -77.5 -30.5t-22.5 -106.5q0 -84 24.5 -116t74.5 -32q20 0 38 4.5t33 14.5l5 -36q-14 -10 -32.5 -16.5t-41.5 -8.5l-2 -82h-39l4 83q-57 7 -85.5 51.5t-28.5 138.5q0 88 29.5 131t95.5 48l4 78h39l-6 -78q17 -2 32 -7t27 -10z" />
    <glyph glyph-name="minus.numr" horiz-adv-x="328" 
d="M44 541v40h243v-40h-243z" />
    <glyph glyph-name="dollar.dnom" horiz-adv-x="279" 
d="M187 462l-6 -78q21 -2 39.5 -6.5t35.5 -11.5l-7 -40q-21 8 -41 12.5t-43 4.5q-40 0 -55.5 -16.5t-15.5 -39.5q0 -21 13 -32.5t32 -20t42 -15.5t42 -19t32 -31t13 -51q0 -47 -25 -74.5t-73 -32.5l-2 -80h-38l4 79q-53 3 -89 27l7 41q22 -15 45 -21.5t50 -6.5q75 0 75 64
q0 22 -13 35t-32 21.5t-42 16.5t-42 19.5t-32 30t-13 48.5q0 39 23.5 66.5t72.5 32.5l4 78h39z" />
    <glyph glyph-name="parenleft.dnom" horiz-adv-x="185" 
d="M170 424q-32 -54 -49 -113t-17 -128q0 -71 17.5 -129.5t48.5 -111.5l-35 -3q-35 47 -55.5 109.5t-20.5 134.5q0 75 19.5 133.5t56.5 110.5z" />
    <glyph glyph-name="parenright.dnom" horiz-adv-x="185" 
d="M51 427q37 -52 56 -110.5t19 -133.5q0 -72 -20 -134.5t-55 -109.5l-36 3q30 53 48 111.5t18 129.5q0 69 -17 128t-49 113z" />
    <glyph glyph-name="plus.dnom" horiz-adv-x="328" 
d="M181 183v-109h-36v109h-106v40h106v109h36v-109h107v-40h-107z" />
    <glyph glyph-name="comma.dnom" horiz-adv-x="138" 
d="M68 52q33 0 33 -35q0 -8 -3.5 -20.5t-9.5 -26.5t-13 -28.5t-14 -25.5l-17 4l16 70q-9 2 -16.5 10t-7.5 19q0 14 7.5 23.5t24.5 9.5z" />
    <glyph glyph-name="period.dnom" horiz-adv-x="138" 
d="M101 21q0 -30 -32 -30q-33 0 -33 30q0 32 33 32q32 0 32 -32z" />
    <glyph glyph-name="zero.dnom" horiz-adv-x="325" 
d="M293 198q0 -56 -7.5 -94.5t-23 -62.5t-40.5 -35t-59 -11q-35 0 -59.5 11t-40.5 35t-23 62.5t-7 94.5q0 57 7 95.5t23 62t41 33.5t60 10q34 0 58.5 -10t40 -33.5t23 -62t7.5 -95.5zM245 198q0 49 -5 80.5t-14.5 49t-25 24t-36.5 6.5q-22 0 -38 -6.5t-26 -24t-15 -49
t-5 -80.5q0 -50 5 -81.5t15 -49.5t26 -24.5t38 -6.5q21 0 36.5 6.5t25 24.5t14.5 49.5t5 81.5z" />
    <glyph glyph-name="one.dnom" horiz-adv-x="237" 
d="M174 0h-49v251l3 79l-3 1l-77 -55l-5 41l101 79h30v-396z" />
    <glyph glyph-name="two.dnom" horiz-adv-x="310" 
d="M275 294q0 -31 -13.5 -61.5t-36.5 -61t-55 -62t-69 -64.5v-3h178l-1 -42h-237v32q35 36 68.5 70.5t59.5 67t41.5 62.5t15.5 57q0 29 -17.5 48t-59.5 19q-28 0 -51 -10t-43 -27l-13 40q20 17 49.5 28.5t65.5 11.5q59 0 88.5 -28t29.5 -77z" />
    <glyph glyph-name="three.dnom" horiz-adv-x="310" 
d="M286 118q0 -57 -31.5 -90t-101.5 -33q-37 0 -64 8.5t-47 20.5l11 39q21 -13 45.5 -20t53.5 -7q46 0 67 23t21 61t-26 55t-92 17v36q61 0 85.5 18t24.5 53q0 31 -20 45t-56 14q-31 0 -54.5 -9.5t-43.5 -26.5l-13 36q19 17 48 29t64 12q57 0 88.5 -24t31.5 -73
q0 -38 -18.5 -59.5t-48.5 -30.5v-2q37 -8 56.5 -29.5t19.5 -62.5z" />
    <glyph glyph-name="four.dnom" horiz-adv-x="325" 
d="M262 89v-89h-45v89h-182l-4 28l172 277h59v-265h46l-2 -40h-44zM219 267l2 81l-2 1l-41 -70l-50 -82l-43 -65l1 -3h132z" />
    <glyph glyph-name="five.dnom" horiz-adv-x="325" 
d="M288 135q0 -70 -30.5 -105t-96.5 -35q-62 0 -106 28l9 40q21 -13 42.5 -19.5t50.5 -6.5q45 0 64.5 22t19.5 73q0 41 -20 58.5t-60 17.5q-25 0 -47 -5.5t-38 -13.5l-20 17l15 188h199l2 -42h-164l-8 -116q33 12 71 12q117 0 117 -113z" />
    <glyph glyph-name="six.dnom" horiz-adv-x="325" 
d="M291 135q0 -140 -124 -140q-31 0 -55 9.5t-40.5 31.5t-25 58t-8.5 89q0 114 39 165t114 51q23 0 42 -3.5t38 -11.5l-4 -41q-17 8 -33.5 10.5t-37.5 2.5q-54 0 -81 -31.5t-32 -105.5l3 -2q18 17 41.5 25t49.5 8q58 0 86 -27.5t28 -87.5zM243 136q0 42 -18 59t-56 17
q-22 0 -45.5 -9.5t-36.5 -29.5q1 -78 19.5 -107t61.5 -29q38 0 56.5 23.5t18.5 75.5z" />
    <glyph glyph-name="seven.dnom" horiz-adv-x="325" 
d="M291 354l-153 -354h-56l157 349h-200l2 45h250v-40z" />
    <glyph glyph-name="eight.dnom" horiz-adv-x="325" 
d="M34 107q0 35 19.5 60t52.5 40v3q-26 11 -42 32t-16 58q0 47 27 73t89 26q59 0 86 -25t27 -74q0 -31 -15 -54.5t-43 -37.5v-2q29 -12 50.5 -33.5t21.5 -65.5q0 -112 -127 -112q-68 0 -99 27.5t-31 84.5zM243 104q0 21 -8.5 34.5t-23 22.5t-32.5 16l-36 14
q-27 -15 -44.5 -34.5t-17.5 -50.5q0 -38 18.5 -54.5t64.5 -16.5q37 0 58 15.5t21 53.5zM93 298q0 -18 7.5 -30t19.5 -20.5t28 -14.5t33 -12q26 15 39 33t13 42q0 33 -16.5 49t-52.5 16q-71 0 -71 -63z" />
    <glyph glyph-name="nine.dnom" horiz-adv-x="325" 
d="M286 216q0 -60 -9 -102.5t-27 -68.5t-45 -38t-62 -12q-28 0 -46.5 4.5t-36.5 12.5l7 40q18 -8 34.5 -12t38.5 -4q50 0 76 35.5t29 126.5l-2 1q-32 -36 -86 -36q-64 0 -92 31.5t-28 85.5q0 55 29.5 87.5t90.5 32.5q67 0 98 -44.5t31 -139.5zM240 234q0 36 -5.5 60.5
t-16 38.5t-26 20t-36.5 6q-35 0 -55 -19t-20 -59q0 -38 19 -60t61 -22q23 0 45 9t34 26z" />
    <glyph glyph-name="equal.dnom" horiz-adv-x="328" 
d="M42 239v34h244v-34h-244zM42 135v35h244v-35h-244z" />
    <glyph glyph-name="cent.dnom" horiz-adv-x="279" 
d="M250 326q-14 8 -32 11.5t-36 3.5q-55 0 -77.5 -30.5t-22.5 -106.5q0 -84 24.5 -116.5t74.5 -32.5q40 0 71 20l5 -36q-14 -10 -32.5 -17t-41.5 -9l-2 -82h-39l4 83q-57 8 -85.5 52t-28.5 138q0 88 29.5 131t95.5 48l4 79h39l-6 -79q34 -5 59 -17z" />
    <glyph glyph-name="minus.dnom" horiz-adv-x="328" 
d="M44 186v39h243v-39h-243z" />
    <glyph glyph-name="numbersign.osf" horiz-adv-x="537" 
d="M144 251l24 155h-122v45h127l25 198h44l-25 -198h136l24 198h44l-25 -198h96v-45h-102l-21 -155h123v-45h-129l-25 -206h-44l26 206h-136l-25 -206h-45l25 206h-94v45h99zM189 251h135l23 155h-135z" />
    <glyph glyph-name="dollar.osf" horiz-adv-x="437" 
d="M393 164q0 -76 -36 -121t-114 -53l-6 -141h-47l6 140q-42 2 -79 14t-63 35l8 52q29 -25 69.5 -38t80.5 -13q68 0 98.5 33t30.5 87q0 40 -21 64t-53 40t-68.5 29t-68.5 31.5t-53 47.5t-21 77q0 70 42 110t122 43l8 130h45l-8 -131q29 -2 55.5 -10t51.5 -20l-6 -51
q-66 32 -133 32q-57 0 -90 -27t-33 -73q0 -37 21 -58.5t52.5 -36t68 -27t68 -31.5t52.5 -50.5t21 -83.5z" />
    <glyph glyph-name="zero.osf" horiz-adv-x="568" 
d="M510 311q0 -87 -13 -148t-40.5 -99t-70 -55.5t-102.5 -17.5t-103 17.5t-70 55.5t-40 99t-13 148q0 88 13 149.5t40.5 99.5t70.5 55t103 17q59 0 101.5 -17t70 -55t40.5 -99.5t13 -149.5zM454 312q0 79 -10 130.5t-31 81.5t-53 42t-75 12q-44 0 -76.5 -12t-53.5 -42
t-31.5 -81.5t-10.5 -130.5q0 -80 10.5 -131.5t31.5 -82t53.5 -42.5t76.5 -12q43 0 75 12t53 42.5t31 82.5t10 131z" />
    <glyph glyph-name="one.osf" horiz-adv-x="421" 
d="M296 0h-57v464l2 81l-2 1l-65 -48l-76 -53l-7 52l173 129h32v-626z" />
    <glyph glyph-name="two.osf" horiz-adv-x="529" 
d="M461 464q0 -51 -24 -99.5t-66.5 -98t-101 -101.5t-128.5 -109v-3h327l-3 -53h-402v41q63 58 124 112.5t109 107t77.5 102t29.5 97.5q0 50 -35 83.5t-117 33.5q-48 0 -91 -17.5t-77 -45.5l-17 48q35 29 84.5 49.5t107.5 20.5q99 0 151 -44.5t52 -123.5z" />
    <glyph glyph-name="three.osf" horiz-adv-x="524" 
d="M462 157q0 -61 -24 -109.5t-68.5 -83.5t-108.5 -54.5t-145 -21.5l-5 50q76 2 132.5 19.5t93 46.5t54.5 68t18 84q0 67 -40.5 101t-118.5 34q-14 0 -31 -1.5t-31 -3.5l-3 43q58 7 96 19t61 29t32.5 40t9.5 52q0 52 -33 81t-111 29q-51 0 -92.5 -15.5t-76.5 -44.5l-16 47
q30 29 81 48t108 19q97 0 144 -42.5t47 -114.5q0 -116 -106 -152v-2q69 -14 101 -56t32 -109z" />
    <glyph glyph-name="four.osf" horiz-adv-x="553" 
d="M438 74v-178l-51 -3v181h-343l-5 40l339 518l60 -6v-502h88l-2 -50h-86zM391 493l3 81l-2 1l-43 -69l-203 -315l-44 -64l1 -3h286z" />
    </font>
</defs>
</svg>
