<?xml version="1.0" encoding="utf-8"?>
<!-- Generator: Adobe Illustrator 14.0.0, SVG Export Plug-In . SVG Version: 6.00 Build 43363)  -->
<!DOCTYPE svg PUBLIC "-//W3C//DTD SVG 1.1//EN" "http://www.w3.org/Graphics/SVG/1.1/DTD/svg11.dtd">
<svg version="1.1" id="GI_x5F_Max_Mueller_Bhavan" xmlns="http://www.w3.org/2000/svg" xmlns:xlink="http://www.w3.org/1999/xlink"
	 x="0px" y="0px" width="638.248px" height="312.491px" viewBox="0 0 638.248 312.491" enable-background="new 0 0 638.248 312.491"
	 xml:space="preserve">
<g>
	<path d="M231.776,103.377c28.548,0,51.688-23.138,51.688-51.688c0-28.547-23.141-51.689-51.688-51.689
		c-28.551,0-51.692,23.143-51.692,51.689C180.084,80.239,203.226,103.377,231.776,103.377L231.776,103.377z M231.776,11.517
		c22.177,0,40.167,17.984,40.167,40.176c0,22.182-17.99,40.169-40.167,40.169c-22.188,0-40.175-17.987-40.175-40.169
		C191.602,29.501,209.589,11.517,231.776,11.517L231.776,11.517z"/>
	<path d="M102.17,141.736c0-21.846,17.705-39.553,39.553-39.553l0.01-11.293c-28.115,0-50.902,22.738-50.902,50.846
		c0,28.111,22.787,50.893,50.896,50.893s50.833-22.775,50.833-50.889l-11.21-0.004c0,21.85-17.781,39.557-39.627,39.557
		C119.875,181.293,102.17,163.586,102.17,141.736L102.17,141.736z"/>
	<path d="M68.297,141.736c0,40.559,32.877,73.434,73.43,73.434c40.559,0,73.511-32.875,73.511-73.434l-11.25,0.004
		c0,34.33-27.933,62.152-62.261,62.152c-34.332,0-62.155-27.828-62.155-62.156s27.833-62.147,62.161-62.147l-0.006-11.287
		C101.174,68.302,68.297,101.182,68.297,141.736L68.297,141.736z"/>
	<path d="M45.502,141.736c0,53.146,43.084,96.225,96.225,96.225c53.142,0,96.116-43.074,96.116-96.221l-11.332-0.004
		c0,46.793-38.003,84.715-84.784,84.715c-46.789,0-84.711-37.922-84.711-84.715c0-46.781,37.922-84.708,84.711-84.708l0.006-11.408
		C88.586,45.62,45.502,88.59,45.502,141.736L45.502,141.736z"/>
	<path d="M141.732,22.683c-65.751,0-119.049,53.301-119.049,119.05c0,65.752,53.298,119.052,119.049,119.052
		c65.743,0,118.965-53.294,118.965-119.044l-11.316-0.004c0,59.408-48.241,107.573-107.648,107.573
		c-59.415,0-107.574-48.165-107.574-107.573c0-59.41,48.159-107.573,107.574-107.573V22.683L141.732,22.683z"/>
	<path d="M141.738,272.175c-72.048,0-130.447-58.401-130.447-130.442c0-72.044,58.399-130.44,130.447-130.44l-0.006-11.293
		C63.453-0.001,0,63.45,0,141.732c0,78.279,63.459,141.731,141.738,141.731c78.272,0,141.727-63.444,141.727-141.724l-11.211-0.008
		C272.254,213.773,213.776,272.175,141.738,272.175L141.738,272.175z"/>
	<path d="M344.557,123.677c5.666,0,12.646-1.268,16.441-3.051v-30.76H341.64v9.67h7.691v13.816c-1.352,0.236-3.391,0.33-5.074,0.33
		c-8.57,0-15.211-4.525-15.211-19.057c0-14.311,6.711-18.85,16.702-18.85c4.173,0,9.669,0.898,13.169,2.311l1.191-9.76
		c-3.873-1.568-10.188-2.531-15.029-2.531c-17.217,0-28.319,9.008-28.319,28.977C316.76,114.3,327.044,123.677,344.557,123.677
		L344.557,123.677z"/>
	<polygon points="539.698,122.563 551.689,122.563 551.689,66.69 539.698,66.69 539.698,88.749 521.733,88.749 521.733,66.69 
		509.744,66.69 509.744,122.563 521.733,122.563 521.733,98.716 539.698,98.716 539.698,122.563 	"/>
	<polygon points="490.856,122.563 490.856,76.749 502.989,76.749 502.989,66.69 466.575,66.69 466.575,76.749 478.712,76.749 
		478.712,122.563 490.856,122.563 	"/>
	<polygon points="438.345,98.776 458.073,98.776 458.073,88.921 438.345,88.921 438.345,76.659 461.573,76.659 461.573,66.69 
		426.355,66.69 426.355,122.563 462.36,122.563 462.36,112.595 438.345,112.595 438.345,98.776 	"/>
	<path d="M393.456,124.204c15.875,0,23.542-8.527,23.542-29.617c0-20.639-7.667-29.535-23.542-29.535
		c-15.862,0-23.529,8.896-23.529,29.535S377.888,124.204,393.456,124.204L393.456,124.204z M393.456,74.993
		c7.613,0,11.26,4.762,11.26,19.594c0,14.758-3.646,19.742-11.18,19.742c-7.601,0-11.328-4.906-11.328-19.742
		C382.208,79.829,385.936,74.993,393.456,74.993L393.456,74.993z"/>
	<polygon points="599.573,112.595 575.557,112.595 575.557,98.776 595.28,98.776 595.28,88.921 575.557,88.921 575.557,76.659 
		598.784,76.659 598.784,66.69 563.567,66.69 563.567,122.563 599.573,122.563 599.573,112.595 	"/>
	<polygon points="424.726,151.444 435.835,151.444 435.835,195.657 447.55,195.657 447.55,151.444 458.661,151.444 458.661,141.735 
		424.726,141.735 424.726,151.444 	"/>
	<polygon points="320.782,195.657 332.614,195.657 332.614,141.739 320.782,141.739 320.782,195.657 	"/>
	<path d="M549.757,176.897c0,6.258-2.145,9.717-7.973,9.717c-5.781,0-8.051-3.529-8.051-9.717v-35.158h-11.73v35.596
		c0,12.939,6.658,19.262,19.75,19.262c12.947,0,19.607-6.322,19.607-19.262v-35.596h-11.604V176.897L549.757,176.897z"/>
	<path d="M402.106,156.108c0-2.795,1.434-5.553,7.305-5.553c3.674,0,6.934,0.98,10.201,2.404l1.291-9.424
		c-3.738-1.723-7.613-2.66-12.504-2.66c-12.439,0-17.806,7.191-17.806,16.322c0,17.344,21.438,14.025,21.438,23.658
		c0,3.707-2.329,6.193-7.231,6.193c-4.822,0-8.914-1.627-12.916-3.891l-1.507,9.627c4.165,2.445,9.321,3.811,14.931,3.811
		c11.652,0,18.242-6.471,18.242-17.033C423.55,161.646,402.106,164.44,402.106,156.108L402.106,156.108z"/>
	<polygon points="371.669,173.216 355.09,141.739 344.386,141.739 344.386,195.657 355.09,195.657 355.09,164.183 371.669,195.657 
		382.373,195.657 382.373,141.739 371.669,141.739 371.669,173.216 	"/>
	<polygon points="566.821,141.735 566.821,151.444 577.933,151.444 577.933,195.657 589.653,195.657 589.653,151.444 
		600.765,151.444 600.765,141.735 566.821,141.735 	"/>
	<polygon points="464.66,195.657 476.483,195.657 476.483,141.739 464.66,141.739 464.66,195.657 	"/>
	<polygon points="482.476,151.444 493.587,151.444 493.587,195.657 505.308,195.657 505.308,151.444 516.419,151.444 
		516.419,141.735 482.476,141.735 482.476,151.444 	"/>
	<path d="M495.683,255.048c0,4.172-1.809,6.477-5.695,6.477c-3.854,0-5.758-2.35-5.758-6.477v-23.439h-7.819v23.73
		c0,8.625,4.827,12.842,13.556,12.842c8.629,0,13.457-4.217,13.457-12.842v-23.73h-7.74V255.048L495.683,255.048z"/>
	<path fill-rule="evenodd" clip-rule="evenodd" d="M337.515,286.933c0,2.924-1.104,4.23-3.884,4.23h-5.374v-8.406h5.227
		C336.314,282.757,337.515,283.907,337.515,286.933z M338.331,301.546c0,3.547-1.392,4.729-4.32,4.729h-5.754v-9.221h5.516
		C337.081,297.054,338.331,298.38,338.331,301.546z M346.091,302.042c0-4.699-2.014-7.432-5.654-8.58
		c2.732-1.295,4.507-3.736,4.507-7.723c0-5.844-3.69-9.197-10.979-9.197h-13.183v35.947h13.275
		C342.544,312.489,346.091,308.515,346.091,302.042z"/>
	<polygon points="370.769,312.489 378.481,312.489 378.481,276.542 370.769,276.542 370.769,290.733 359.825,290.733 
		359.825,276.542 352.108,276.542 352.108,312.489 359.825,312.489 359.825,297.146 370.769,297.146 370.769,312.489 	"/>
	<polygon points="605.894,261.14 591.595,261.14 591.595,252.251 603.13,252.251 603.13,245.909 591.595,245.909 591.595,238.021 
		605.386,238.021 605.386,231.608 583.878,231.608 583.878,267.554 605.894,267.554 605.894,261.14 	"/>
	<polygon points="569.114,231.606 569.114,261.083 579.976,261.083 579.976,267.554 561.302,267.554 561.302,231.606 
		569.114,231.606 	"/>
	<polygon points="532.96,261.14 518.663,261.14 518.663,252.251 530.196,252.251 530.196,245.909 518.663,245.909 518.663,238.021 
		532.452,238.021 532.452,231.608 510.944,231.608 510.944,267.554 532.96,267.554 532.96,261.14 	"/>
	<polygon points="546.538,231.606 546.538,261.083 557.399,261.083 557.399,267.554 538.726,267.554 538.726,231.606 
		546.538,231.606 	"/>
	<polygon points="481.163,312.489 474.028,312.489 474.028,276.542 481.163,276.542 493.29,298.206 493.29,276.542 500.427,276.542 
		500.427,312.489 493.29,312.489 481.163,290.825 	"/>
	<path fill-rule="evenodd" clip-rule="evenodd" d="M636.14,242.679c0-7.766-4.188-11.072-12.575-11.072l-11.907,0.002v35.945h7.633
		v-13.707h4.299l5.707,13.707h8.951l-7.57-15.232C634.161,251.171,636.14,247.812,636.14,242.679z M628.216,242.851
		c0,3.982-1.344,5.207-4.651,5.207h-4.274v-10.32h4.367C626.966,237.737,628.216,239.108,628.216,242.851z"/>
	<polygon points="411.502,276.542 420.183,276.542 426.562,303.046 433.052,276.542 441.007,276.542 430.511,312.489 
		421.95,312.489 	"/>
	<polygon points="449.138,267.554 441.517,247.015 441.517,267.554 434.381,267.554 434.381,231.608 442.929,231.608 
		451.874,255.706 460.694,231.608 468.888,231.608 468.888,267.554 461.753,267.554 461.753,246.851 454.173,267.554 	"/>
	<path fill-rule="evenodd" clip-rule="evenodd" d="M377.318,254.341l-3.526-14.006l-3.525,14.006H377.318z M389.423,267.554h-8.776
		l-1.71-6.799h-10.284l-1.709,6.799h-8.153l11.025-35.945h1.779h4.393h2.404L389.423,267.554z"/>
	<polygon points="335.546,267.554 327.919,247.015 327.919,267.554 320.782,267.554 320.782,231.608 329.331,231.608 
		338.282,255.706 347.103,231.608 355.29,231.608 355.29,267.554 348.156,267.554 348.156,246.851 340.581,267.554 	"/>
	<path fill-rule="evenodd" clip-rule="evenodd" d="M400.513,299.274l-3.531-14.004l-3.525,14.004H400.513z M412.614,312.489h-8.777
		l-1.709-6.799h-10.284l-1.712,6.799h-8.152l11.027-35.947h1.778h4.4h2.401L412.614,312.489z"/>
	<path fill-rule="evenodd" clip-rule="evenodd" d="M458.429,299.274l-3.525-14.004l-3.525,14.004H458.429z M470.528,312.489h-8.77
		l-1.717-6.799h-10.279l-1.715,6.799h-8.146l11.024-35.947h1.779h4.393h2.404L470.528,312.489z"/>
	<polygon points="399.073,231.608 404.329,243.196 409.602,231.608 418.325,231.608 409.285,248.974 418.706,267.554 
		409.532,267.554 403.985,255.05 398.575,267.554 389.757,267.554 398.856,248.976 389.946,231.608 	"/>
</g>
</svg>
